<mxfile host="app.diagrams.net" modified="2024-04-23T14:07:28.887Z" agent="Mozilla/5.0 (X11; Linux x86_64) AppleWebKit/537.36 (KHTML, like Gecko) Chrome/123.0.0.0 Safari/537.36" etag="hHEeXF6v6Vgh_C4yK5Jv" version="24.2.8" type="device">
  <diagram name="Page-1" id="Twt7LbM5ReN1NzU-rekU">
    <mxGraphModel dx="2633" dy="870" grid="1" gridSize="10" guides="1" tooltips="1" connect="1" arrows="1" fold="1" page="0" pageScale="1" pageWidth="827" pageHeight="1169" math="0" shadow="0">
      <root>
        <mxCell id="0" />
        <mxCell id="1" parent="0" />
        <mxCell id="ZQSnCNjEJaoJJcT3hJNP-1" value="&lt;span style=&quot;text-wrap: nowrap;&quot;&gt;TypeContact&lt;/span&gt;" style="swimlane;fontStyle=0;childLayout=stackLayout;horizontal=1;startSize=30;horizontalStack=0;resizeParent=1;resizeParentMax=0;resizeLast=0;collapsible=1;marginBottom=0;whiteSpace=wrap;html=1;" vertex="1" parent="1">
          <mxGeometry x="530" y="210" width="140" height="90" as="geometry" />
        </mxCell>
        <mxCell id="ZQSnCNjEJaoJJcT3hJNP-2" value="id" style="text;strokeColor=none;fillColor=none;align=left;verticalAlign=middle;spacingLeft=4;spacingRight=4;overflow=hidden;points=[[0,0.5],[1,0.5]];portConstraint=eastwest;rotatable=0;whiteSpace=wrap;html=1;" vertex="1" parent="ZQSnCNjEJaoJJcT3hJNP-1">
          <mxGeometry y="30" width="140" height="30" as="geometry" />
        </mxCell>
        <mxCell id="ZQSnCNjEJaoJJcT3hJNP-3" value="label Youtube" style="text;strokeColor=none;fillColor=none;align=left;verticalAlign=middle;spacingLeft=4;spacingRight=4;overflow=hidden;points=[[0,0.5],[1,0.5]];portConstraint=eastwest;rotatable=0;whiteSpace=wrap;html=1;" vertex="1" parent="ZQSnCNjEJaoJJcT3hJNP-1">
          <mxGeometry y="60" width="140" height="30" as="geometry" />
        </mxCell>
        <mxCell id="ZQSnCNjEJaoJJcT3hJNP-4" value="Contact" style="swimlane;fontStyle=0;childLayout=stackLayout;horizontal=1;startSize=30;horizontalStack=0;resizeParent=1;resizeParentMax=0;resizeLast=0;collapsible=1;marginBottom=0;whiteSpace=wrap;html=1;" vertex="1" parent="1">
          <mxGeometry x="110" y="210" width="140" height="120" as="geometry" />
        </mxCell>
        <mxCell id="ZQSnCNjEJaoJJcT3hJNP-5" value="id" style="text;strokeColor=none;fillColor=none;align=left;verticalAlign=middle;spacingLeft=4;spacingRight=4;overflow=hidden;points=[[0,0.5],[1,0.5]];portConstraint=eastwest;rotatable=0;whiteSpace=wrap;html=1;" vertex="1" parent="ZQSnCNjEJaoJJcT3hJNP-4">
          <mxGeometry y="30" width="140" height="30" as="geometry" />
        </mxCell>
        <mxCell id="ZQSnCNjEJaoJJcT3hJNP-6" value="type" style="text;strokeColor=none;fillColor=none;align=left;verticalAlign=middle;spacingLeft=4;spacingRight=4;overflow=hidden;points=[[0,0.5],[1,0.5]];portConstraint=eastwest;rotatable=0;whiteSpace=wrap;html=1;" vertex="1" parent="ZQSnCNjEJaoJJcT3hJNP-4">
          <mxGeometry y="60" width="140" height="30" as="geometry" />
        </mxCell>
        <mxCell id="ZQSnCNjEJaoJJcT3hJNP-7" value="valeur https://ww.yt.com" style="text;strokeColor=none;fillColor=none;align=left;verticalAlign=middle;spacingLeft=4;spacingRight=4;overflow=hidden;points=[[0,0.5],[1,0.5]];portConstraint=eastwest;rotatable=0;whiteSpace=wrap;html=1;" vertex="1" parent="ZQSnCNjEJaoJJcT3hJNP-4">
          <mxGeometry y="90" width="140" height="30" as="geometry" />
        </mxCell>
        <mxCell id="ZQSnCNjEJaoJJcT3hJNP-8" value="Media" style="swimlane;fontStyle=0;childLayout=stackLayout;horizontal=1;startSize=30;horizontalStack=0;resizeParent=1;resizeParentMax=0;resizeLast=0;collapsible=1;marginBottom=0;whiteSpace=wrap;html=1;" vertex="1" parent="1">
          <mxGeometry x="120" y="449" width="140" height="120" as="geometry" />
        </mxCell>
        <mxCell id="ZQSnCNjEJaoJJcT3hJNP-9" value="id" style="text;strokeColor=none;fillColor=none;align=left;verticalAlign=middle;spacingLeft=4;spacingRight=4;overflow=hidden;points=[[0,0.5],[1,0.5]];portConstraint=eastwest;rotatable=0;whiteSpace=wrap;html=1;" vertex="1" parent="ZQSnCNjEJaoJJcT3hJNP-8">
          <mxGeometry y="30" width="140" height="30" as="geometry" />
        </mxCell>
        <mxCell id="ZQSnCNjEJaoJJcT3hJNP-10" value="url" style="text;strokeColor=none;fillColor=none;align=left;verticalAlign=middle;spacingLeft=4;spacingRight=4;overflow=hidden;points=[[0,0.5],[1,0.5]];portConstraint=eastwest;rotatable=0;whiteSpace=wrap;html=1;" vertex="1" parent="ZQSnCNjEJaoJJcT3hJNP-8">
          <mxGeometry y="60" width="140" height="30" as="geometry" />
        </mxCell>
        <mxCell id="ZQSnCNjEJaoJJcT3hJNP-11" value="label" style="text;strokeColor=none;fillColor=none;align=left;verticalAlign=middle;spacingLeft=4;spacingRight=4;overflow=hidden;points=[[0,0.5],[1,0.5]];portConstraint=eastwest;rotatable=0;whiteSpace=wrap;html=1;" vertex="1" parent="ZQSnCNjEJaoJJcT3hJNP-8">
          <mxGeometry y="90" width="140" height="30" as="geometry" />
        </mxCell>
        <mxCell id="ZQSnCNjEJaoJJcT3hJNP-12" value="Post" style="swimlane;fontStyle=0;childLayout=stackLayout;horizontal=1;startSize=30;horizontalStack=0;resizeParent=1;resizeParentMax=0;resizeLast=0;collapsible=1;marginBottom=0;whiteSpace=wrap;html=1;" vertex="1" parent="1">
          <mxGeometry x="-320" y="479" width="140" height="210" as="geometry" />
        </mxCell>
        <mxCell id="ZQSnCNjEJaoJJcT3hJNP-13" value="id" style="text;strokeColor=none;fillColor=none;align=left;verticalAlign=middle;spacingLeft=4;spacingRight=4;overflow=hidden;points=[[0,0.5],[1,0.5]];portConstraint=eastwest;rotatable=0;whiteSpace=wrap;html=1;" vertex="1" parent="ZQSnCNjEJaoJJcT3hJNP-12">
          <mxGeometry y="30" width="140" height="30" as="geometry" />
        </mxCell>
        <mxCell id="ZQSnCNjEJaoJJcT3hJNP-14" value="titre" style="text;strokeColor=none;fillColor=none;align=left;verticalAlign=middle;spacingLeft=4;spacingRight=4;overflow=hidden;points=[[0,0.5],[1,0.5]];portConstraint=eastwest;rotatable=0;whiteSpace=wrap;html=1;" vertex="1" parent="ZQSnCNjEJaoJJcT3hJNP-12">
          <mxGeometry y="60" width="140" height="30" as="geometry" />
        </mxCell>
        <mxCell id="ZQSnCNjEJaoJJcT3hJNP-15" value="text" style="text;strokeColor=none;fillColor=none;align=left;verticalAlign=middle;spacingLeft=4;spacingRight=4;overflow=hidden;points=[[0,0.5],[1,0.5]];portConstraint=eastwest;rotatable=0;whiteSpace=wrap;html=1;" vertex="1" parent="ZQSnCNjEJaoJJcT3hJNP-12">
          <mxGeometry y="90" width="140" height="30" as="geometry" />
        </mxCell>
        <mxCell id="ZQSnCNjEJaoJJcT3hJNP-16" value="type" style="text;strokeColor=none;fillColor=none;align=left;verticalAlign=middle;spacingLeft=4;spacingRight=4;overflow=hidden;points=[[0,0.5],[1,0.5]];portConstraint=eastwest;rotatable=0;whiteSpace=wrap;html=1;" vertex="1" parent="ZQSnCNjEJaoJJcT3hJNP-12">
          <mxGeometry y="120" width="140" height="30" as="geometry" />
        </mxCell>
        <mxCell id="ZQSnCNjEJaoJJcT3hJNP-17" value="created_at" style="text;strokeColor=none;fillColor=none;align=left;verticalAlign=middle;spacingLeft=4;spacingRight=4;overflow=hidden;points=[[0,0.5],[1,0.5]];portConstraint=eastwest;rotatable=0;whiteSpace=wrap;html=1;" vertex="1" parent="ZQSnCNjEJaoJJcT3hJNP-12">
          <mxGeometry y="150" width="140" height="30" as="geometry" />
        </mxCell>
        <mxCell id="ZQSnCNjEJaoJJcT3hJNP-18" value="updated_at" style="text;strokeColor=none;fillColor=none;align=left;verticalAlign=middle;spacingLeft=4;spacingRight=4;overflow=hidden;points=[[0,0.5],[1,0.5]];portConstraint=eastwest;rotatable=0;whiteSpace=wrap;html=1;" vertex="1" parent="ZQSnCNjEJaoJJcT3hJNP-12">
          <mxGeometry y="180" width="140" height="30" as="geometry" />
        </mxCell>
        <mxCell id="ZQSnCNjEJaoJJcT3hJNP-19" value="Competences" style="swimlane;fontStyle=0;childLayout=stackLayout;horizontal=1;startSize=30;horizontalStack=0;resizeParent=1;resizeParentMax=0;resizeLast=0;collapsible=1;marginBottom=0;whiteSpace=wrap;html=1;" vertex="1" parent="1">
          <mxGeometry x="110" y="100" width="140" height="90" as="geometry" />
        </mxCell>
        <mxCell id="ZQSnCNjEJaoJJcT3hJNP-20" value="id" style="text;strokeColor=none;fillColor=none;align=left;verticalAlign=middle;spacingLeft=4;spacingRight=4;overflow=hidden;points=[[0,0.5],[1,0.5]];portConstraint=eastwest;rotatable=0;whiteSpace=wrap;html=1;" vertex="1" parent="ZQSnCNjEJaoJJcT3hJNP-19">
          <mxGeometry y="30" width="140" height="30" as="geometry" />
        </mxCell>
        <mxCell id="ZQSnCNjEJaoJJcT3hJNP-21" value="label" style="text;strokeColor=none;fillColor=none;align=left;verticalAlign=middle;spacingLeft=4;spacingRight=4;overflow=hidden;points=[[0,0.5],[1,0.5]];portConstraint=eastwest;rotatable=0;whiteSpace=wrap;html=1;" vertex="1" parent="ZQSnCNjEJaoJJcT3hJNP-19">
          <mxGeometry y="60" width="140" height="30" as="geometry" />
        </mxCell>
        <mxCell id="ZQSnCNjEJaoJJcT3hJNP-22" value="Profil" style="swimlane;fontStyle=0;childLayout=stackLayout;horizontal=1;startSize=30;horizontalStack=0;resizeParent=1;resizeParentMax=0;resizeLast=0;collapsible=1;marginBottom=0;whiteSpace=wrap;html=1;" vertex="1" parent="1">
          <mxGeometry x="-310" y="210" width="140" height="120" as="geometry" />
        </mxCell>
        <mxCell id="ZQSnCNjEJaoJJcT3hJNP-23" value="id" style="text;strokeColor=none;fillColor=none;align=left;verticalAlign=middle;spacingLeft=4;spacingRight=4;overflow=hidden;points=[[0,0.5],[1,0.5]];portConstraint=eastwest;rotatable=0;whiteSpace=wrap;html=1;" vertex="1" parent="ZQSnCNjEJaoJJcT3hJNP-22">
          <mxGeometry y="30" width="140" height="30" as="geometry" />
        </mxCell>
        <mxCell id="ZQSnCNjEJaoJJcT3hJNP-24" value="filiere" style="text;strokeColor=none;fillColor=none;align=left;verticalAlign=middle;spacingLeft=4;spacingRight=4;overflow=hidden;points=[[0,0.5],[1,0.5]];portConstraint=eastwest;rotatable=0;whiteSpace=wrap;html=1;" vertex="1" parent="ZQSnCNjEJaoJJcT3hJNP-22">
          <mxGeometry y="60" width="140" height="30" as="geometry" />
        </mxCell>
        <mxCell id="ZQSnCNjEJaoJJcT3hJNP-25" value="bio" style="text;strokeColor=none;fillColor=none;align=left;verticalAlign=middle;spacingLeft=4;spacingRight=4;overflow=hidden;points=[[0,0.5],[1,0.5]];portConstraint=eastwest;rotatable=0;whiteSpace=wrap;html=1;" vertex="1" parent="ZQSnCNjEJaoJJcT3hJNP-22">
          <mxGeometry y="90" width="140" height="30" as="geometry" />
        </mxCell>
        <mxCell id="ZQSnCNjEJaoJJcT3hJNP-26" value="Message" style="swimlane;fontStyle=0;childLayout=stackLayout;horizontal=1;startSize=30;horizontalStack=0;resizeParent=1;resizeParentMax=0;resizeLast=0;collapsible=1;marginBottom=0;whiteSpace=wrap;html=1;" vertex="1" parent="1">
          <mxGeometry x="520" y="640" width="140" height="120" as="geometry" />
        </mxCell>
        <mxCell id="ZQSnCNjEJaoJJcT3hJNP-27" value="id" style="text;strokeColor=none;fillColor=none;align=left;verticalAlign=middle;spacingLeft=4;spacingRight=4;overflow=hidden;points=[[0,0.5],[1,0.5]];portConstraint=eastwest;rotatable=0;whiteSpace=wrap;html=1;" vertex="1" parent="ZQSnCNjEJaoJJcT3hJNP-26">
          <mxGeometry y="30" width="140" height="30" as="geometry" />
        </mxCell>
        <mxCell id="ZQSnCNjEJaoJJcT3hJNP-28" value="text" style="text;strokeColor=none;fillColor=none;align=left;verticalAlign=middle;spacingLeft=4;spacingRight=4;overflow=hidden;points=[[0,0.5],[1,0.5]];portConstraint=eastwest;rotatable=0;whiteSpace=wrap;html=1;" vertex="1" parent="ZQSnCNjEJaoJJcT3hJNP-26">
          <mxGeometry y="60" width="140" height="30" as="geometry" />
        </mxCell>
        <mxCell id="ZQSnCNjEJaoJJcT3hJNP-29" value="created_at" style="text;strokeColor=none;fillColor=none;align=left;verticalAlign=middle;spacingLeft=4;spacingRight=4;overflow=hidden;points=[[0,0.5],[1,0.5]];portConstraint=eastwest;rotatable=0;whiteSpace=wrap;html=1;" vertex="1" parent="ZQSnCNjEJaoJJcT3hJNP-26">
          <mxGeometry y="90" width="140" height="30" as="geometry" />
        </mxCell>
        <mxCell id="ZQSnCNjEJaoJJcT3hJNP-30" value="Project" style="swimlane;fontStyle=0;childLayout=stackLayout;horizontal=1;startSize=30;horizontalStack=0;resizeParent=1;resizeParentMax=0;resizeLast=0;collapsible=1;marginBottom=0;whiteSpace=wrap;html=1;" vertex="1" parent="1">
          <mxGeometry x="100" y="650" width="140" height="120" as="geometry" />
        </mxCell>
        <mxCell id="ZQSnCNjEJaoJJcT3hJNP-31" value="id" style="text;strokeColor=none;fillColor=none;align=left;verticalAlign=middle;spacingLeft=4;spacingRight=4;overflow=hidden;points=[[0,0.5],[1,0.5]];portConstraint=eastwest;rotatable=0;whiteSpace=wrap;html=1;" vertex="1" parent="ZQSnCNjEJaoJJcT3hJNP-30">
          <mxGeometry y="30" width="140" height="30" as="geometry" />
        </mxCell>
        <mxCell id="ZQSnCNjEJaoJJcT3hJNP-32" value="ouvert" style="text;strokeColor=none;fillColor=none;align=left;verticalAlign=middle;spacingLeft=4;spacingRight=4;overflow=hidden;points=[[0,0.5],[1,0.5]];portConstraint=eastwest;rotatable=0;whiteSpace=wrap;html=1;" vertex="1" parent="ZQSnCNjEJaoJJcT3hJNP-30">
          <mxGeometry y="60" width="140" height="30" as="geometry" />
        </mxCell>
        <mxCell id="ZQSnCNjEJaoJJcT3hJNP-33" value="termine" style="text;strokeColor=none;fillColor=none;align=left;verticalAlign=middle;spacingLeft=4;spacingRight=4;overflow=hidden;points=[[0,0.5],[1,0.5]];portConstraint=eastwest;rotatable=0;whiteSpace=wrap;html=1;" vertex="1" parent="ZQSnCNjEJaoJJcT3hJNP-30">
          <mxGeometry y="90" width="140" height="30" as="geometry" />
        </mxCell>
        <mxCell id="ZQSnCNjEJaoJJcT3hJNP-34" value="Users" style="swimlane;fontStyle=0;childLayout=stackLayout;horizontal=1;startSize=30;horizontalStack=0;resizeParent=1;resizeParentMax=0;resizeLast=0;collapsible=1;marginBottom=0;whiteSpace=wrap;html=1;" vertex="1" parent="1">
          <mxGeometry x="-720" y="350" width="140" height="210" as="geometry" />
        </mxCell>
        <mxCell id="ZQSnCNjEJaoJJcT3hJNP-35" value="id" style="text;strokeColor=none;fillColor=none;align=left;verticalAlign=middle;spacingLeft=4;spacingRight=4;overflow=hidden;points=[[0,0.5],[1,0.5]];portConstraint=eastwest;rotatable=0;whiteSpace=wrap;html=1;" vertex="1" parent="ZQSnCNjEJaoJJcT3hJNP-34">
          <mxGeometry y="30" width="140" height="30" as="geometry" />
        </mxCell>
        <mxCell id="ZQSnCNjEJaoJJcT3hJNP-36" value="email" style="text;strokeColor=none;fillColor=none;align=left;verticalAlign=middle;spacingLeft=4;spacingRight=4;overflow=hidden;points=[[0,0.5],[1,0.5]];portConstraint=eastwest;rotatable=0;whiteSpace=wrap;html=1;" vertex="1" parent="ZQSnCNjEJaoJJcT3hJNP-34">
          <mxGeometry y="60" width="140" height="30" as="geometry" />
        </mxCell>
        <mxCell id="ZQSnCNjEJaoJJcT3hJNP-37" value="password" style="text;strokeColor=none;fillColor=none;align=left;verticalAlign=middle;spacingLeft=4;spacingRight=4;overflow=hidden;points=[[0,0.5],[1,0.5]];portConstraint=eastwest;rotatable=0;whiteSpace=wrap;html=1;" vertex="1" parent="ZQSnCNjEJaoJJcT3hJNP-34">
          <mxGeometry y="90" width="140" height="30" as="geometry" />
        </mxCell>
        <mxCell id="ZQSnCNjEJaoJJcT3hJNP-38" value="type" style="text;strokeColor=none;fillColor=none;align=left;verticalAlign=middle;spacingLeft=4;spacingRight=4;overflow=hidden;points=[[0,0.5],[1,0.5]];portConstraint=eastwest;rotatable=0;whiteSpace=wrap;html=1;" vertex="1" parent="ZQSnCNjEJaoJJcT3hJNP-34">
          <mxGeometry y="120" width="140" height="30" as="geometry" />
        </mxCell>
        <mxCell id="ZQSnCNjEJaoJJcT3hJNP-39" value="nom" style="text;strokeColor=none;fillColor=none;align=left;verticalAlign=middle;spacingLeft=4;spacingRight=4;overflow=hidden;points=[[0,0.5],[1,0.5]];portConstraint=eastwest;rotatable=0;whiteSpace=wrap;html=1;" vertex="1" parent="ZQSnCNjEJaoJJcT3hJNP-34">
          <mxGeometry y="150" width="140" height="30" as="geometry" />
        </mxCell>
        <mxCell id="ZQSnCNjEJaoJJcT3hJNP-40" value="prenom" style="text;strokeColor=none;fillColor=none;align=left;verticalAlign=middle;spacingLeft=4;spacingRight=4;overflow=hidden;points=[[0,0.5],[1,0.5]];portConstraint=eastwest;rotatable=0;whiteSpace=wrap;html=1;" vertex="1" parent="ZQSnCNjEJaoJJcT3hJNP-34">
          <mxGeometry y="180" width="140" height="30" as="geometry" />
        </mxCell>
        <mxCell id="ZQSnCNjEJaoJJcT3hJNP-41" value="possède" style="ellipse;whiteSpace=wrap;html=1;" vertex="1" parent="1">
          <mxGeometry x="-506" y="200" width="120" height="60" as="geometry" />
        </mxCell>
        <mxCell id="ZQSnCNjEJaoJJcT3hJNP-42" style="edgeStyle=orthogonalEdgeStyle;rounded=0;orthogonalLoop=1;jettySize=auto;html=1;entryX=0;entryY=0.5;entryDx=0;entryDy=0;endArrow=none;endFill=0;" edge="1" parent="1" target="ZQSnCNjEJaoJJcT3hJNP-41">
          <mxGeometry relative="1" as="geometry">
            <mxPoint x="-580" y="359" as="sourcePoint" />
            <mxPoint x="-469" y="275" as="targetPoint" />
          </mxGeometry>
        </mxCell>
        <mxCell id="ZQSnCNjEJaoJJcT3hJNP-43" style="edgeStyle=orthogonalEdgeStyle;rounded=0;orthogonalLoop=1;jettySize=auto;html=1;exitX=1;exitY=0.5;exitDx=0;exitDy=0;entryX=0.003;entryY=0.159;entryDx=0;entryDy=0;entryPerimeter=0;endArrow=none;endFill=0;" edge="1" parent="1" source="ZQSnCNjEJaoJJcT3hJNP-41" target="ZQSnCNjEJaoJJcT3hJNP-22">
          <mxGeometry relative="1" as="geometry" />
        </mxCell>
        <mxCell id="ZQSnCNjEJaoJJcT3hJNP-44" value="1 0" style="text;html=1;align=center;verticalAlign=middle;whiteSpace=wrap;rounded=0;" vertex="1" parent="1">
          <mxGeometry x="-560" y="200" width="60" height="30" as="geometry" />
        </mxCell>
        <mxCell id="ZQSnCNjEJaoJJcT3hJNP-45" value="1 1" style="text;html=1;align=center;verticalAlign=middle;whiteSpace=wrap;rounded=0;" vertex="1" parent="1">
          <mxGeometry x="-370" y="200" width="60" height="30" as="geometry" />
        </mxCell>
        <mxCell id="ZQSnCNjEJaoJJcT3hJNP-46" value="possède" style="ellipse;whiteSpace=wrap;html=1;" vertex="1" parent="1">
          <mxGeometry x="-70" y="80" width="120" height="60" as="geometry" />
        </mxCell>
        <mxCell id="ZQSnCNjEJaoJJcT3hJNP-47" value="0 N" style="text;html=1;align=center;verticalAlign=middle;whiteSpace=wrap;rounded=0;" vertex="1" parent="1">
          <mxGeometry x="-130" y="90" width="60" height="30" as="geometry" />
        </mxCell>
        <mxCell id="ZQSnCNjEJaoJJcT3hJNP-48" value="0 N" style="text;html=1;align=center;verticalAlign=middle;whiteSpace=wrap;rounded=0;" vertex="1" parent="1">
          <mxGeometry x="60" y="80" width="60" height="30" as="geometry" />
        </mxCell>
        <mxCell id="ZQSnCNjEJaoJJcT3hJNP-49" style="edgeStyle=orthogonalEdgeStyle;rounded=0;orthogonalLoop=1;jettySize=auto;html=1;entryX=-0.003;entryY=0.11;entryDx=0;entryDy=0;entryPerimeter=0;endArrow=none;endFill=0;" edge="1" parent="1" source="ZQSnCNjEJaoJJcT3hJNP-46" target="ZQSnCNjEJaoJJcT3hJNP-19">
          <mxGeometry relative="1" as="geometry" />
        </mxCell>
        <mxCell id="ZQSnCNjEJaoJJcT3hJNP-50" value="crée" style="ellipse;whiteSpace=wrap;html=1;" vertex="1" parent="1">
          <mxGeometry x="-516" y="460" width="120" height="60" as="geometry" />
        </mxCell>
        <mxCell id="ZQSnCNjEJaoJJcT3hJNP-51" style="edgeStyle=orthogonalEdgeStyle;rounded=0;orthogonalLoop=1;jettySize=auto;html=1;entryX=0;entryY=0.5;entryDx=0;entryDy=0;endArrow=none;endFill=0;" edge="1" parent="1" target="ZQSnCNjEJaoJJcT3hJNP-50">
          <mxGeometry relative="1" as="geometry">
            <mxPoint x="-580" y="490" as="sourcePoint" />
            <mxPoint x="-479" y="535" as="targetPoint" />
            <Array as="points">
              <mxPoint x="-580" y="370" />
              <mxPoint x="-530" y="370" />
              <mxPoint x="-530" y="490" />
            </Array>
          </mxGeometry>
        </mxCell>
        <mxCell id="ZQSnCNjEJaoJJcT3hJNP-52" style="edgeStyle=orthogonalEdgeStyle;rounded=0;orthogonalLoop=1;jettySize=auto;html=1;exitX=1;exitY=0.5;exitDx=0;exitDy=0;entryX=0.003;entryY=0.159;entryDx=0;entryDy=0;entryPerimeter=0;endArrow=none;endFill=0;" edge="1" parent="1" source="ZQSnCNjEJaoJJcT3hJNP-50">
          <mxGeometry relative="1" as="geometry">
            <mxPoint x="-320" y="489" as="targetPoint" />
          </mxGeometry>
        </mxCell>
        <mxCell id="ZQSnCNjEJaoJJcT3hJNP-53" value="1 N" style="text;html=1;align=center;verticalAlign=middle;whiteSpace=wrap;rounded=0;" vertex="1" parent="1">
          <mxGeometry x="-540" y="440" width="60" height="30" as="geometry" />
        </mxCell>
        <mxCell id="ZQSnCNjEJaoJJcT3hJNP-54" value="1 1" style="text;html=1;align=center;verticalAlign=middle;whiteSpace=wrap;rounded=0;" vertex="1" parent="1">
          <mxGeometry x="-380" y="460" width="60" height="30" as="geometry" />
        </mxCell>
        <mxCell id="ZQSnCNjEJaoJJcT3hJNP-55" value="inclut" style="ellipse;whiteSpace=wrap;html=1;" vertex="1" parent="1">
          <mxGeometry x="-70" y="430" width="120" height="60" as="geometry" />
        </mxCell>
        <mxCell id="ZQSnCNjEJaoJJcT3hJNP-56" style="edgeStyle=orthogonalEdgeStyle;rounded=0;orthogonalLoop=1;jettySize=auto;html=1;entryX=0;entryY=0.5;entryDx=0;entryDy=0;endArrow=none;endFill=0;exitX=1.004;exitY=0.044;exitDx=0;exitDy=0;exitPerimeter=0;" edge="1" parent="1" source="ZQSnCNjEJaoJJcT3hJNP-12" target="ZQSnCNjEJaoJJcT3hJNP-55">
          <mxGeometry relative="1" as="geometry">
            <mxPoint x="-160" y="460" as="sourcePoint" />
            <mxPoint x="-59" y="505" as="targetPoint" />
          </mxGeometry>
        </mxCell>
        <mxCell id="ZQSnCNjEJaoJJcT3hJNP-57" value="1 N" style="text;html=1;align=center;verticalAlign=middle;whiteSpace=wrap;rounded=0;" vertex="1" parent="1">
          <mxGeometry x="-180" y="460" width="60" height="30" as="geometry" />
        </mxCell>
        <mxCell id="ZQSnCNjEJaoJJcT3hJNP-58" value="1 1" style="text;html=1;align=center;verticalAlign=middle;whiteSpace=wrap;rounded=0;" vertex="1" parent="1">
          <mxGeometry x="60" y="430" width="60" height="30" as="geometry" />
        </mxCell>
        <mxCell id="ZQSnCNjEJaoJJcT3hJNP-59" style="edgeStyle=orthogonalEdgeStyle;rounded=0;orthogonalLoop=1;jettySize=auto;html=1;entryX=-0.003;entryY=0.11;entryDx=0;entryDy=0;entryPerimeter=0;endArrow=none;endFill=0;" edge="1" parent="1" source="ZQSnCNjEJaoJJcT3hJNP-55">
          <mxGeometry relative="1" as="geometry">
            <mxPoint x="120" y="460" as="targetPoint" />
          </mxGeometry>
        </mxCell>
        <mxCell id="ZQSnCNjEJaoJJcT3hJNP-60" value="concerne" style="ellipse;whiteSpace=wrap;html=1;" vertex="1" parent="1">
          <mxGeometry x="-100" y="600" width="120" height="60" as="geometry" />
        </mxCell>
        <mxCell id="ZQSnCNjEJaoJJcT3hJNP-61" style="edgeStyle=orthogonalEdgeStyle;rounded=0;orthogonalLoop=1;jettySize=auto;html=1;entryX=0;entryY=0;entryDx=0;entryDy=0;endArrow=none;endFill=0;" edge="1" parent="1">
          <mxGeometry relative="1" as="geometry">
            <mxPoint x="19.999999655366082" y="634.0032154340836" as="sourcePoint" />
            <mxPoint x="100" y="654" as="targetPoint" />
            <Array as="points">
              <mxPoint x="60" y="634" />
              <mxPoint x="60" y="654" />
            </Array>
          </mxGeometry>
        </mxCell>
        <mxCell id="ZQSnCNjEJaoJJcT3hJNP-62" style="edgeStyle=orthogonalEdgeStyle;rounded=0;orthogonalLoop=1;jettySize=auto;html=1;entryX=0;entryY=0.5;entryDx=0;entryDy=0;endArrow=none;endFill=0;" edge="1" parent="1" target="ZQSnCNjEJaoJJcT3hJNP-60">
          <mxGeometry relative="1" as="geometry">
            <mxPoint x="-180" y="500" as="sourcePoint" />
            <mxPoint x="-90" y="500" as="targetPoint" />
            <Array as="points">
              <mxPoint x="-180" y="501" />
              <mxPoint x="-120" y="501" />
              <mxPoint x="-120" y="630" />
            </Array>
          </mxGeometry>
        </mxCell>
        <mxCell id="ZQSnCNjEJaoJJcT3hJNP-63" value="1 1" style="text;html=1;align=center;verticalAlign=middle;whiteSpace=wrap;rounded=0;" vertex="1" parent="1">
          <mxGeometry x="10" y="610" width="60" height="30" as="geometry" />
        </mxCell>
        <mxCell id="ZQSnCNjEJaoJJcT3hJNP-64" value="contribue&amp;nbsp;" style="ellipse;whiteSpace=wrap;html=1;" vertex="1" parent="1">
          <mxGeometry x="-100" y="750" width="120" height="60" as="geometry" />
        </mxCell>
        <mxCell id="ZQSnCNjEJaoJJcT3hJNP-65" style="edgeStyle=orthogonalEdgeStyle;rounded=0;orthogonalLoop=1;jettySize=auto;html=1;entryX=0;entryY=0.13;entryDx=0;entryDy=0;entryPerimeter=0;endArrow=none;endFill=0;" edge="1" parent="1" source="ZQSnCNjEJaoJJcT3hJNP-64" target="ZQSnCNjEJaoJJcT3hJNP-30">
          <mxGeometry relative="1" as="geometry" />
        </mxCell>
        <mxCell id="ZQSnCNjEJaoJJcT3hJNP-66" value="" style="endArrow=none;html=1;rounded=0;entryX=0;entryY=0.5;entryDx=0;entryDy=0;" edge="1" parent="1" target="ZQSnCNjEJaoJJcT3hJNP-64">
          <mxGeometry width="50" height="50" relative="1" as="geometry">
            <mxPoint x="-580" y="380" as="sourcePoint" />
            <mxPoint x="-550" y="1170" as="targetPoint" />
            <Array as="points">
              <mxPoint x="-550" y="390" />
              <mxPoint x="-550" y="780" />
            </Array>
          </mxGeometry>
        </mxCell>
        <mxCell id="ZQSnCNjEJaoJJcT3hJNP-67" value="0 N" style="text;html=1;align=center;verticalAlign=middle;whiteSpace=wrap;rounded=0;" vertex="1" parent="1">
          <mxGeometry x="-160" y="750" width="60" height="30" as="geometry" />
        </mxCell>
        <mxCell id="ZQSnCNjEJaoJJcT3hJNP-68" value="0 N" style="text;html=1;align=center;verticalAlign=middle;whiteSpace=wrap;rounded=0;" vertex="1" parent="1">
          <mxGeometry x="10" y="750" width="60" height="30" as="geometry" />
        </mxCell>
        <mxCell id="ZQSnCNjEJaoJJcT3hJNP-69" value="contient" style="ellipse;whiteSpace=wrap;html=1;" vertex="1" parent="1">
          <mxGeometry x="330" y="629" width="120" height="60" as="geometry" />
        </mxCell>
        <mxCell id="ZQSnCNjEJaoJJcT3hJNP-70" style="edgeStyle=orthogonalEdgeStyle;rounded=0;orthogonalLoop=1;jettySize=auto;html=1;entryX=0;entryY=0.5;entryDx=0;entryDy=0;endArrow=none;endFill=0;" edge="1" parent="1" target="ZQSnCNjEJaoJJcT3hJNP-69">
          <mxGeometry relative="1" as="geometry">
            <mxPoint x="240" y="659" as="sourcePoint" />
            <mxPoint x="341" y="704" as="targetPoint" />
          </mxGeometry>
        </mxCell>
        <mxCell id="ZQSnCNjEJaoJJcT3hJNP-71" value="1 N" style="text;html=1;align=center;verticalAlign=middle;whiteSpace=wrap;rounded=0;" vertex="1" parent="1">
          <mxGeometry x="240" y="629" width="60" height="30" as="geometry" />
        </mxCell>
        <mxCell id="ZQSnCNjEJaoJJcT3hJNP-72" value="1 1" style="text;html=1;align=center;verticalAlign=middle;whiteSpace=wrap;rounded=0;" vertex="1" parent="1">
          <mxGeometry x="460" y="629" width="60" height="30" as="geometry" />
        </mxCell>
        <mxCell id="ZQSnCNjEJaoJJcT3hJNP-73" style="edgeStyle=orthogonalEdgeStyle;rounded=0;orthogonalLoop=1;jettySize=auto;html=1;entryX=-0.003;entryY=0.11;entryDx=0;entryDy=0;entryPerimeter=0;endArrow=none;endFill=0;" edge="1" parent="1" source="ZQSnCNjEJaoJJcT3hJNP-69">
          <mxGeometry relative="1" as="geometry">
            <mxPoint x="520" y="659" as="targetPoint" />
          </mxGeometry>
        </mxCell>
        <mxCell id="ZQSnCNjEJaoJJcT3hJNP-74" value="référence" style="ellipse;whiteSpace=wrap;html=1;" vertex="1" parent="1">
          <mxGeometry x="-80" y="205" width="120" height="60" as="geometry" />
        </mxCell>
        <mxCell id="ZQSnCNjEJaoJJcT3hJNP-75" style="edgeStyle=orthogonalEdgeStyle;rounded=0;orthogonalLoop=1;jettySize=auto;html=1;entryX=0;entryY=0.5;entryDx=0;entryDy=0;endArrow=none;endFill=0;" edge="1" parent="1">
          <mxGeometry relative="1" as="geometry">
            <mxPoint x="-170" y="234.69000000000005" as="sourcePoint" />
            <mxPoint x="-80" y="234.69000000000005" as="targetPoint" />
          </mxGeometry>
        </mxCell>
        <mxCell id="ZQSnCNjEJaoJJcT3hJNP-76" value="1 N" style="text;html=1;align=center;verticalAlign=middle;whiteSpace=wrap;rounded=0;" vertex="1" parent="1">
          <mxGeometry x="-130" y="205" width="60" height="30" as="geometry" />
        </mxCell>
        <mxCell id="ZQSnCNjEJaoJJcT3hJNP-77" value="1 1" style="text;html=1;align=center;verticalAlign=middle;whiteSpace=wrap;rounded=0;" vertex="1" parent="1">
          <mxGeometry x="60" y="205" width="60" height="30" as="geometry" />
        </mxCell>
        <mxCell id="ZQSnCNjEJaoJJcT3hJNP-78" value="" style="endArrow=none;html=1;rounded=0;entryX=0;entryY=0.5;entryDx=0;entryDy=0;" edge="1" parent="1" target="ZQSnCNjEJaoJJcT3hJNP-46">
          <mxGeometry width="50" height="50" relative="1" as="geometry">
            <mxPoint x="-170" y="220" as="sourcePoint" />
            <mxPoint x="-120" y="170" as="targetPoint" />
          </mxGeometry>
        </mxCell>
        <mxCell id="ZQSnCNjEJaoJJcT3hJNP-79" style="edgeStyle=orthogonalEdgeStyle;rounded=0;orthogonalLoop=1;jettySize=auto;html=1;entryX=0.004;entryY=0.21;entryDx=0;entryDy=0;entryPerimeter=0;endArrow=none;endFill=0;" edge="1" parent="1" source="ZQSnCNjEJaoJJcT3hJNP-74" target="ZQSnCNjEJaoJJcT3hJNP-4">
          <mxGeometry relative="1" as="geometry" />
        </mxCell>
        <mxCell id="ZQSnCNjEJaoJJcT3hJNP-80" value="0 1" style="text;html=1;align=center;verticalAlign=middle;whiteSpace=wrap;rounded=0;" vertex="1" parent="1">
          <mxGeometry x="-180" y="510" width="60" height="30" as="geometry" />
        </mxCell>
        <mxCell id="ZQSnCNjEJaoJJcT3hJNP-81" value="est de type" style="ellipse;whiteSpace=wrap;html=1;" vertex="1" parent="1">
          <mxGeometry x="340" y="200" width="120" height="60" as="geometry" />
        </mxCell>
        <mxCell id="ZQSnCNjEJaoJJcT3hJNP-82" style="edgeStyle=orthogonalEdgeStyle;rounded=0;orthogonalLoop=1;jettySize=auto;html=1;entryX=0;entryY=0.5;entryDx=0;entryDy=0;endArrow=none;endFill=0;" edge="1" parent="1" target="ZQSnCNjEJaoJJcT3hJNP-81">
          <mxGeometry relative="1" as="geometry">
            <mxPoint x="250" y="230" as="sourcePoint" />
            <mxPoint x="351" y="275" as="targetPoint" />
          </mxGeometry>
        </mxCell>
        <mxCell id="ZQSnCNjEJaoJJcT3hJNP-83" value="1 1" style="text;html=1;align=center;verticalAlign=middle;whiteSpace=wrap;rounded=0;" vertex="1" parent="1">
          <mxGeometry x="250" y="200" width="60" height="30" as="geometry" />
        </mxCell>
        <mxCell id="ZQSnCNjEJaoJJcT3hJNP-84" value="1 N" style="text;html=1;align=center;verticalAlign=middle;whiteSpace=wrap;rounded=0;" vertex="1" parent="1">
          <mxGeometry x="470" y="200" width="60" height="30" as="geometry" />
        </mxCell>
        <mxCell id="ZQSnCNjEJaoJJcT3hJNP-85" style="edgeStyle=orthogonalEdgeStyle;rounded=0;orthogonalLoop=1;jettySize=auto;html=1;entryX=-0.003;entryY=0.11;entryDx=0;entryDy=0;entryPerimeter=0;endArrow=none;endFill=0;" edge="1" parent="1" source="ZQSnCNjEJaoJJcT3hJNP-81">
          <mxGeometry relative="1" as="geometry">
            <mxPoint x="530" y="230" as="targetPoint" />
          </mxGeometry>
        </mxCell>
        <mxCell id="ZQSnCNjEJaoJJcT3hJNP-107" style="edgeStyle=none;curved=1;rounded=0;orthogonalLoop=1;jettySize=auto;html=1;entryX=0.5;entryY=1;entryDx=0;entryDy=0;fontSize=12;startSize=8;endSize=8;" edge="1" parent="1" source="ZQSnCNjEJaoJJcT3hJNP-86" target="ZQSnCNjEJaoJJcT3hJNP-103">
          <mxGeometry relative="1" as="geometry" />
        </mxCell>
        <mxCell id="ZQSnCNjEJaoJJcT3hJNP-86" value="Users" style="swimlane;fontStyle=0;childLayout=stackLayout;horizontal=1;startSize=30;horizontalStack=0;resizeParent=1;resizeParentMax=0;resizeLast=0;collapsible=1;marginBottom=0;whiteSpace=wrap;html=1;" vertex="1" parent="1">
          <mxGeometry x="-870" y="1380" width="140" height="240" as="geometry" />
        </mxCell>
        <mxCell id="ZQSnCNjEJaoJJcT3hJNP-87" value="id" style="text;strokeColor=none;fillColor=none;align=left;verticalAlign=middle;spacingLeft=4;spacingRight=4;overflow=hidden;points=[[0,0.5],[1,0.5]];portConstraint=eastwest;rotatable=0;whiteSpace=wrap;html=1;" vertex="1" parent="ZQSnCNjEJaoJJcT3hJNP-86">
          <mxGeometry y="30" width="140" height="30" as="geometry" />
        </mxCell>
        <mxCell id="ZQSnCNjEJaoJJcT3hJNP-88" value="email" style="text;strokeColor=none;fillColor=none;align=left;verticalAlign=middle;spacingLeft=4;spacingRight=4;overflow=hidden;points=[[0,0.5],[1,0.5]];portConstraint=eastwest;rotatable=0;whiteSpace=wrap;html=1;" vertex="1" parent="ZQSnCNjEJaoJJcT3hJNP-86">
          <mxGeometry y="60" width="140" height="30" as="geometry" />
        </mxCell>
        <mxCell id="ZQSnCNjEJaoJJcT3hJNP-89" value="password" style="text;strokeColor=none;fillColor=none;align=left;verticalAlign=middle;spacingLeft=4;spacingRight=4;overflow=hidden;points=[[0,0.5],[1,0.5]];portConstraint=eastwest;rotatable=0;whiteSpace=wrap;html=1;" vertex="1" parent="ZQSnCNjEJaoJJcT3hJNP-86">
          <mxGeometry y="90" width="140" height="30" as="geometry" />
        </mxCell>
        <mxCell id="ZQSnCNjEJaoJJcT3hJNP-90" value="roles" style="text;strokeColor=none;fillColor=none;align=left;verticalAlign=middle;spacingLeft=4;spacingRight=4;overflow=hidden;points=[[0,0.5],[1,0.5]];portConstraint=eastwest;rotatable=0;whiteSpace=wrap;html=1;" vertex="1" parent="ZQSnCNjEJaoJJcT3hJNP-86">
          <mxGeometry y="120" width="140" height="30" as="geometry" />
        </mxCell>
        <mxCell id="ZQSnCNjEJaoJJcT3hJNP-91" value="nom" style="text;strokeColor=none;fillColor=none;align=left;verticalAlign=middle;spacingLeft=4;spacingRight=4;overflow=hidden;points=[[0,0.5],[1,0.5]];portConstraint=eastwest;rotatable=0;whiteSpace=wrap;html=1;" vertex="1" parent="ZQSnCNjEJaoJJcT3hJNP-86">
          <mxGeometry y="150" width="140" height="30" as="geometry" />
        </mxCell>
        <mxCell id="ZQSnCNjEJaoJJcT3hJNP-92" value="prenom" style="text;strokeColor=none;fillColor=none;align=left;verticalAlign=middle;spacingLeft=4;spacingRight=4;overflow=hidden;points=[[0,0.5],[1,0.5]];portConstraint=eastwest;rotatable=0;whiteSpace=wrap;html=1;" vertex="1" parent="ZQSnCNjEJaoJJcT3hJNP-86">
          <mxGeometry y="180" width="140" height="30" as="geometry" />
        </mxCell>
        <mxCell id="ZQSnCNjEJaoJJcT3hJNP-100" value="filiere_id&amp;nbsp;" style="text;strokeColor=none;fillColor=none;align=left;verticalAlign=middle;spacingLeft=4;spacingRight=4;overflow=hidden;points=[[0,0.5],[1,0.5]];portConstraint=eastwest;rotatable=0;whiteSpace=wrap;html=1;" vertex="1" parent="ZQSnCNjEJaoJJcT3hJNP-86">
          <mxGeometry y="210" width="140" height="30" as="geometry" />
        </mxCell>
        <mxCell id="ZQSnCNjEJaoJJcT3hJNP-94" value="filiere" style="swimlane;fontStyle=0;childLayout=stackLayout;horizontal=1;startSize=30;horizontalStack=0;resizeParent=1;resizeParentMax=0;resizeLast=0;collapsible=1;marginBottom=0;whiteSpace=wrap;html=1;" vertex="1" parent="1">
          <mxGeometry x="-634" y="1410" width="140" height="90" as="geometry" />
        </mxCell>
        <mxCell id="ZQSnCNjEJaoJJcT3hJNP-95" value="id&amp;nbsp;" style="text;strokeColor=none;fillColor=none;align=left;verticalAlign=middle;spacingLeft=4;spacingRight=4;overflow=hidden;points=[[0,0.5],[1,0.5]];portConstraint=eastwest;rotatable=0;whiteSpace=wrap;html=1;" vertex="1" parent="ZQSnCNjEJaoJJcT3hJNP-94">
          <mxGeometry y="30" width="140" height="30" as="geometry" />
        </mxCell>
        <mxCell id="ZQSnCNjEJaoJJcT3hJNP-97" value="label DEV WEB" style="text;strokeColor=none;fillColor=none;align=left;verticalAlign=middle;spacingLeft=4;spacingRight=4;overflow=hidden;points=[[0,0.5],[1,0.5]];portConstraint=eastwest;rotatable=0;whiteSpace=wrap;html=1;" vertex="1" parent="ZQSnCNjEJaoJJcT3hJNP-94">
          <mxGeometry y="60" width="140" height="30" as="geometry" />
        </mxCell>
        <mxCell id="ZQSnCNjEJaoJJcT3hJNP-99" value="Filieres :&lt;div&gt;dev web&lt;/div&gt;&lt;div&gt;ccv2&lt;/div&gt;&lt;div&gt;son&lt;/div&gt;&lt;div&gt;audio&lt;/div&gt;" style="text;html=1;align=center;verticalAlign=middle;whiteSpace=wrap;rounded=0;fontSize=16;" vertex="1" parent="1">
          <mxGeometry x="-470" y="1380" width="180" height="130" as="geometry" />
        </mxCell>
        <mxCell id="ZQSnCNjEJaoJJcT3hJNP-102" style="edgeStyle=none;curved=1;rounded=0;orthogonalLoop=1;jettySize=auto;html=1;entryX=0;entryY=0.5;entryDx=0;entryDy=0;fontSize=12;startSize=8;endSize=8;exitX=1;exitY=0.5;exitDx=0;exitDy=0;" edge="1" parent="1" source="ZQSnCNjEJaoJJcT3hJNP-88" target="ZQSnCNjEJaoJJcT3hJNP-95">
          <mxGeometry relative="1" as="geometry" />
        </mxCell>
        <mxCell id="ZQSnCNjEJaoJJcT3hJNP-103" value="Contact" style="swimlane;fontStyle=0;childLayout=stackLayout;horizontal=1;startSize=30;horizontalStack=0;resizeParent=1;resizeParentMax=0;resizeLast=0;collapsible=1;marginBottom=0;whiteSpace=wrap;html=1;" vertex="1" parent="1">
          <mxGeometry x="-870" y="1110" width="140" height="150" as="geometry" />
        </mxCell>
        <mxCell id="ZQSnCNjEJaoJJcT3hJNP-104" value="id" style="text;strokeColor=none;fillColor=none;align=left;verticalAlign=middle;spacingLeft=4;spacingRight=4;overflow=hidden;points=[[0,0.5],[1,0.5]];portConstraint=eastwest;rotatable=0;whiteSpace=wrap;html=1;" vertex="1" parent="ZQSnCNjEJaoJJcT3hJNP-103">
          <mxGeometry y="30" width="140" height="30" as="geometry" />
        </mxCell>
        <mxCell id="ZQSnCNjEJaoJJcT3hJNP-105" value="type_id&amp;nbsp;" style="text;strokeColor=none;fillColor=none;align=left;verticalAlign=middle;spacingLeft=4;spacingRight=4;overflow=hidden;points=[[0,0.5],[1,0.5]];portConstraint=eastwest;rotatable=0;whiteSpace=wrap;html=1;" vertex="1" parent="ZQSnCNjEJaoJJcT3hJNP-103">
          <mxGeometry y="60" width="140" height="30" as="geometry" />
        </mxCell>
        <mxCell id="ZQSnCNjEJaoJJcT3hJNP-119" value="user_id&amp;nbsp;" style="text;strokeColor=none;fillColor=none;align=left;verticalAlign=middle;spacingLeft=4;spacingRight=4;overflow=hidden;points=[[0,0.5],[1,0.5]];portConstraint=eastwest;rotatable=0;whiteSpace=wrap;html=1;" vertex="1" parent="ZQSnCNjEJaoJJcT3hJNP-103">
          <mxGeometry y="90" width="140" height="30" as="geometry" />
        </mxCell>
        <mxCell id="ZQSnCNjEJaoJJcT3hJNP-106" value="valeur https://ww.yt.com" style="text;strokeColor=none;fillColor=none;align=left;verticalAlign=middle;spacingLeft=4;spacingRight=4;overflow=hidden;points=[[0,0.5],[1,0.5]];portConstraint=eastwest;rotatable=0;whiteSpace=wrap;html=1;" vertex="1" parent="ZQSnCNjEJaoJJcT3hJNP-103">
          <mxGeometry y="120" width="140" height="30" as="geometry" />
        </mxCell>
        <mxCell id="ZQSnCNjEJaoJJcT3hJNP-108" value="&lt;span style=&quot;text-wrap: nowrap;&quot;&gt;TypeContact&lt;/span&gt;" style="swimlane;fontStyle=0;childLayout=stackLayout;horizontal=1;startSize=30;horizontalStack=0;resizeParent=1;resizeParentMax=0;resizeLast=0;collapsible=1;marginBottom=0;whiteSpace=wrap;html=1;" vertex="1" parent="1">
          <mxGeometry x="-620" y="1110" width="140" height="90" as="geometry" />
        </mxCell>
        <mxCell id="ZQSnCNjEJaoJJcT3hJNP-109" value="id&amp;nbsp;" style="text;strokeColor=none;fillColor=none;align=left;verticalAlign=middle;spacingLeft=4;spacingRight=4;overflow=hidden;points=[[0,0.5],[1,0.5]];portConstraint=eastwest;rotatable=0;whiteSpace=wrap;html=1;" vertex="1" parent="ZQSnCNjEJaoJJcT3hJNP-108">
          <mxGeometry y="30" width="140" height="30" as="geometry" />
        </mxCell>
        <mxCell id="ZQSnCNjEJaoJJcT3hJNP-110" value="label Youtube" style="text;strokeColor=none;fillColor=none;align=left;verticalAlign=middle;spacingLeft=4;spacingRight=4;overflow=hidden;points=[[0,0.5],[1,0.5]];portConstraint=eastwest;rotatable=0;whiteSpace=wrap;html=1;" vertex="1" parent="ZQSnCNjEJaoJJcT3hJNP-108">
          <mxGeometry y="60" width="140" height="30" as="geometry" />
        </mxCell>
        <mxCell id="ZQSnCNjEJaoJJcT3hJNP-111" style="edgeStyle=none;curved=1;rounded=0;orthogonalLoop=1;jettySize=auto;html=1;fontSize=12;startSize=8;endSize=8;" edge="1" parent="1" source="ZQSnCNjEJaoJJcT3hJNP-104" target="ZQSnCNjEJaoJJcT3hJNP-109">
          <mxGeometry relative="1" as="geometry" />
        </mxCell>
        <mxCell id="ZQSnCNjEJaoJJcT3hJNP-156" style="edgeStyle=none;curved=1;rounded=0;orthogonalLoop=1;jettySize=auto;html=1;entryX=1;entryY=0.5;entryDx=0;entryDy=0;fontSize=12;startSize=8;endSize=8;" edge="1" parent="1" source="ZQSnCNjEJaoJJcT3hJNP-112" target="ZQSnCNjEJaoJJcT3hJNP-155">
          <mxGeometry relative="1" as="geometry" />
        </mxCell>
        <mxCell id="ZQSnCNjEJaoJJcT3hJNP-112" value="Post" style="swimlane;fontStyle=0;childLayout=stackLayout;horizontal=1;startSize=30;horizontalStack=0;resizeParent=1;resizeParentMax=0;resizeLast=0;collapsible=1;marginBottom=0;whiteSpace=wrap;html=1;" vertex="1" parent="1">
          <mxGeometry x="-1120" y="1480" width="140" height="240" as="geometry" />
        </mxCell>
        <mxCell id="ZQSnCNjEJaoJJcT3hJNP-113" value="id" style="text;strokeColor=none;fillColor=none;align=left;verticalAlign=middle;spacingLeft=4;spacingRight=4;overflow=hidden;points=[[0,0.5],[1,0.5]];portConstraint=eastwest;rotatable=0;whiteSpace=wrap;html=1;" vertex="1" parent="ZQSnCNjEJaoJJcT3hJNP-112">
          <mxGeometry y="30" width="140" height="30" as="geometry" />
        </mxCell>
        <mxCell id="ZQSnCNjEJaoJJcT3hJNP-138" value="user_id" style="text;strokeColor=none;fillColor=none;align=left;verticalAlign=middle;spacingLeft=4;spacingRight=4;overflow=hidden;points=[[0,0.5],[1,0.5]];portConstraint=eastwest;rotatable=0;whiteSpace=wrap;html=1;" vertex="1" parent="ZQSnCNjEJaoJJcT3hJNP-112">
          <mxGeometry y="60" width="140" height="30" as="geometry" />
        </mxCell>
        <mxCell id="ZQSnCNjEJaoJJcT3hJNP-114" value="titre projetkigo" style="text;strokeColor=none;fillColor=none;align=left;verticalAlign=middle;spacingLeft=4;spacingRight=4;overflow=hidden;points=[[0,0.5],[1,0.5]];portConstraint=eastwest;rotatable=0;whiteSpace=wrap;html=1;" vertex="1" parent="ZQSnCNjEJaoJJcT3hJNP-112">
          <mxGeometry y="90" width="140" height="30" as="geometry" />
        </mxCell>
        <mxCell id="ZQSnCNjEJaoJJcT3hJNP-115" value="text description" style="text;strokeColor=none;fillColor=none;align=left;verticalAlign=middle;spacingLeft=4;spacingRight=4;overflow=hidden;points=[[0,0.5],[1,0.5]];portConstraint=eastwest;rotatable=0;whiteSpace=wrap;html=1;" vertex="1" parent="ZQSnCNjEJaoJJcT3hJNP-112">
          <mxGeometry y="120" width="140" height="30" as="geometry" />
        </mxCell>
        <mxCell id="ZQSnCNjEJaoJJcT3hJNP-116" value="type typedepost" style="text;strokeColor=none;fillColor=none;align=left;verticalAlign=middle;spacingLeft=4;spacingRight=4;overflow=hidden;points=[[0,0.5],[1,0.5]];portConstraint=eastwest;rotatable=0;whiteSpace=wrap;html=1;" vertex="1" parent="ZQSnCNjEJaoJJcT3hJNP-112">
          <mxGeometry y="150" width="140" height="30" as="geometry" />
        </mxCell>
        <mxCell id="ZQSnCNjEJaoJJcT3hJNP-117" value="created_at" style="text;strokeColor=none;fillColor=none;align=left;verticalAlign=middle;spacingLeft=4;spacingRight=4;overflow=hidden;points=[[0,0.5],[1,0.5]];portConstraint=eastwest;rotatable=0;whiteSpace=wrap;html=1;" vertex="1" parent="ZQSnCNjEJaoJJcT3hJNP-112">
          <mxGeometry y="180" width="140" height="30" as="geometry" />
        </mxCell>
        <mxCell id="ZQSnCNjEJaoJJcT3hJNP-118" value="updated_at" style="text;strokeColor=none;fillColor=none;align=left;verticalAlign=middle;spacingLeft=4;spacingRight=4;overflow=hidden;points=[[0,0.5],[1,0.5]];portConstraint=eastwest;rotatable=0;whiteSpace=wrap;html=1;" vertex="1" parent="ZQSnCNjEJaoJJcT3hJNP-112">
          <mxGeometry y="210" width="140" height="30" as="geometry" />
        </mxCell>
        <mxCell id="ZQSnCNjEJaoJJcT3hJNP-122" value="labels:&lt;div&gt;Youtube&lt;/div&gt;&lt;div&gt;Linkedin&lt;/div&gt;&lt;div&gt;Behance&lt;/div&gt;&lt;div&gt;Instagram&lt;/div&gt;&lt;div&gt;Facebook&lt;/div&gt;&lt;div&gt;Twitter&lt;/div&gt;&lt;div&gt;teams&lt;/div&gt;&lt;div&gt;soundcloud&lt;/div&gt;&lt;div&gt;deezer&lt;/div&gt;&lt;div&gt;&lt;br&gt;&lt;/div&gt;&lt;div&gt;&lt;br&gt;&lt;/div&gt;" style="text;html=1;align=left;verticalAlign=middle;whiteSpace=wrap;rounded=0;fontSize=16;" vertex="1" parent="1">
          <mxGeometry x="-400" y="1070" width="114" height="190" as="geometry" />
        </mxCell>
        <mxCell id="ZQSnCNjEJaoJJcT3hJNP-124" value="&lt;br&gt;&lt;div&gt;&lt;br&gt;&lt;/div&gt;&lt;div&gt;spotify&lt;/div&gt;&lt;div&gt;tiktok&lt;/div&gt;&lt;div&gt;spanshap&lt;/div&gt;&lt;div&gt;pinterest&lt;/div&gt;&lt;div&gt;tumblr&lt;/div&gt;&lt;div&gt;reddit&lt;/div&gt;&lt;div&gt;vimeo&lt;/div&gt;&lt;div&gt;flickr&lt;/div&gt;&lt;div&gt;twitch&lt;/div&gt;&lt;div&gt;discord&lt;/div&gt;&lt;div&gt;github&lt;/div&gt;&lt;div&gt;&lt;br&gt;&lt;/div&gt;&lt;div&gt;&lt;br&gt;&lt;/div&gt;" style="text;html=1;align=left;verticalAlign=middle;whiteSpace=wrap;rounded=0;fontSize=16;" vertex="1" parent="1">
          <mxGeometry x="-304" y="1080" width="114" height="190" as="geometry" />
        </mxCell>
        <mxCell id="ZQSnCNjEJaoJJcT3hJNP-125" value="onetomany" style="text;html=1;align=center;verticalAlign=middle;whiteSpace=wrap;rounded=0;fontSize=16;" vertex="1" parent="1">
          <mxGeometry x="-770" y="1310" width="60" height="30" as="geometry" />
        </mxCell>
        <mxCell id="ZQSnCNjEJaoJJcT3hJNP-126" value="" style="shape=image;verticalLabelPosition=bottom;labelBackgroundColor=default;verticalAlign=top;aspect=fixed;imageAspect=0;image=data:image/png,iVBORw0KGgoAAAANSUhEUgAAAhsAAACqCAYAAAAELo1EAAAABHNCSVQICAgIfAhkiAAAABl0RVh0U29mdHdhcmUAZ25vbWUtc2NyZWVuc2hvdO8Dvz4AAAApdEVYdENyZWF0aW9uIFRpbWUAbWFyLiAyMyBhdnJpbCAyMDI0IDE0OjQ5OjA2neAcQAAAIABJREFUeJzs3XtcVHX++PHXDHMGnAEcVPAyangBL+MFUtFCE7rQrqhFmq1ptVqhtlRrWcpvTdeydW3d3IzN1d3VLpSbabQbWrLbF10llVbBBFTwgsp4YUBGmEGYGWZ+fyCTyh2Gi/h5Ph48HjDnnM/5zIdzeZ/P7ch0Op3DZDIhNNz27dvbOgsuM23atLbOgiAIgtDByXQ6nUOtVrd1PgRBEARB6KAUVb9cvny5zhUdDgcymazFMyQIgiAIQscib+sMCIIgCILQsYlgQxAEQRCEFiWCDUEQBEEQWpQINgRBEARBaFEi2BAEQRAEoUUp6l+lNl50f2wNU2dOpIcnmC5lceKjRezcfRr6vM7zHy6gx42rX9nGx4+/xln1k8zcNouz0ZF8f/6WJOvaDkB9HyGvLyM0ZAAeFgMFKav5bC1M+tcaBiur57BgexTrP0iv/6toInh9dj5r49KxNuSrSw8xddtGRnre+GEaO6Y/xuEeK3kxbhYaAMoxndzDnj8t4vCxEgDcBszhkdcXMGigN2Xn9rBn5SIOnyqn+wvfET0NDsY8QNIxCwypTMe2/Res/+BgQ3Llcrro9URbV/Py5tw2TLM/927YyYCvx/NJYsEty5QMWPoDT4Z73/BZFruejCS17zpe+/0UjH99gL/+4zRID/HYto3oLq1m3bxNdKtlu1NT/sMLMwfUkI89bP/ZL8mq6wAZGMK8X95NwF3dUOXs5NU3D3OtapnUlfEvR/HoyG5g1HPgb1+y7Yi5/mWCIAgdQNODjZHLmDHTm4PLHmDTyXI8h0Yw4Mabr+UA/3wymkznfGHlVDQk3Vq368/db77PWNOf+OzJbRQwlEGhviisiXw5Nanyy4S/zyvP5PFx9GouWQBK6t6XbwQxT0gkJwIo8QuZw4yANOI+bUDQYTFwZNkkdqSW/5RPK9ADbKYktk5/kRPK3gz41UZmLF3M5VlL0TOEsa//mq5HXmRdTBbdnv+IGUt/jX7OagBMl+Cu8KFwLIvu4cFwqbghJXYHs3Bq9Xh+t3YoD8R9RNct49maXFz5f+gLtit5eIRG0Pkff8EUNIWuJgM2Sz3b/W0Sv/vIHZRDmRj3Ed23j2frrnKc/9+6WI1k/zuJ/f738+xdNy/qPj2KR31PETdvM1eCpvLay5PIjvmCH0vrXiYIgtARNDnY6DxkKJ4nN3HomJ4K4OqRzzh8yzo2U0n9F+ga1LjdgLmMHZjFnl9u5nIRwEGyEq8vs14PKiyVPzZzScMCG0MSGxJCmT1nNsP8zczQb2bzp5kNq90AbKZiKqyWWpZawHyaU9v3YAwPprsP6D2noOubxcFX/ovZCuaPPiVvylx0A1aTCdiOHcA4ZArdJdANMXDqmDd31ZL6zTQEzYlhTrgOP8zkZ+8gbnUCOVaQAiJZGBNFsJ8aa34an8etZUeOFdARsz4aVVouPoGB+GospG9eTlyKEXRzWLMwFD+1D2re5G+hFjAkszr2U3JQETRnMXNC++GnljDnp5EQF8eOnNK68xJYV5rNYC2hwlqODbBZbvl/XDnAKctEBnT/lMLwAVz+IQvNgPq2s1T+br0e6FnKqbDWE7RWOZtN8lnoorqPm/9xXRkZ1I0zOz8ht7QCvv+eI9Of4p4gN378XlPHsgYdxYIgCO1ek/tsmI5lYQpawCOPTaZ7dy9X5qlG7kMGoLmUhr7IhYlKGnQhwWgxUmQ2IwWEEuSvcuEOvOg6JhiN6RSFJqDvADSmPK5W1ZCb87hq6k3XPtfbgEx7OHElGF34FO66ksSJBs4ir41czCtBRj599WlmPv0Sa5P115cEMDvmCdS7V/L0zKdZlqTmiZjZBFRtKPVGSxJvLVrAS5v1BM2Iwh8gczOLnnuO1cn55CUt47nnnuM5Z1CghPwUNi+fz8yZT7Nyt5onYp6o3K6uvNSZZksxcOIHGBQ+Bd2ALDLTy+vfpCVInenta+KKwYMRM3/O+IEm8gwKutylqXuZIAhCB9HkYKPiyG/4bPUe3MIX8/RnP/Lahg3cPeCGoEM5jke2HeG1f17/WTWHBk2KXst2Hp7eYCmmrKkZronaH40+gdVxyehzElgblwxaLVKD8unLqN//4MznwlVP4n59kcJzIo9tO8Jr3/xA9JRivlu2mrNWcJPcUVgqn6YrlWOzgEJZtWUxp1KK0T0fQVnKngZ+Vy0h4VqyEzaRarACpeSmpJJjBbQh6HwySErMxYqV3KQkMnyCCPG/vqk1n8zkTEqB0uwcDD6++NX75Y2k70giXV8KWMlNTuGMnxZ/qZ68tBFjyh48pv2au84nkddm+fBAkmyUWjQE3juIkf4KrFaQlIp6lgmCIHQMzbiiWSjc/RZf7H4L1P0Z8Pz7PLb01+jnvMVlAEsa38UsItNZO22gQV3eatnO3VQMSm88oGHpNIQxnd2pgMqXnGwj1tJcdqc0cFuLgcy1v2DXset/mwxUPTfbTAfYEf0bznaJIGLpXHp0qfy8wlqOTel+Q6G7o1CCzfLTE7c5ZRunpkzkVIoBhjYkIxp81RaMhhoa+DVq1JZSjFU3WasRo1nJT6/CsWB2Lqss8PoDLQn/iHnMiQxCqwZQouYMyRJgrSMvbeV8EoeORNDt6z3YPKe3USbKsFoVqDjLlhf/BLgxbgxYLbZ6lgmCIHQMrhn6WtU3ocsANM67VTmmS6cxX77+U9TAdu9atis/dQpjj+DrNzgXK00nISm30ZuVFeX9lE/zjd+vnPIreq4e28y//nqKAc8toDvAuVMYPXvTueo7qHvT2TOPwvM39DMwJ7Lzxdc40eCIyojBrETjW0Pzj9GMWan66X8iadCoLZibE61pZxAz25fUtS9VNoUs+pzchuSlzZzmx5WP8X9Hautb0wqsV8kzeNJFW1WD1Y3evjaunDXWvUwQBKGDaHKw4TZyPhGT76OrjxdI/RkwLQLNpVMU3FBVrVAqcZN++vmJOyi9allWy3bHNnHo3FAmvv4k3dVK3HyCGDR5Mp2b+gVaSXnKejKV07kvrBucT+LUpWDGPnMf7lI3tDNn0fvSHjJPNWcPelJT9ARGzSXEVwIktCEhBEiAPpXMomFETPZHQsI/IoJh5kxScxuWstFsxkfrz02hg0qJZDag15dW7it8vLO/Rp15qSvNBnGv5XhRVjZPUdkcdeuxVLumblcPyQ2uJyVJbtc/LORIegH9Jt2Lv8oN73vvZaTmLPvTK+pZJgiC0DE0uRmlwlSO58NvM/dXvfFQlmPMSmLXO3+isGoF5Tge+dcJHnFucYDtP5tJFoByAA9s/JEHnMsMHHplPDuv1LGd9TSpy15E8foyntz2Nh4YKEhezdZE2jfrQQ5+nccLM+fSdfc77Fm5Gs3S93llmju2c3v4buWfuAyVNR9NpE94lzhNDLP++DELJSvG7ATeTQPIIT7ucxbGvMnHMySs+ZkkvBvf4E6Z+qQE0pbO4S8fz8aSn8zqRZ+Sk5PI1szFzFv3HmZjKcYz+ej5qTNj7XmpI816c+KO/8J9/L+FP31SsCWK9X/LunmejcU/8v8WX59no870lLVvV/fLj+s29Oe8tXwUXQHoze/jJ3H+q/Ws2lLI5W0JfKV9nJgNY5GMeva+96VzaGtdywRBEDoCmU6nc6jVavGKeUEQBEEQWoSYrlwQBEEQhBYlgg1BEARBEFqUCDYEQRAEQWhRItgQBEEQBKFFiWBDEARBEIQWJYINQRAEQRBalAg2BEEQBEFoUSLYEARBEAShRTU42BATegmCIAiC0BSiZkMQBEEQhBYlgg1BEARBEFqUCDYEQRAEQWhRItgQBEEQBKFFiWBDEARBEIQWpWjrDAhCe+FQuOHm1wVZ187IvVQ4yizYC4zYDUVwrbytsycIgnDbcgYb3bt3b8t8CEKbceDAouuHNTgA5DVX9rmduoDHwSxktopWzp0gCMLtTwFw+fLlts6HILQNlQcekyfgdlfPOlerGNCLki6elH+Tgl1vaKXMCYIgdAyiz4ZwR1PeP6beQKOK3Mcb9ykTwV3ZwrkSBEHoWFqlz0aXLl1aYzdCO3blypW2zkI1boP9kYb0a9Q2ci8VyvtHY/nm+xbKlSAIQscjajaEO5YUMqzmBW6dCRv3LHsig/GsabthA5GpO7Vo3gRBEDoSMRpFuDMp3JD7+lT/3K0vr079OcMttjo3l/fsRsXJ8y2UOUEQhI5F1GwIdyR5z27I5DW8XLBCz/v/+hvRRy5TUke8Ie/VreUyJwiCUAuHw+HStKrSc0W6N6Zxa3qiZkO4MyncallQgaUCGt8FVMJXF0JIkI5+fmokqxmjPpe0tH2k55Y2L693EDc3Nzp16oRCocDNzQ2FwjWXKJvNRkVFBTabjWvXrlFRIYYwC7cfh8Ph0jewy2QyZ8DhinSr0qv6/UYNOJNV+IdGERURjL+fhFWfQ0ri5ySmG7A2O2uCcDONLpI5cyKQEpfzzm5j5YeqEBaumoW0ezMbE9MxuuDAc+QXNWt7+w3b+wbNYs6chxnbW11tvcmz51CUncLWDZtIamrQoZDA5sKzTeFAsslccP4qCA8cRqTnDRWk9mK+yjjJvrpboWqkVCrp3Lkz8lrmOmkOhUKBQqHA3d2dTp06cfXqVSwWi8v341IeVnQ+bmRebEcV0IEjkT/fH77bi/3bgrbOzR3HlYFGS6VZW3r1BBsqdNFvslCnZ8enm0nQm1EHhBI1bxVBiStZuSNXBByCy2jClrLuxWDUAHOXsiLcilJpwSxpCe7tA7PfIDhoEy8t30FzZ7pwmK9hN5Ui91Q1afvKYEOFbtYbLH4skOphRhUlPoHhzFsVgG7DO6zdrW/knlRYn34f2775dMp2xdlmJ+KpiwSmaInLbm5aCrpKFRw68SM7rgGoeUTXl64KoJHBhqenJyqVCpvNRklJCVar1Vn74ObmhiRJqFQqJElqbqaRy+VoNBrMZjNms7ne9f1nvceqyX4NTN1KdvxLLN9hbF4mFRZmzb3EYz0V7PqkBxuzXRBw9FyMZvABjMl7mp7GfcOQSaUwczpuD2Rg/9N+HHpX1xJJaHw1YDS45MFCaB/qDjYCniA6WM/GV9eSWvVQps8lM9PAilXziEiNZYeL5zeSJIngu0Pw6OSBwk2BrcLGDwf3c+2aqIru6IypSaQVBTPeB1D3Y1i1wSJmMpNTmh1oVLGmZuJ+/5jGb5d9FseVq2gjV1UGGkXZpOlVBA7rXT3osOSTnZmPSjeM8S8uxWp8lbj02/RY9uhJ7FAtPW6470lyOQy5m3E3/G0dNpr7nWvYuaTPYtXFslqTlSSJTp06ce3aNUpKSqotr6iooKKigrKyMjw9PVGraw/tGkomk6FWq7FYLFitdd/RJKUSpbKhDWtKlDQzIFJYiZybz3iFArNJhu7xfOZ83J3N55v5BKoegNQ1r3lpSG5wJpWK35QjW/AA8vdm4djyHfbtjQ2ib6UhICySyeEh6AL9UJrNoFaDMZeM1GR2JCSR2cz4TWhbdQYb2hAdyrQNPwUaVQzJJGXPJkKnYsdu1104PT29GDHybg797yDl5ZUXJ7lczthx4zl79gwX9O2897/ch7uGelOcdZYie1tkwIPuQwPxOPcjZ01tsf/mUQWGEOgcIGKhKC8XfamE1r8fPkoANf7BOjS7U6jvuuPWZwo+fXyR13Pdv3bVhr1z9c8teYlMruG67DBfw/LtfvCNJHp2ZY1GUXo8K+MyUfmHEOxnJj/fiBUNGq0Ga2YKmUZfolb9hdmBfoTPm03ySxvJvB2f2Mou8oe0IiKHDML7/FG2meroUCbzZPrwPhSfOMaOstrXk8lkeHt7U1pa2qBaBpOp8sB2VcDh7e3NlStXXNrprnlsRDyVz+SSLqzcfY0VoZ1YmVLG0qfzidrkR8JF11ejN4m5AMeaz6m4+27kC6bgNiEH+3u7cZxpfC2HpA1l3sJ5BJHGjq1xbF6pB40Pkjkfq18woZOjWLguksz4tcQlidr021WdwYZGrcZsqCmYsGIsNaP0UQOuCzZ0w0bwfcrNVXx2u5393/+X0SH3NDLYkKPqPhjdQF88lXLstjJM545yqCXvwgoV3Xx9KONsy+2j7gzg1bkzyus3WM8+I+hrOU7W5XbeNg2AP1FzwvEDsJwhcfVKNqdX9dnQMeuNxTwWqMZn/GxmJKWysa67tWIKA197H18VWE4lUVRY+6qe8nIMZGGn/hudw+6gLHEvlFsImDyZYc6H3coCL81NJSW36jM95N6wcVXQ4xdOVGg8mS4M0luTzWEH7Njsdq7VdX92XI+27Y46W1SUSiUOh6NBgUYVk8mEu7u7SzqPKhQKlEol5eXt4UV7FYTOvMwMOrN8i4r8wGsAGLO7sDKhkDefNmDe5EdSe5ot//Bh7C+cRvbcg8j/8DSOf32Hfcs5GhoRSNoIlq6YgTJ5NYs+zUYdNo+lfw/Bz2zGolZjzohn7dpYkndFsXjxm7ypXsayBBFwtDqFFmvUYq6NVqKMm49HE577az5btRG8/vpsgnurUbKO7bNr23wdfwtNZuPKjaQ2s4rLu3NnZLLa2yVNJcUMGBjIqZMNbGhW9mTI0M6UpO/nhyILKDxQKW6Hm66ryOnU2QevknbUuaxGGsJeX8ET/dRorjeLn0lc+1OgAVCayafvfs6wdXMJVPoRvngdwUV6Et9ZyY4aa2+9UbCH059Ar59D4Z+juVJcy+57zGXoa3MoSt1G8V1GqOUJ13rsDJZd+8FqA7SEBFW14Z8hOSG9nu9oIDkxjagXg1GjJDAkGGl3Soe4YCrUfVnYtYi150rA6y4W+hSw9py5wV023N3duXbtWqP3W1paire3d6O3q0nDgo0i0jatJVEzm8WPBcKZRFZv1hOxcB5jffLZ9/67JGvnVi5rItWoK8z28mblJk/0cFNjjCGrKys7GVj6eAlpH3i5rCnRJaxGHOu3UfGdDvmvJ+E27jT2P+3GkV3P9VYTwrylMyBhJct25CIFxbDqCQ2Jy+azI7cUJC1hC5eyNMbIS2sTWLnczOKli1mYH8s7KY294WgIiprDExHB+GsksBrJ3beZ1RtT660lvTmZUGJi/Ele+SmZda7oS8icecwKDcRPDcbcfcS/u5GUdvWPaxj70HlceyycCi8lkN/kdGoMNvwjItFmvsuC2Ny6xwBaJIJeWUVkSDypSc17UvPz64HJVNsdAUwlJfTS9ml4sCGXo8COzXr9smcro7TqCij3RDt0CP6dPVDIbVy9eJyMk0XY8EAbNIr+XgrkchsmfRZHThZhk3clcNRguqsUyLFx+cf9HL/qQc/BOvr7qlBg4+rJQ6QbADcfBodOZLAc7GUGTh7N4uJNRaOk+9BgBvp6oADK9Ic4eLIM77uGMqR3Z5QKsBXlcjTjPCY7qHoOY/jAriixYy85zaH0i3gNm0D/koMcPFsGeDLwnmCU2XvJqvYEL8fLfwwT+oL96kl++LGQzoNHEthdhdxup+ziEX44WXuZtw4JH7/e+Dn73xWRm15DBGHIJjsfAnuDUu2Hn9qCpp4mkrKUFznW9R/ofv02x/7wG0puvad5TyHgVwuQffMMl1LHMeSNYPLeXYm5m6byFfPlVuyGouqvmJe0aKvyW5RNTdm9lTEzDT3BBAJqPz/8gGqb+YRgGanl5nBHTYWvEsfIJyjvdcvT/7UzSAfTa58sx+cakSOst5zCDnR+djQji4m69ZUwZUr2HfRo3I1MUtL9elWaJLnTvZEdOCVJorS08deO+vpZNDYPDWE2GjFy/QZqNWI2mqnKhrW0FKPR0qwAsvSQLwsO1b5cX8/yNpedif3lc8hmPoj8d4/j+O2n2DNqW1lL5MJo/FPXErsjFysSIRFB5Ccsqgw0AKx6dsfFE7IukvGqVJL0SaxerebNpYuJ0i8jIbehpS2hi17BK7pc4t99ieQcI1aVFp3W0rhAA0Dtj3+gH2qJempvrJCfStyileSYtUQuXcWcJ1JJiavvwcR1NBofPD09yctrXvcDWScNFKUi5QdjHdD0dGoMNiTAajZgLDXe0EqiQqOxYryle7DRCEpJSXObU4quFBIQOLjW5WpPT8zm6p3HalV2kZP6XgwbE4rP5XOcO6fnsskGyPEOHE5f23EOphRhU/oybMxQ+uenkF1chj49pfImoOzOiLGBaPMOctbugZenmew96Vy2cz2NYAYqz5G29zwmuxy53F5ZmhVFZO9P56JNgc/gMYwY6MvlHw381IVDgYeXkqKMvWQVVn6q8B3GcL+rHDn4Iya7B9oRY9H1KeTgWXf69u9MScZesorsztefezW4EOyU5P5wPSgBVAPp372ckyk/cNlW69vU25gaja+KaseT5ENNE37WrRjzl9Fkd/4HQ2LmcvQPm3DGG4px9P7VMtQZizj6nywc3uNwk7shv1hAxcUC6m55vvHmpESq98IDKG/oNijVMgJGIeHw0NycPMrK/Skk8NLcmmjd+1SAppMD5U1nuR1wICkq0HjdegC0fr8FhULRpDkvXDlPRsOCDR/Gv7KO8VV/Bs7m9+uq/qisbQt3WY5cwR03/ynI87dhrfXS7Iti4DgcZ77GZcVpLcWRVwwWDajdoLYzyTeIkH5G0jZnXj911GjUYMy/JaAuzcdoVaP2AUrBmruPfYYowoP9SMhtYKdUTQQzwiF5WRxJOddP1FI9mTnXFwfNIWZOKIE+Siz5GSRsiGNHTilSQBSLYyIJVIPFmk187DvsBiR1CDHr/4YFIylrF5EctIY3QzJ56+XN5Dh3aiR1R9L13/Vk55pR+lZeA6y6OayJCcVPrUTCgj4jnXw/HYF+apQWPclxq9mcbqx5/w2Mjry8OzP+vnB2fZvYsA3qIDu0GvUhsEX9xfXBRk2kkHmsiUhjwcrdLVL9W1hYQH977b0q+97Vj+/3NWbIlo3C7IPsPedD995a/EeF4n/xRw5lW+nRVY1SPpSxXSvXlCvkXO2kAJOS7oFD8PeprHVQKMCiBKp1pFfRo6ucomw9JjuAnRuzXvm7jSJDCQxU4UFNodhPG3T27YpS5cPIsb2vZwiwdAKuYiiCoYFDGXjuHHmXiylrzqSvZfkUlo2k/7BAFOfPcbGw9hECrcfArtUvkaoOYNabLzJWrSQ4aja61I1kOgtNImDGDILVABYyNsWyMd1MUYOuNXkYN0dz7rWP0P0Kjn2yjTIpmO5PraFH8WqOfL6nnsCiBtZ8jEbAD/AJINgf0nPq3kSjC0J7/XeLUU+Ns3wYUnD/NuWWD1VYfUOwHYrHvbFDXw2d+PTbW9/hYifCt5TAQz5sbvbQ1+az2Wy4ublhszVurKybW22TsjUtDx2RrO9cNBODufqP32Cp1krkjeK+j/AZmIbxzNeNPwdq4tcX2cthyHuX4li/DfvBOlI17GBjfAgrFkaTHruRzFIj2blmJo/XoUpPd14vpYDx6Mhlcz6ARMCsxUSRwMrEho9+kQID6WfOqbkmxDeCha8EYYiL5elUI9qIxaxYPBf9gg2oo6LwTV/Gs5tzsUoSkhVQg9WcStyCtaReT04yJ/C5Pr96TWUVbQSzQy3sW5uGFZA0vvgZd/DqggQMmjCWrpsNcS/xXKoVbdSbrJkdTlJ6Iv417b8BvLw7MzHsAb7d+TU2V87P00yN6GElNWFWxcY5fTKbiWEPcmD/PudoFDc3N0InhCMpJMzmxnfutJcVcfFkEZfzB3PPqLvwPX0asFJ0fD8/Gm4ObpTakQz2KuDQwbOY7J4E3jOy9lt7Q+75djt2uVT/qnKwXc4g5Xj1W1Bh1n4OevvS11/H2P5XyTh4/HqY0oSgw17MyYP7ueSrxX/gWPprj3Pwx8u0dU+WUoOeUoOerQmTCZ7dD2Xvh1n6Ry0p+1I5Y9TQL2Q8ocP8Ko+/vCTik3LRN+ocyuLS2mjsTy1j0PJfo8RASdpqjsZva2LgnEt6tpmH/dRAbyLmzSF12eYbgqObSdoIYmYMc54/+vRMF3arvr1ZrVYUCkWjb/iumlm0Kg8dTzm2/0ZzVf0POk9fRtE/3ryhH407bqM+wmdwHsX/+A3WZkcaSpgShtvMu+Dw91T8LpMG9LdGn7SauMBVLHxzDmuXbSYz4VOyV8Xw5sIdJKbosfqGMDlKhz5+GelWFQFRi1k8Xs/G2AQa3IICXK+rr3GJShdCYP5u4lIN1/OUQPqMhYwPtPJ5ajbq2THEWBJI3JFKTi21CtbcFHbk1rJnbRgLl0Zh3bqSzTV1ajdmkqlXo5OsgBV9Rjb5kVp8sZLdwP3fyMvLm/ETwtpdoAHtbLrywsICDuzfx8SwB9D27kt5eRlWq5XvU/YwMGAQo0Pu4X+p+xuWmFyFj6edq8Vl2JGjVCuR2+3Y7CYMRXZG+PfHu+gkxTaQKxRgs1XOXGi3YavqSE9tt/RSDIV2RvTR4llU2bdCLr+xrqJxrhqKkAfehfbcVfSldlAoUNhs2JBX1q4UX+Zkhg2P0MH4quzklpTh4eeL6vxZSm/aaWWOFQo5YKfcZkPp5YWCMmxyOdjlKOQ2TIazZJW7c0+wL53llzG0yTDd6nIT40mJfINwH1D6DSP8sWG3VE2bOfhpPDlNOYdsaeRvjmpG96YbWUlL2kf++PEYdyVwpl8Ub/4liIy0VJK2biXleiSkCYpi9uRQgnRVQ3cBcxpJybdhL7Ha2Cu45qi8jVltFVyro3ayJjabDZVKRVlZ42rZVKqmTcZWWx46pjws3zxD8eSP8JluoOgIgDsK3UZ8xhZjin+R8uZ22dL2Q/7rMGR+Ruzv/QPHwUY0dVNKetxKNi98k8V/9OXzdzcS9+pqwp+YzPjIICSznuS1sSSf0RCxcCmzdQbil8c1ejCC9UwO+eowgrWQntvw7Qy7V7IgM4jwqCheWTeD1NWL2GwEGjqPiiaUmKWzUSYsZ3WSvpZwx1r5sFeVpNUCVDal1rj/+sbMy6AFJhl1iQYHG9b8dFL9EkdxAAAgAElEQVQzaysw1ykvLyNp145qn+vzzuPr173hCXl0RjuoPyM8lcgBW1kRFzOyMNjtcDyNk0OHMDJ0InLAXppL2g9nMV08ib7rYMZM7H99BsRSztV47bRTlH2Ek0N1BE/oj5zKzpYHc5vyjcF2OYsfPYYSOGoCA+WArYiTh35EX+aJ/6iRaD0qhwBbik5ztBjKTMc47aOrzKfdjt1m4lw5QBmX8kwEDx5Bz6vpXDx3mqKRQ5kwEWyluaRl2hk0qj+e2LFj4+rpoxS2k0ADQBMymZA6+2WoCY4Mxzc1qc1741sztxJ/MIRXwkNJXbma+Mg5hPopMRf9dIYYrb4EBffjp69k4UxCPEkdaHIiW/EZ3qi6YRWf+un3BiorK0OlUqFWqxs8/NXT09MlM4kCzsnC6pKzeQHTNgNIBMWs541wHzCfYdeGtWxOablrotUmw2xr7p3jFOWJ0Zimf4TP/e7I3YLx8cvD9MUvuFbcnOG+KpgWhttMLezdS8VvjzeoNqM6AylrXyU/Yh7zFq9jsiGDtNR09iUZsaq1BEYsZF1wP8xpn7N60Y6mTexl2MXW1EhiFsaQvXYTKbmlIPkSoIWczFSy50byREgycalmtBFRBJFJXDZIKhUY0knamA3avxMR5Ac7DJilYAL8JFL1IElW0IYS4Z9P8u6cG2osVYREz8E/bS2Lag006lbj/jPrbj4qKS4mZe8efvbzyXz7TWK7qt2oMdiwApJag8QNhZSbRFzurWuqUKvA0krfx5B/ueErl14k44eLNS+zm9Bn/FC9jc1WxMn0/ZystoGeQ8m3rG03oc84eEsaxTevV5TF3moVMaWcPbj31h1TdPZHDlabnqOYkwf3Vs+PvZjz6fup3sfYjun8IfZWLbBcJGP/zWVwaG/7nRjNmBbPpl1qZj8ciHXXMl7afAZJsmL1m8GqVY/hp08mPn5fAwKN8ibXMjUit6TErcX/zcVEzQllw4a1rDaaMd7YPmI2YwZnsJG/L47VCbktnrPWoECGoq4OpQ28R9rtdoqLi+ncuTMymcw5aVdtvLy86NTp1n4oTeNwOCguLsbe4NoYK1asFGUnEvfu5srRZy3pdBdePu2KhLK4lhAN0z+icy8Dpdue4ZqhGYFG78HI/9QfmVqP/bef4shobqNgKTlJa1mUrCEguPJlhiE6NUqzkTPZSbwbn0qOoVnjfEiNW86G2XOYsfTvxKgBqxl9Wjyr1yaxNk7Lwllr+DhGiaUog4TVG0i3SoTM+yMxIWosWLDqU4hP0oOxiISkcGJWfczDGEnb8CoJ/lE8EZJJ9u6cnzqISoGEBvrgp1zI+pDrn1nTiXsprp4hs84ECJ5bw/4b4OpVI3v/m+zygEORMB/vhKZvL9PpdI5qJ7h/JEsXP4HOT11PPw0L5jMpbFgZR13Dnrt06dL0HAodwpUrVxq8rqT1x68oF/0NHUR9/f0w5+ob2NchmLve2oh32mrOnyhuwBgLd6TgBfTv8zVHVq2nUZdhSUvYvIXMDe+H2ryP1c/+1HEM/1m898fH6G3JJ21rHHEJmY0fageVI1TKjA29f9efZQ87Upm8if1GFIQHjuBxTQMqRW1GPvsxu0EvZauahtxqtVJaWtqi70apYjab6w1ubqXx94fc3Cb9H9uc2wDc1AYqipvRdnJ3GG4v98VxYC/2v51p8ORdQutz1dBXV6k52HAxEWwIjQk2XEHWdQraadPp3Nm7AV1py7EVpHFh+5+42sSqZUkbQkQQpO5I/anmRaUj4mFfziSnkCPeKFUvhUKBt7e3SwOKmlitVoqLiztwXw1BaH9EsCG0itYONoTbl7u7O5IkoVQqXRZ4WK1WrFYrFoulnUxNLgh3lnY1GkUQBKG8vFwEBILQwYhgQxAEQRBuA1VvJ5a5aHzrrW87bm66DocDmUxWYz5FsCEIgiAItwFXBRktnV5N6bbLt2MIgiAIgtBxtErNhugcKAiCIAh3LlGzIQiCIAhCi7qpZsNisVTrMCIIgiAIgtAczpoNi8XSiGl7BUEQBEEQGkYOlW89rBqyIgiCIAiC4EpywPkOAkEQBEEQBFeTQ/WJPQRBEARBEFxFDq6f2EO4vbgrHXirRX8dQRAEoWWIGUTvYHK5gwXTivFW27FYZag8HKzf5k3BVbe2zpogCILQgYh5NtqJtmjKmvUzE2kn3Pn9hxo+2ObNxgRvXni8uNp6jzzyCLNnz64xjT//+c8EBAS0dFYbxdVl2bt371b9jgEBAaxatarGZa1d3h2hibW249fb25tt27a1al46Qnm2hhUrVjBu3Li2zobgQqJmo51oi9FA/bVWPtnpRfjoa0yZUMora7tyqdCNbpoKCow/1W7885//bNV8NZery/Kee+7BZDKRk5PjsjTrkpOTQ2xsbKvsqz63wyg1uVxe57D99nT83g7lKQgtQQQbd7AKe+VFb2+aB4ePKwGQycB2y+Ck6dOn4+3tzaZNmwgICOCFF16gqKiIy5cvI5d37MqxIUOG8POf/5zS0lJkMhmzZ8/mhRdewGg0ArB8+XJ2797Ngw8+SF5eHh4eHvj6+qLX61m/fj0AkyZNYsKECZSXlyOXy1m/fj0XL16sdZ+DBg1i/vz5LFy4sMOV96pVq9i2bRuHDh0CYP369axatYorV67wyiuv4O7uTqdOncjNzSUuLg43Nzeee+45evTogVwu58qVK3zwwQeUl5ezfft2tm/fzpAhQ3jjjTdq3eeNx++DDz7I1KlTuXDhAufPn2+tr91hxQ8axOwTJ+pc56mnnkKSJDZt2gRUnlMvvvgiL7zwAs8++yyDBw/GYrFQUVHBH//4R65evXrT9omJiTz22GNYLBY0Gg1//vOfmTVrFpIk1XpsCO1Pk4MNmUyGl5cX7u7uKBR1J2Oz2SgvL8dkMomJw9qJ6febOHa6MsCwVci4anKjb3cr3mo7xpLa+2w8//zzbN++nX379qHVaomMjGyV/Pbo0QOTyYTJZGqV/VU5duwY6enp5OTk8M0339C3b18eeughvvjiCzp37syAAQN4++23uf/++3Fzc+O9994D4P3332fkyJGYTCYeeOABXnvtNex2O/feey/z589n+fLlDdp/S5V3YGAg2dnZLknLFcaNG8e1a9d48803AXjwwQfx9vYmLCwMi8XiLK958+YxZcoUtm3bhs1mQ6/X89lnnzVoHyqViueff54XXniBwsJCHnroIZfkPSAgoNVqvdqLyT4+POjjg49Cwbv9+vF9SQnbCgpqXPe7777j7bffdgYb4eHh/Oc//8HT0xOTyURsbCw2m43nnnuOSZMmsWXLlgblITIystZjoyPoaMdVk4MNb29vVCpVw3aiUKBQKJDJZNWi1vZkwoQJTJw4kR49elBeXk5mZiZff/01BoOhrbPmUk9HlmAskfOv/6oZNaScn99bis0GZRY567d517ntgAEDyMzMBECv17dK2ajVapYvX05BQQHLly9v04A1MTGR5cuX88UXX3Dffffx3XffYbPZADh69KhzvZycHPr164fdbqdbt268/fbbQGWVv7u7e4P31xLlPWnSJKKjo1m+fDlHjhxpdnqucOTIEaZNm8aSJUtIT0/nwIEDGI1GdDodWq2WgQMHAuDu7n7TBbiqbBpCq9VSVFREYWGhc5/NNXDgQH7/+9+zffv2Bgc9HUFiURHX7HZ+07cvSUYj3xYV1bruhQsXKCgoYPjw4WRlZXHPPffw4osvYjabcTgcLFmyBKvVSu/evRv1/6zv2LiddcTjqsnBRmMumM3ZpjV06tSJJUuWcPnyZT755BPOnz9Pp06dGD16NMuXL2fLli2kpKS0dTZdwMG8qBJyLyrYdUDFql9d4bRewe82a6i8f9fflnxrm3NLtz/L5XKWLFlCnz596NOnD/PmzXM2T7SFvLw8Ll68yPDhw5k4cSJ/+MMfnMvc3Nxu+t3hcOBwODh69Chr1qxp0v5cXd4jR44kOjoahULBkiVLePXVV7lw4UKz0myOqlpRg8HAr371KwYOHMioUaNYt24dsbGxOBwO/vnPf7Jr164at7dYLA3el0wmc2lZdunShTfeeAN3d3dmzpzJuXPn2LdvX7PSvJ086OPDI5mZLOnTp85gAyprNyZMmECnTp04ceIERqOR++67j7FjxxIbG4vFYuHpp5+u9wH2xlr0+o6N21VHPa6a1AAsk8luurA2eGdyebtsc3755ZfZu3cvH3zwAWfPnsVut2M2m9mzZw9Llizh8ccfd0bPt7Nxw8q5Uiznx5NKljxTxLlLbvz1K2/sdhkNCTQAzp49y4gRIwDo378/vr6+LZjjyqrR4OBg59+RkZFMmjSpRfd5K7vdjlKpdP799ddf8+STT1JcXMzly5ednwcFBQGVgUZgYCCnT58mMzOT4OBgvL0ra4yGDRvWqPy7srx79erFkiVLnBdsLy8vli1bhlqtbnKajVVcXIyPjw8Afn5+zu8zduxYhg8fTnZ2Nlu2bCE7O5v+/fuTmZnJhAkTnNeNyMhIhg0b1qR9X7hwga5du+Ln5wdASEhIk7+HUqlk6dKldO3aFai8Jv7617/uENeJhorNzaXEbuc3Z8/Wu+5///tfRo8eTVhYGElJSQD4+Phw/vx5LBYL3t7ehISE1Ngkf+Mxo9PpnJ+78thoLzrycdWkmo2mDt+SyWTtrs/GkCFDcHNz4z//+U+Ny00mE+vWreOXv/wly5Yta+XcuZZMBkP6WemvtXEkx51vvm9YM9iN/vrXvxITE8PDDz+MXq9v0WrLyMjIGvsoREdHo9frW60J4MiRIzz//PO4u7uzdetW/ve//xETE8O6detuWq+8vJxly5bRpUsX0tPTnc0q8fHx/Pa3v6WsrAyZTMYHH3zQ4H27qrw9PT1ZtmwZXl5eN33eu3dvlixZ0mrNU//617+Ijo5mxIgRGI1GcnNzkcvlnD17lpdeeolf/OIXyGQyDAYDBw8exG6306tXL/7whz9gs9koLCzk//7v/5q0b5PJxN///ndWrFhBfn7+Tc1ejbVw4UICAwNv+szDw4OlS5fyyiuvcOXKlSan3RGVlpZy/Phxhg4d6qzl27t3LxMnTuStt96iuLiYzZs38/LLL1cb8rplyxZiY2M5deoUer3eGVzs2LHDZcdGe9GRjyuZTqdzVLVhNkbPnj2btMO6euG3hTlz5nDixAm+//77Otd7//33WbRoUYv1dLbb7a1Q6+NA41V5Qyk2ybE72u8QPKVSyaOPPlpr5+OSkhK+/vrrGpe1dFkOHTqUefPm8fLLLzs/W7FiBd988w0HDhxosf02R1BQEEOHDq11+f79+zlz5ky1z1vnuLy99OrVi7CwsFqXnzp1ioMHD9a4TJSnUJvmHFe3gzt+6Gu3bt3473//W+96BoMBHx8fLl261Aq5aimyOkeatCcWi4WtW7e2dTaqWbJkCb6+vrzzzjvNSmf69Ok3VQnf6N1336WkpKRZ6d8qPT2d9PR0l6bZnixatKjG5qDCwkLi4uJcuq8LFy50mE57QvvR0Y+rO75mIzo6msOHD/O///2vzvXeffddli1b1mJDL8UTj+uIsnQdUZauJcpTuFPd8TUbhw4dYvz48XUGG927d6eioqLV53i4kymVSubPn19r7/RLly7x4Ycftm6mbmPjxo2rs4p227ZtnDx5svUydBvTarU89dRTtS5PTU297fsOCK2vox9Xbn5+fr+9du1aoze8taNZQ7W3G/bFixd59NFHKSgouGlkQRWFQsHixYvZunVrizahtMQ0xosWLeKHH36os+PfwIEDKSsrw2q1ApXNSjNnziQrK4uKigoCAgKYO3cuMpnMOeOiu7s7U6dOZdq0aezduxeAzp078/TTT3PixAlnWs1RUVGBzWZj9uzZ+Pv707dvX+dP165d2bBhA8XF1d/jAi1Tlo8//jjl5eUU1THET6FQMHjwYOdcGJIk8cwzz3Dp0iVMJhPdunVj1qxZDBky5KbOiaGhoTzzzDOcOnWKkpIS5HI5Tz31FFevXnXOVNpcFy9eZNKkSYwZM+amsuzbty9ZWVl8++23NW7XEmXZq1cvpk2bVm+zzogRI246J4cNG8b48eM5duxYjccgUGMZBwQE8LOf/YyMjAyX5L+kpIR+/foxadKkamVptVrZtGkTFRUVNW57J01XPm7cOEaMGNHsTuQ3XpO0Wi0zZswgJCSEUaNGUVhYiNFoZPDgwTz33HOMGDGCMWPGMGbMGC5dukRxcTHz58/nnnvuYfTo0YwZM4Y+ffpw4sQJl59jzdWc4+p20OT6vKZ86fZaUGvWrGHOnDlERUXRqVMn5+cBAQGsXLmSXr163ZYXiDVr1tR74x83btxNtQfTp09n586dlJeXExgYyIgRI6o98U6fPp1Tp07d9NnVq1fZu3cvjz76qMvyf+jQIeesg1UqKip45513Wn2q6S+++KLad75Vjx49buqE+dBDD3Hs2DEuXbqEWq1m6tSpZGVl3bTNgw8+iFwu58amTLvdTkJCAo8++iiSJLkk/xUVFfzud7+r1ox59OjRVp+35MKFC/XWSslksptqYry9vbn//vudnYJrOgZrK+OcnByuXLnCvffe65L8A3zyySfVOpUXFRXx1ltv3VHTZbfGdbHqmmSxWJgxYwY7d+7kL3/5C7t27XJebzw8PDh27BgffPCB86fqGuHh4cHHH3/s/PzLL79skXPMFTrycdXkmg2FQtHof1JZWVm7LLBr166RnJzM8OHDefbZZ5kyZQpTp05Fq9Xy2Wef8eWXX/Lyyy9z4cKFGms/XKElnnh+85vfcODAAcaOHcvo0aMZMGAAw4cP55577uH48eMEBQUxatQoevbsicFgoHfv3nTp0oX9+/cDlZF2RkYG/v7+WCwW58l74sQJ58X7xqfKgoIC7rvvPvLy8lxWg3XixAm6dOniHGf+97//neTk5Dq3aYmynDVrFmVlZVy5csU5vfKIESOYOHEicrmcgoICZsyYga+vL97e3ly6dInIyEi2b9+Ow+HAbrdz5MgROnXqRK9evZxP3Xl5eZw5c4bRo0eTnZ3t7BhqsVjo0qULXbp0IS8vzyXfwWKxkJ6eTnh4OEqlkosXL7J06VLKyspq3aYlylKr1fKLX/yCw4cPM3PmTHr06MHgwYMZO3Ys/fv35/jx40ydOtU5kduxY8cICwvjzJkznL0+p0NNx2BtZQyVNTuPPfaY89h2hdTUVEaPHk2XLl2c02bXFwS3t5qN/v37M336dA4fPgxUXtcXLVrEjz/+SNeuXZkxYwbDhg0jJCQEh8PBpUuX6NWrF9OnT2fgwIFotVrOnTvH5MmTCQ0NZcyYMcjlci5cuEDv3r3p2rUrOp2O0NBQgoODOX78ODabjYiICMLCwhg+fDjDhw/n1KlTWK1WnnzySXr16sWECRPIy8vjrrvuuumalJGRQcEN06KHhISQkpJC3759kSSpxgeC++67j5SUlGoPuy1xjrlCU46r20GTazaKi4sbFTiUl5fXWu3dHpSXl7NlyxZiYmJYsGAB8+bN43e/+51ztrvly5fXeVFuzxwOBz169GDnzp18+eWXFBUVMXjwYP73v/9RUlJCYmIier2+2lz8tc3OWNesjdnZ2S5/Bfr69es5evQou3btahdv8HQ4HFy9epWdO3eyfft2JkyYgMViYf/+/Zw7d45du3YxYMAAcnNznRe4ioqKGmv26irLnJwcl5fl+fPneeeddygpKeGtt95y+aiXxnI4HEiSxM6dO4mPj8ff3x8fHx92795NeXk5n332GTabrUHHZm1lDGA2mzEajfTp08dleS8vL+ett97iypUrvP/++5yo54Vk7dHp06dRq9V06dIFqHwJYF5eHiUlJXh7e5OcnMwnn3xCfHw8kyZNcr5ht1evXvznP//h3//+t3NytE2bNvHhhx+i0+mcNcTdu3fnq6++4q9//SslJSUMHjwYDw8PysrK+PDDD/n4448xGAyMHj0a+GkCvQ8//JCCgoJq//cb7yFhYWGkpqYClbNA9+7dm7lz57JgwQJ+9rOfOYfNe3h4MHnyZObPn88vf/lL/P39nWm0xDnWXB3huKpJkzuIOhyO23qCkca6evVqu36vS33Onz/vnIzNZDLV2PFSo9Fw7NixZu3HaDQ2eaRSbSoqKnj77bdpSg1cSzl37hxQd1k2ty3YaDSi0WialUZNDh06xPz589vN8VxVllAZFKhUqmpBUOfOnV1Wnjfur7kKCgp48cUX201ZNsXRo0cZMWIEu3fvZsSIEaSlpQGV5TVhwgRGjx6Nw+HAzc0NDw8PoLLWs+r/0adPH2fTlcViuamJLDc319mUW1RUhEqloqysDIfDweOPP47NZqNbt243/U/O3jAjaU3XJIVCwSOPPILFYmH37t1AZdB05coVMjIyUCgUzJgxg/Hjx7Nnzx527drFyZMnKSwspF+/fsyYMYN169ZRVlbWYudYc3WE4+pWYgzWHaKps762FyaTqV31+bndy7M9XcREWbat9PR0dDodKpWKnj17Op+kH3/8cTIyMvjiiy/46quvbtqm6uWDUP2dMzeq6X87bNgwBg0axLZt29i2bVu1DqQ3pn0rSZJ46qmnuHjx4k2T+p0/f56jR4/icDiwWq1kZmbSs2dPHA4HBw8edPaJOnPmDBaLxTn9eXt2ux9XtxLBRjvRVu24DofDWd3oiijfFU/0zSXK0nXaQ1lC5YVXlGfLKCwspKysjPvuu4+MjAzn6DVPT0/nCLzg4GBn7catzp07x6BBg4DKWodnn33W+S6gmnh6elJQUIDNZkOlUhEYGFjru7ZuPY8eeeQRjh07Vq0T5QMPPEBoaChQWcYBAQFcvHgRLy8voqOjnRO+9ejRA6VS6Qw+2sMxcae44+fZaC/a6iKUk5PD448/zrfffktOTg5BQUH88MMPQGWb6NChQ1Gr1TgcDkaOHMmBAwec7y5QKBS88MILlJaWOqtOAwICSEhIaJPvUqWtylKv1/PQQw/xxBNPkJiYSEREBG5ubs4hxA899BBKpZJOnTrxwgsvkJOTg6+vLxqNBh8fH6ZNm4bNZuOzzz7DaDQSGBjY5q/MbquyNJlMFBYW8vzzz/P555+Tk5PDwIEDMRgMqNVqnnnmGeDmYzAlJaXGMv73v/+NWq1Go9G0eUfA9hhsQOX7fyZNmnTTyKQ9e/Ywc+ZMjEYjx44d4/jx40ybNq3aMOnU1FQmTZrE888/j5ubG4cPH66zf15mZibDhw/nqaeeorS0lH//+9888sgjDB48uNq6N16TNBoNw4YNo3v37tx9993OdeLj40lNTWXq1KkMHz4cqOx4vW/fPmw2G4cPH+bpp5/GZrPhcDj44osvnH1+2sM5dqdo8gyiQscjk8mYN28eX331VZPmFBk0aBCjRo3q0FPuNkZkZCQFBQVNep+Bp6cnzz77LOvXr2/Ua9Q7qqp5XP7yl780aR6Xhx9+mJKSknrfgSS0L829JtVFnGOtSwQbgiAIgiC0KNFnQxAEQRCEFiWCDUEQBEEQWpQINgRBEARBaFEi2BAEQRAEoUUpoHLssSAIgiAIt6eWfCu5KyigcopZs9nc1nmplVqtbtf5c5U75Xu2FlGeriPK0nVEWQquplarcXd3b+ts1EkOOGdXa6/ae/5c5U75nq1FlKfriLJ0HVGWgqvdDseU6LMhCIIgCEKLEsGGIAiCIAgtSgQbgiAIgiC0KBFsCIIgCILQokSwIQiCIAhCi2rWK+ZVKhWSJCGXy2t9dbLD4cBut2O1Wrl27RoOh6M5uxQEQRAE4TbT5GBDpVLh4eFR73oymQw3Nzfc3NwAKC0tbeouBUEQBEG4DTW5GUWSpFbZprGUvYczpJtbi+9HEARBEISGaXKwUVVT0Ri1NbW4kiW/mJ5hUwhqcMDhhteAifxiQQyzQn1aNG8uoQog8vX1bNnyOiEtH7t1cBqCZq3gb1v+RrSurfNy+5P8w4hZ8zFbVkSgaevM3M4C5vDee3Pwr2mZNpSwgOsnvhRAWGiNazWJFPo678UEIQFoIlixppY83C5uLKvaSCG8/vEKIsQB2+JatYOoXN4Ku7Oc5f92ptEl7OcM96k/4FAGRjB1iJmT58tbPm/N5s+sxbPRpqeSa23rvNz+dNGLmUwq6fmiMJvNN4KF84LJTjuDKM2Wow2LIjzw+myRgQ/zRKgW1zxzSOhCtOhTM7ECqqAQNNmp5Lok7bZxU1kJba5ZHUTbrdKz/N9OBRGTfg7ffcPRoopaV7Wc+o5/ZFvoGTGCQa2YxabRk7ByOaXqCFbM9m3rzNz2suOXsbJUy6zgyYhLUjMZ9xG3LAlryOvMDmzrzHQEGsJjluKv9cVPU0rqhrfYbI1iYbgWP/NiFsr2YH4oBD+fAJZGw9qUYFZFq0jLsaJWadD6Qdrm1XyaacU/YiHzIvzACpJkJjN+LZvTzYQt/ZiH014idocBCCTE30DqBisgERziS26Sguj1azCvXMSnetDOWsOa8FxWPhdHJirClq4jtPAi/by+ZsE7qVilEF7/+0LU8QtYnmSEgGjei9GCUs/GBRvJREPEivXMNsfx7DspWKUQFq6PJHPRcpKMgCqMpeseJi02lh2GyjKIWLGGkORFrEz1JTJmHuF+VqxWCakohQ1xCeRYQ1n6cQT7nl3O7lLAN5JVqwL5/P18ZleVlTWOBO3rLJbiWLAxB5AIWrieJ7JjiU0CUKOLep3QQD80GglD4lpW78jFKvkTETOPyqKToCiFTXEJ5NzS7VDShjEvJgp/yYqEmfT4tWxON+IbEk3MjECUViuSZCE7IY6NKQa0UWtYGpBNmlWNn58/vkVJJOT0IzhAg1arIXPzMjand7y+jR136GvpKZJ25TFo0njqfKdthYXaQ5H2xkqpeGx0GasoTNexlopj04WUflqMiatZHvsyyxIhfHIwUuZWtj7qyqcAABLQSURBVGaa0SetZm3it8QnnMGcvZWVG1MwYkHy88Hw+VrWvrOcZQlmwudEoSWQyVF+ZKxdRGzsIhatTSJfo0HCSkrcS6xONlTuMCAEnTGV9FJA0hGi1ZOamUVqpppAnQbQEBRoJVuvJcgfkIYR7J9Lyo4DGPoFEQhIgSH4nclGGaRDBWiHBUL6d6RbAgnSAiodQcpszvgFo5OAwCACDemkGa9/6dIUEtM1hEdoK//2DSXUL5OkFCP+T8QQZd3KskWxxMYuY6s1kpgn/GsvwKwbyipJX3dhS1o0+s0sj13Ey8uSUD8xh3AN+M+IIdIcT2xsLLGxscQbw2rYpy8R0bPR7FrO/2/v/kPbzO8Djr+Ty6PbSc36ZFSi47k/ZK5+Svf4hlS6hw0HandM4epsTB1LBjEHToc9g3rFnUgwaAm5MxgH70RSgbFpz7Q4rGcGGiy+LIars+LA8WxMovPTMnmH1HIPHVK3POTuEa2fhOwPKWl6d2lsRfKvfF5/WfIjPZ/vR8+j5/N8v9/nUTqdJj1bREv0ogX7GBnWKWbTjI+Pk84W0UdG6A3CBqBGaixls0ycu4LTc5Kjt94ge3GCqWWf/kRPm3qrdpf9W2xwmM8d/Qy33/k3dvcP7wohxK/bqNoUmmOlbu0WKKHHHoD8aom1Zu1QL63jRjSiSplVC/ozFxgbTtIXrrByo4IP+G4Nt3kCrZkG9WIBF0A3idYsCr6PbZWJxHSUYAwjsEbe2kA3wih6jKhjUfxpkTVPJ6YpRE0NZ3mJciSOrqgYMQXb+gGWraAbKooeJ1JeYrmqEdcUtJiOt2ZR+1ULKF5dhaMDGED46FHUwlUsX0WPRqgUCjTCrbNWcIhEdYLtSLZfoVhoRlErUfIiRLUguq5xJD7Eq5OTTE6+ypARIKB+aNhK6cLoqlGwGxWTv55n4uISTlcPmmezdr/OcdYoeRpGV6OdXqVMFcD3cL0q5UqjZa7roQTa0qpdZ38Oo3AY/aVjRN+9zrV39193lBDi6RNo4TU+dYrzaUbzUYxYnKMnL3Cyf57x7E3cB0uFMXtgbbZxwO02DVxrsXFgX7NwTsUwekJEysvYRTg5ZKCrOnUrj0sNy1YYNHTquoedL+CZJ4jrBmF1neUSlJQKasLAcKM4xVlsdYBEXCemK9jzH+p1qCyxXJ0kYUapmHAjtw5bmm68uSx9eKmNRyxXzp/j/PLjjyGtfTaPerA/7cOejUah8ULlOtdK7+90MEII0TaNg2Lj3NrHR3noPFuJ6PQ0RyBUwyBSXcdRDAaG+tC8CsUbeXKzN9nQDcKAooZRg4AaJxa0sSoAUUyjTvH+2Ea9iOXqJAc0nGIJ3ylSVvtJ9visFRvFybplo/YmMbGxXR/bdtGTCbSKhe2Db1s4WoKk7mKv+bh2iUAsiak21qmoGtHw/bN5l9WlEtETI/R6K6w4jedKpSrReLzZkxEkbmo4pRJ1fDw/xJEjv2q39jG58lwfJXSk8UjRMKIPzdJSNOJGs6AJ6+ihKhWnTqnk0NV7lHDzfboHUpyKNSMIR9GCgF/GLoeJmc2lokkuTJ6iu1ygHDIefB5ETXSljF3e2ue9n7Tcs3H37t0tX/56927nZ0cEXvg80ffeZvnHmys0nv/iKb70wrM8++xv8yxJTn/2Dj9b/UeulXZhj0g4wZlMkq6AghoKoV2e4ZS7Sm78Cus7HdueEyV5YYxEJEBIjcDYDHHP4erFCZYeM8QrPkoxU0wPGQQUlVBIZ3ImyUZhlvRc8Wk4adsmPpVCCXUww6Q6x/iNAqXBQaYzIbJ58Ku3CJ/IkFFVwqrH9bnrOPUA4Y0TpKaPQx1QPNYXcqyj0Je6zLHCK7zmmajr+caVJ+E4Pawx+2Bsw6VQhJETLt+c8oESxWoXZ7UVFu7vJ6Uila6z6Ctv4gDYZZSR49Ren2p89n4Bq5bia+oiuTpQL1KOfAXTfo0SoPaPMWlc5eWJG/hAvbDC+nAKZXH1Qe9LZTFHfmyEV6eTjcmaTp7cYgV8h6vXB0iduYDheLiOi4Py0Vwt57F7TzGZ6aPqubg1t9kdoYDv4HYNkemPoEaCVN/MsuKCv5hjIZUicylB3VdQ3BvMr9QBBXNk8sHk2uW5BfRUhksJCOBiXcmyXneZnzNIjU1jNieI2nNZbtbhaZ3af8AwjHvBYJBqtbqlF272DqIP+8UvftHSHUQjkciW49uLnpZ2bhfJZ/tILtunI7k0hpkZ8phKX9nTl6sCBI1hJoc8svugLdtlL+yfLfds1Ot1Dh48SCCwudEq3/flVuVCCCEeIcpAZozjYYd8dl4KjX3miSaIfvDBB+2KQwghRKvsOUbTOx3Ek6qwNPF1lnY6DNER+3CCqBBCCCF2Eyk2hBBCCNFRUmwIIYQQoqOk2BBCCCFER0mxIYQQQoiOOgjged5Ox/Eb7fb42uVpaed2kXy2j+SyfSSXot32wjZ1CBr3zLh3795Ox/JIuz2+dnla2rldJJ/tI7lsH8mlaLe9cA+rQwCf/OQncV33ccvumN0eX7s8Le3cLpLP9pFcto/kUrTbXtimDgKbvgvoTtnt8bXL09LO7SL5bB/JZftILkW77YVtSiaICiGEEKKjpNgQQgghREdJsSGEEEKIjpJiQwghhBAd9US/+nrgwAEUReGZZ5555KVcBw4c4O7du/i+L5d7CSGEEE+hlosNRVH4xCc+wYEDBza1/L179/jggw/wfb/VVQohhBBiD2p5GOW5557bdKEBjR6O5557rtXVCSGEEGKParnYOHhw6y9t5TVbFXj+RT73qWc6vh4hhBBCbM6+KzY2qrf53b4/JbbZguOwzpf+6mVOnz7N6dMv8+e9z7N7b48SpDt5humZGWZmvsXM9Bh9mrLTQe1ZauwUmUszzMzM8K2ZCwyb6k6HtKcp0T5S09/lHy4kkEw+ge4hLl0aIvpx/9N66etu7vNKN329H7tUS5TeM1xKxVAA1AQXph8RQwdpp6aZSRlAkL7MDGPmb/p+U0lc+C5nelv/DoylvsV0UgPFZGwmQ1+w5bcSj7H/rkbZ+Anff6vA7/S9xItHHldwBHnx2B8T+e+3+M4bb/DG997hzu99iT/41LZEunXGIN9I+CyOjzI6OspUQeP0KRPZP1qgmAylTKpzf8vo6CivzNaIDw8S2+m49qpwgrGROKVCGZmV1TlaX5J+PdR4oB/jZK9Ge043FAxTw7FsfCAYM1FLFpW2vHcr6tyYGCVrbdPW5FtkRye4sft/YmTPeqKrUXat+k/4/luHSHz5JXj7Gv956+6jFuRHb32H//plnbsA9du8/8tDPPtb2xjrVpQWGB/3adwC36fquHD/i0dsjV9gNl3CdxvfLnWnjBswCCggR8sWuKvkzi3jm2cY1Hc6mP1ApT+VIaqFiah1rNnXmPeTjPVrRLyzjB34V7w/MYkc6SYzDNmbcSaHgxTWfUJBFS0Chfkprtg+0cQYI4kI+KAoHvZClvmiR1/muxwrvML4Ug3QMaM1rFkfUIibYSrLhxiemcabSHPFafQ6TPdXmPjrHDZB+jKX6f3fn9F1+J8ZvWjhKyZnvj1GaGGU88sudA9zKaVBwGFudA4blcSFGQa9HF+9eBNfMRmbGcBOn2f5Iz/roZK4cJnY0le5eGuImZEQVglUVUXTAtjzrzFffHh5he7kq6Riq2QnlnCNIVKDBiHfR1E2KOVzzN2sgWoyfPYUBi61Ww5uCHAAxeTMtwco/s157GPTZLptLF8lHIqgqQ6LEzlufihGRetjJJUkqvgoeBQXsswXXRStj1TqOBo+vqLgFRbIXSnidg8/aEc4oqGpFZaWb2EYGqqmwc0cE/n1ffv1s/96Nu6rv8vy9ff47JeP8unfsNjdep2NZi1y+MU/5IWNH/LD97Ylwq3z67huc1MMGgwe1ygsrSLFeCt86q7b3LFVzMEEwdUlCvt1T+80v05dctc2gYiGe3WK8+Nf59xV6D8eR7EXWbQ9nOUpslf/hYV8Ga+0yMTcTVw2UCJHqL2ZJXvxPOfyHv1DSTR0jicjrGXTjI+nSWeXqaoqCj43c68wtVJrrLDbxHAtinVAMTA1B8v+EZYdQjdUQCWm+5QcjVgUUHqIRyvcXHqHWlcMHVB0k0i5RCBmEAS0Hh2Kb1Pc0IlpQNAgFihRjsQxFECPodeKFB77+2E+aCrVfKNtE0sbjXw8+L+CljhLKmaRnViiovQyPKJhTaQZHx8nPXUTbWiEviAYJ4aIO3Okx88zkV1hI/LRk7UNQI1ssJLLcnHiHFeqJsd7PzwwGCYxPIh6/TzpdJr0bBEt0YtGmERqEHVlgvT4OOPj81TNFIOx5llMRMVZbLzvktfLCd0ml73I+VwRNdHPfq7T92fPBgCH+dzRz3D7nbf4n8cuG+DTX/gzEp/9P97O/zs/34bonoQS7mXk7AnUlSmmLCk1nogSJTE2xoC/yMScvW/PKsTeslG1KVQaW6NbuwVK6LHDJX61xFqzdqiX1nEj3USVPKsWpDIXiBSKFCyLlRtOYzt3a9w/zmumQb14tfFYN4nWLGZ9H98qM9Kno6wGMQJr5Fd1kkYYJRQj6ljM/9RG8/qJaQobpoaznMdLmuiKTSSmYC/+AEv5C04YKko1TqS8RF5NEtcUajEdb22J2qbyUcFuLui53kP5UIj0foOM7jH/Sp6KD+gGXWoULTNJv99YJuj7aBGVUJeKc73UaL9foVjyPuYA7+NVbBy/+bfroagh4KGqSOnC6KpRyDWe89fzTFwElF5OaTWK9ysov0SxEuCEEQELNm5VKDV7pl3PxylXmp9FlbqiE9rHPav7tNg4jP7SMaLvXufau487GAd5IZGkN2jz1veK/PxRIy67hBIdIHO2H2f+PBPW7v5J4V0vaHDq71LoaznGr9jSQyR2tVYmrvvUKc6nGc1HMWJxjp68wMn+ecazNx86dIYxe2BttnE07zYNXGuxsT+sWTinYhg9ISLlZewinBwy0FWdupXHpYZlKwwaOnXdw84X8MwTxHWDsLrOcglKSgU1YWC4UZziLLY6QCKuE9MV7HnnifOhhqoUaybJYxqF/P1CymIuPYf9a69QGXjku3xc7jYfQ8v2aWHxcfbhMEqj0Hihcp1rpfcfu/SRL/wZXwz+B/l/2v2FBkGT1Fg/ldw55qTQeEJh+r6RQremmJBCQ+wRGwDNc3ofH+XhwYSITo/W+Fs1DCLVdRzFYGCoD82rULyRJzd7kw3dIAwoahg1CKhxYkEbqwIQxTTqvzozrxexXJ3kgIZTLOE7RcpqP8ken7ViozhZt2zU3iQmNrbrY9suejKBVrGwffBtC0dLkNRd7DUf1y4RiCUx1cY6FVUjGm51mrtPaXme3OsLeIkzDBoKlG3KSpxeo/meqslQKoGGS8Vx0XqMRtaCBqa+tem1wXAULQj4ZexymJgZbuQ+muTC5Cm6/RK2EyYWbw67KDox3aNSrLbYvv2j5Z6NO3fucOjQ1l5+586dVle3aYEXPk/0vbdZ/vHjCw14nvjvf5rgM0H+8vQfNZ+7w89Wv8e10kYnw2yJenQAMxLBTf09ZvO5jeoqufNXWN/RyPYgLcHxuIqqneVyovnchkN+YoLlzfTril+jmCmmhwwCikoopDM5k2SjMEt6rvg0nbx1mE+lUEIdzDCpzjF+o0BpcJDpTIhsHvzqLcInMmRUlbDqcX3uOk49QHjjBKnp41AHFI/1hRzrKPSlLnOs8AqveSbqer5x5Uk4Tg9rzD7YB1wKRRg54fLNKR8oUax2cVZbYeF+p0SpSKXrLPrKmzgAdhll5Di116eawxUFrFqKr6mL5OpAvUg58hVM+zVKgNo/xqRxlZcnbrSemtoNXp/tYTKVonc8y1xOZ2x4kum6jxL0Wc/ncADnzQXssyNcvuTiug7lssvmL+dTMEcmH0yqXZ5bQE9luJSAAC7WlSzruFRyC3SlMkz3NyeILud43fahu/Xm7QcHDMO4FwwGqVa3VnkpisLhw4e39Jr333+/pduVRyKRLce3Fz0t7dwuks/2kVy2T0dyaQwzM+Qxlb6yg5erip2yF/bPlns2fN/n9u3bm+7duHPnzrb0bAghhBBid3miCaJSQAghxC5gzzGa3ukghHi0fThBVAghhBC7iRQbQgghhOgoKTaEEEII0VFSbAghhBCiow4C3L27u+9mtdvja5enpZ3bRfLZPpLL9pFcinbbC9vUg/tsCCGEEGJv2hP32djtQQohhBBi75I5G0IIIYToKCk2hBBCCNFRUmwIIYQQoqOk2BBCCCFER0mxIYQQQoiOkmJDCCGEEB0lxYYQQgghOkqKDSGEEEJ0lBQbQgghhOgoKTaEEEII0VFSbAghhBCio6TYEEIIIURHSbEhhBBCiI6SYkMIIYQQHSXFhhBCCCE6SooNIYQQQnSUFBtCCCGE6Kj/B/yuypfo3hUaAAAAAElFTkSuQmCC;" vertex="1" parent="1">
          <mxGeometry x="-870" y="2100" width="539" height="170" as="geometry" />
        </mxCell>
        <mxCell id="ZQSnCNjEJaoJJcT3hJNP-127" value="contact" style="text;html=1;align=center;verticalAlign=middle;whiteSpace=wrap;rounded=0;fontSize=16;" vertex="1" parent="1">
          <mxGeometry x="-850" y="2050" width="60" height="30" as="geometry" />
        </mxCell>
        <mxCell id="ZQSnCNjEJaoJJcT3hJNP-128" value="" style="shape=image;verticalLabelPosition=bottom;labelBackgroundColor=default;verticalAlign=top;aspect=fixed;imageAspect=0;image=data:image/png,iVBORw0KGgoAAAANSUhEUgAAAhsAAACqCAYAAAAELo1EAAAABHNCSVQICAgIfAhkiAAAABl0RVh0U29mdHdhcmUAZ25vbWUtc2NyZWVuc2hvdO8Dvz4AAAApdEVYdENyZWF0aW9uIFRpbWUAbWFyLiAyMyBhdnJpbCAyMDI0IDE0OjQ5OjI4SG5TxQAAIABJREFUeJzt3XtYVNe5+PEvw+wBZrgMKoiOUbyAyniBaNBEEyVpsQZNQmpMU21zMKnG1DQ1sTH+YvUkNbWmNiaG1upptbbm0tSUnEZN5BwPWiUqxoAXUMELXiYqqAyXGWGuvz8Q4oU7M4D4fp7H58HZe631zp7Lfmfttdb2MRqN7oqKCkTTffLJJ+0dgsd8//vfb+8QhBBCdHI+RqPRrdPp2jsOIYQQQnRS6po/Ll682OCObrcbHx8frwckhBBCiM5F1d4BCCGEEKJzk2RDCCGEEF4lyYYQQgghvEqSjc6gayJR303Ev73jgI4VixBCiA5Bko3O4HIelYPmM2JMr/aOpGPFIoQQokOonfra/NkoQXR/fDmPPDWOiECouJDHsfXz2LL9JNz1Cj/5y2wirq/gykb++sQvOK37IU9tnMbpmUl8efamRhoqB6B7gPhXFjEmvj/+tmIuZS7jgxXw8L+WM0hza8yXPklm1R9yGj8K+kRemV7EitQc7I3vDcp3eWTjGoYHXv9gNpunPM7XEUt4IXUaegCqqDi+gx3vzOPrI+UA+PZP4dFXZjNwQDCVZ3awY8k8vj5RRffntzHz+7B3zkOkH7HB4Op6HJ/8gFV/2Nt4TAGTueflyVxYOZOzZddv8KPLj7cRb32BLzZmN+XZtV69sdSnH/et3kL/z8byt02Xbtqmof/CffwwIfi6x/LY+sMksnqv5Be/mYz5vx7ivz46Ccp3eXzjGowXlrFy1lq61VPuxOT/5fmn+tcRxw4++d5/kNfQm2BAPLP+426i+nRDW7CFl9/4mqs125SujH0xmceGdwOziT1/+icbD1ga3yaEEJ2cuvFd6jF8EVOfCmbvoodYe7yKwJhE+l9/8rXt4b9/OJPc2vXCqnA2pd56y/Xj7jfeY1TFO3zww41cIoaBY8JQ2zfxz0fSq59Mwnu89PQ5/jpzGRdsAOUNtxWWyJwnFTI2AWgIj09halQ2qe83IemwFXNg0cNszqr6Nk47EAGOinQ+nvICxzS96P/TNUxdOJ+L0xZiYjCjXvk5XQ+8wMo5eXT7yXqmLvw5ppRlAFRcgD4JMXAkj+4JcXChSWfqalc/Y9+Sz5q+vzd5NBYbJ5aN5dcrYngodT1dPxzLxxll1ce6NziunMN/TCIhH/2RitjJdK0oxmFrpNyfHubX6/1AE8O41PV0/2QsH2+tovY1bIjdTP7/pLM78kGe6XPjpu5Tknks7ASps9ZxJfYRfvHiw+TP+QcHrQ1vE0KIzq7Fl1FCBscQeHwj+4+YcNovUXrgA77OPHnDPo6Kcpz2mn+2JtddZ7n+Mxg1II8d76zjYkk5zpK95G3aRCnU7uuwATZwWGrKNtJQcTqr08zET5/EkNipTDVksa4piUZtnGUNPD8bWE5y4pMdmLvE0D0UuGsyxt557F3/byz2S5xe/z7nIsZhvPYj23FkD+bBk+muxGAcXMyJI81INurS702++84uHhjbi+DE9Ux+Zx9JCxehB1QDl5P02zfpUrtzLyLnH2T8+F5AIve8s4vxL3zEQ69vI+nXaQwdEvZtvV2nMGLhLh5bc4zHfvvRjdu8wV6O01KFA3DYym481lf2cMI2jv7dg+iV0J+L+/JwNFrOVv2aWa4dX1tV09+jp/PJ2HGSc0WOmzZ0ZXhsN05t+ZJCq5OyL7/kgLkP98b6NrJNCCE6vxYnGxVH8qiInc2jj0+ie/cgT8ZUJ7/B/dFfyMZU4sFKFT3G+DgMmCmxWFCixhAbqfVgA0F0vScOfcUJLlcAvfujrzhHaU3vueUcpRW96HrXtWtAFTs4diUOY8Jk+lxJ51hrV5E/+Rr/8/Ox/HvXOcrSn+azn9/D5iVvYAZcxz7jAuPo3c+vet/gcdzVO4/Cr89V/1/phX/pKjIWP8Tnf8rD8OwiItQAcQx9eRH6E6/xxcxhbF5/DsOzbxIR0MpYW6yYY/tgYMJkjP3zyM2paryINygh9Aqr4EqxP8OemsjYARWcK1bTpY++4W1CCHEHaHGy4TzwGh8s24Fvwnx+/MFBfrF6NXf3vy7p0Izm0Y0H+MV/X/u3NIUmLYpeTzn/wGCwlVHZ0oDrootEb0pjWWoGpoI0VqRmgMGA0qQ4wxjxm321cc5d+kOunbZRB47j8Y0H+MXn+5g5uYxti5Zx2g6+ih9qW9W3v7ypwmEDtaamZBknMssw/iSRyswdnn2ut9jDqUMQMSoOAGXoZLqeSf/2yo39HMW79uACXCc/44I9DkN/P+g3BYN2D7n/2EElVdgPr+LEpTju6u9Xb0veZs7cgf/3f06fs+mca2q3lMf5oygOrDY90fcNZHikGrsdFI26kW1CCNH5teLbzsbl7b/iH9t/Bbp+9P/Jezy+8OeYUn7FRQBbNtvmzCO3tue6mCYNh6unnF9FGWiC8Yem1dMU5hy2ZwHaMAryzdithWzPbGJZWzG5K37A1iPX/l9RTM1vakfFHjbPfI3TXRJJXDiDiGvXKpz2Khwav+sOuh9qDThs3/4at2Ru5MTkcZzILIaY1j7BhlRxZdcOfJ+djP7DEwSNiuHyrheuS3CqsFlr4iqj0hqMXgvYw/APGcc9y/d9W5XiR3GTMjQvOZvO/gOJdPtsB47AKe0URCV2uxotp/nwhXcAX0bfA3abo5FtQgjR+Xnmp1XN2ISEGPQK1ckGVVRcOIml2b806y5XdeIE5og4DDq47OlB/NYc0tKbX6yy5ByWi3Vd56+i6oqJ0ovr+Nd/jeP5Z2fTPfNXXDxzAnNgHCE6qjMmXS9CAs9x8azt28TCsoktL2wCNBha/ITqUFcycPIzTCwnckgeut55nF1VfN3GYDQhfnChCghDF1KF3QrYi6m8tJGsX7zGFU/G1yonObjkcQB8x7RTCPZSzhUHEmXwg+NVQDd6hTm4ssMMdurfJoQQd4AWX0bxHf4ciZMeoGtoECj96P/9RPQXTnDpuiRBrdHgq3z771t+oAmqZ1s95Y6sZf+ZGMa98kO66zT4hsYycNIkQlr6BNpIVeYqcjVTeGB8NzibzokLcYx6+gH8lG4YnppGrws7yD3h1QiwXyrDv1v/OvKNbAoPVWF4ejZdznyG6ep1m5QweiZOQYsf/vHTiGAPphNVcHIjJnsixu+Orq5P3Qt93GT0Hklb/ep5T2iqL0FRfcnp5vdL/VparhGKL1yrSlFqBnle5kDOJfo+fB+RWl+C77uP4frT7M5xNrJNCCE6vxafIpwVVQROeJMZP+2Fv6YKc146W996h8s1O2hG8+i/jvFobYk9fPK9p8gD0PTnoTUHeah2WzH7XxrLlisNlLOfJGvRC6hfWcQPN76JP8VcyljGx5ta+gzaiH0vez87x/NPzaDr9rfYsWQZ+oXv8dL3/XCc2cG2Je9wEejuxRDK967FNHY+Sb9fhPPSRnYurh4kClWYd+3AmTiNsk/Tb5yFYz/HFetkEn6/CH97Hif+9AIXHADZ5P5uGXHPLifpiTB87WWUndjI/kOtnerqR+TcXfy/ud8+cunDZFb9Ke/GdTbmH+T/zb+2zkaD9WnqL9fwkjINi5nIrxaPoCsAvfjNhoc5++kqln54mYsb0/jU8ARzVo9CMZvY+e4/a6e2NrRNCCE6u1Ys6iU6heAZjF+ayIl5P+Bsbc9GIve8M5/y3zzE0QvtGZwQQojOQJYrv6P5oU+cRtDRjVy42vjeQgghREtIsnHHSuSedw4yftQ5Dv3jsyYvZCaEEEI0l1xGEUIIIYRXSc+GEEIIIbxKkg0hhBBCeJUkG0IIIYTwKkk2hBBCCOFVkmwIIYQQwquanGzITBQhhBBCtIT0bAghhBDCqyTZEEIIIYRXSbIhhBBCCK+SZEMIIYQQXiXJhhBCCCG8St3eAQjRUbjVvviGd8GnawiqIC3uShuuS2ZcxSVwtaq9wxNCiNtWbbLRvXv39oxDiHbjxo3N2Bd7XBSo6u7s8z3xDf578/BxONs4OiGEuP2pgUbv+CpEp6X1x3/S/fj26dHgbs7+PSnvEkjV55m4TMVtFJwQQnQOMmZD3NE0D97TaKJRQxUajN/kceCn8XJUQgjRubTJmI0uXbq0RTOiA7ty5Up7h3AL30GRKIP7NquMKkiL5sGR2D7/0ktRCSFE5yM9G+KOpcQPqXuDbwjjRz/DjqQ4AusqN2QAProAr8YmhBCdicxGEXcmtS+qsNBbH/ftzcuPTGSozdFgcVWPbjiPn/VScEII0blIz4a4I6l6dMNHVcfNBZ0m3vvXn5h54CLlDeQbqp7dvBecEELUw+12e7Sumvo8Ue/1ddxcn/RsiDuT2reeDU5sTmj+EFCFMGM88bFG+obrUOwWzKZCsrN3kVNobV2sdxBfX18CAgJQq9X4+vqiVnvmK8rhcOB0OnE4HFy9ehWnU6Ywi9uP2+326B3YfXx8ahMOT9RbU1/N39drwidZS+SYZJIT44gMV7CbCsjc9Hc25RRjb3VoQtxIb0wiJSURZdNi3tpurn5QG8/cpdNQtq9jzaYczB5447mLSlpV3nVd+bDYaaSkTGBUL90t+02ankJJfiYfr15LekuTDrUCDg9+2tRuFIePBz6/ahKih5AUeF0HqauMTw8fZ1fDV6HqpNFoCAkJQVXPWietoVarUavV+Pn5ERAQQGlpKTabzePteJS/HWOoL7nnO1AHdPRwVD/pB9t24vriUntHc8fxZKLhrTrrq6+RZEOLceYbzDWa2Pz+OtJMFnRRY0ietZTYTUtYsrlQEg7hMfrxC1n5Qhw6gBkLeT3BjkZjw6IYiOsVCtN/SVzsWn62eDOtXenCbbmKq8KKKlDbovLVyYYW47RfMv/xaG5NM2poCI1OYNbSKIyr32LFdlMzW9Ji//F7OHY9R0C+Jz5tLhJ/dJ7oTAOp+a2tS01Xxcn+YwfZfBVAx6PG3nRVA81MNgIDA9FqtTgcDsrLy7Hb7bW9D76+viiKglarRVGU1gaNSqVCr9djsViwWCyN7h857V2WTgpvYu128jf8jMWbza0LUm1j2owLPN5Dzda/RbAm3wMJR4/56AftwZyxo+V1PDAEH8UKT03B96HDuN7Zjdvk6V4iBX2YHszFHvlhITqGhpONqCeZGWdizcsryKr5UWYqJDe3mNeXziIxawGbPby+kaIoxN0dj3+AP2pfNQ6ng317d3P1qnRFd3bmrHSyS+IYGwro+jLklskiFnIzMludaNSwZ+Xi9+A9zS+Xfxr3lVIMSUurE42SfLJNWqKH9Lo16bAVkZ9bhNY4hLEvLMRufpnUnNv0vezfgwUxBiKuO+8pKhUMvpvR1/3fPmQkD9bu4eKCKY+l5yvrrVZRFAICArh69Srl5eW3bHc6nTidTiorKwkMDESnqz+1ayofHx90Oh02mw27veEzmqLRoNE09cKaBg2tTIjUdpJmFDFWrcZS4YPxiSJS/tqddWdb+QtU1x+l67nW1aH4wqksnK9V4TP7IVTvTsP94TZcnzQ3ib6ZnqjxSUxKiMcYHY7GYgGdDsyFHM7KYHNaOrmtzN9E+2ow2TDEG9Fkr/420ahRnEF6/nQSjVo2b/fcF2dgYBDDht/N/q/2UlVV/eWkUqkYNXosp0+f4htTBx/9rwqlT0wwZXmnKXG1RwD+dI+Jxv/MQU5XtEf7raONjie6doKIjZJzhZisCobIvoRqAHRExhnRb8+kse8d37smE3pXGKpGvvevljpwhdz6uO3cJibV8b3stlzF9sVuCEti5vTqHo2SnA0sSc1FGxlPXLiFoiIzdvToDXrsuZnkmsNIXvpHpkeHkzBrOhk/W0Pu7fiLrfI8v80uIWnwQILPHmJjRQMDynwCmTL0LsqOHWFzZf37+fj4EBwcjNVqbVIvQ0VF9RvbUwlHcHAwV65c8eigu9ZxkPijIiaVd2HJ9qu8PiaAJZmVLPxxEclrw0k77/lu9BaxXMK9/O84774b1ezJ+N5fgOvd7bhPNb+XQzGMYdbcWcSSzeaPU1m3xAT6UBRLEfbwOMZMSmbuyiRyN6wgNV16029XDSYbep0OS3FdyYQds9WCJlQHeC7ZMA4ZxpeZN3bxuVwudn/5b0bG39vMZEOFtvsgjAPCCNSocDkqqThziP3ePAurtXQLC6WS095ro+EACAoJQXPtBBt41zB6246Sd7GDX5sGIJLklATCAWyn2LRsCetyasZsGJn2y/k8Hq0jdOx0pqZnsaahs7V6MgN+8R5hWrCdSKfkcv27BqqqKCYPF42f6NwuN5WbdkKVjahJkxhS+2O3+oBbC7PILKx5zASF1xWuSXrCE0ges4FcDybpbcnhdgEuHC4XVxs6P7uvZdsud4NXVDQaDW63u0mJRo2Kigr8/Pw8MnhUrVaj0WioquoIN9pzMuapi0wlhMUfaimKvgqAOb8LS9Iu88aPi7GsDSe9I62W//XXuJ4/ic+z30H12x/j/tc2XB+eoakZgWJIZOHrU9FkLGPe+/noxs9i4Z/jCbdYsOl0WA5vYMWKBWRsTWb+/Dd4Q7eIRWmScLQ5tQF78nyujtSgSX0O/xb87q/702pI5JVXphPXS4eGlXwyvb7iK/nTmAzWLFlDViu7uIJDQvDxqf+6ZEV5Gf0HRHPieBMvNGt6MDgmhPKc3ewrsYHaH636djjpeoqKgJBQgso70OCyOukZ/8rrPNlXh/7aZfFTm1Z8m2gAWHN5/+2/M2TlDKI14STMX0lciYlNby1hc529t8Go2cHJv0HPiXD59zO5UlZP8xEziPlFCiVZGynrY4Z6fuHaj5zCtnU32B2AgfjYmmv4p8hIy2nkORaTsSmb5Bfi0KEhOj4OZXtmp/jCVOt6M7drCSvOlENQH+aGXmLFGUuTh2z4+flx9erVZrdrtVoJDg5udrm6NC3ZKCF77Qo26acz//FoOLWJZetMJM6dxajQIna99zYZhhnV21pIO+IK04OCWbI2EBPccDGmOK8rSwKKWfhEOdl/CPLYpUSPsJtxr9qIc5sR1c8fxnf0SVzvbMed38j3rT6eWQunQtoSFm0uRImdw9In9Wxa9BybC62gGBg/dyEL55j52Yo0liy2MH/hfOYWLeCtzOaecPTEJqfwZGIckXoF7GYKd61j2ZqsRntJb6xmDHPmRJKx5H1ym7K/Nork+fNJNK1g9pomlehwXDGzuPp4As4gDVDU4nrqTDYiE5Mw5L7N7AWFDc8BtCnEvrSUpPgNZKW37pdaeHgEFRX1nRGgorycnoa7mp5sqFSoceGwX/vac1RirfkGVAViiBlMZIg/apWD0vNHOXy8BAf+GGJH0C9IjUrloMKUx4HjJThUXYkeMYjuWjUqHFw8uJujpf70GGSkX5gWNQ5Kj+8npxjwDWXQmHEMUoGrspjjh/I4f8Oh0dA9Jo4BYf6ogUrTfvYeryS4TwyDe4WgUYOjpJBDh89S4QJtjyEMHdAVDS5c5SfZn3OeoCH30698L3tPVwKBDLg3Dk3+TvJu+QWvIijyHu7vDa7S4+w7eJmQQcOJ7q5F5XJRef4A+47Xf8zbhkJoeC/Ca8fflVCYU0cGUZxPfhFE9wKNLpxwnQ19I5dIKjNf4EjXjzD+/E2O/PY1ym8+pwVPJuqns/H5/GkuZI1m8C/jOPf2Eizd9NW3mK+y4youufUW84oBQ028JfnUFe7NzLnZmIgjGtCFhxMO3FIsNB7bcAM3pjs6nGEa3MOfpKrnTb/+r55C2ZtT/2I5oVdJGma/6SPsxhjuQj+8jOSbbwlTqWHXXv/mncgUDd2vdaUpih/dmzmAU1EUrNbmf3c0Ns6iuTE0hcVsxsy1E6jdjMVsoSYMu9WK2WxrVQJp3R/G7P31bzc1sr3d5efievEMPk99B9Wvn8D9n+/jOlzfzgaS5s4kMmsFCzYXYkchPjGWorR51YkGgN3E9tQNxK9MYqw2i3RTOsuW6Xhj4XySTYtIK2zq0VYwznydl4yFbHj7Z2QUmLFrDRgNtuYlGgC6SCKjw9EpNNp7EzZmDvNTjCh2TR0fdu/T60MJDAzk3LnWDT/wCdBDSRZKURz2/i2vp85kQwHslmLMVvN1V0m06PV2zDcNDzabQaNoaO3llJIrl4mKHlTvdl1gIBbLrYPH6lV5nuOmngy5ZwyhF89w5oyJixUOQEVw9FB6O46yN7MEhyaMIffE0K8ok/yySkw5mdXvC013ho2KxnBuL6dd/gQFWsjfkcNFF9fqiGOA5gzZO89S4VKhUrmqj6azhPzdOZx3qAkddA/DBoRx8WAx3w7hUOMfpKHk8E7yLlc/qg4bwtDwUg7sPUiFyx/DsFEY77rM3tN+9O4XQvnhneSVuGpvfx7U5IPgorxw37WkBNAOoF/3Ko5n7uOio967qbczHfowLbe8n5RQ6lrws2FlWP45k/yQjxg8ZwaHfruW2nxDPZpeP12E7vA8Dv1vHu7g0fiqfFGdv4Tz/CUavvJ8/clJg9KELx401w0bVOqZAaNWcPvrb6weTXV7agWC9DdX2nCbatAHuNHc8Cl3AW4UtRN90M1vgLYft6BWq1u05oUn18loWrIRytiXVjK25r/R0/nNypr/VPe2JXgsIk/wwzdyMqqijdjr/WoOQz1gNO5Tn+Gxw2m34j5XBjY96Hyhvk9SWCzxfc1kr8u99tHRodeBueimhNpahNmuQxcKWMFeuItdxckkxIWTVtjEM7g+kakJkLEolfSCax9Uq4ncgmubY1OYkzKG6FANtqLDpK1OZXOBFSUqmflzkojWgc2ez4YFb7EdUHTxzFn1J2yYyVwxj4zY5bwRn8uvXlxHwXXNmk0ZrFuwFlvy73jp+niMKSyfM4ZwnQYFG6bDORSFG4kO16GxmchIXca6HHPd7TcxOwoKDmHsAwls/WJT0wo0wGf/MnT7wZH8R88nG3VR4mexPDGb2Uu2e6X79/LlS/Rz1T+qsnefvny5qzlTthxczt/LzjOhdO9lIHLEGCLPH2R/vp2Irjo0qhhGda3eU6VWURqghgoN3aMHExla3eugVoNNA9wykF5LRFcVJfkmKlwALq4PvfpvByXF5TBAiz91pWLfFggJ64pGG8rwUb2uBQTYAoBSiksgJjqGAWfOcO5iGZWtWfS1sojLlcPpNyQa9dkznL9c/wyBtlPM1mU/I0sXxbQ3XmCUTkNc8nSMWWvIrT1oClFTpxKnA7BxeO0C1uRYKGnSd805zOtmcuYX6zH+FI78bSOVShzdf7SciLJlHPj7jkYSizrYizCbgXAgNIq4SMgpaLiI3hiL4drfNrOJOlf5KM7E74vMmx7UYg+Lx7F/A37NnfpaHMD7X9x8DxcXiWFWoveHsq7VU19bz+Fw4Ovri8PRvLmyvr71LcrWshg6I5/eM9CPi6P0o9ew3XKVKBj1A+sJHZCN+dRnzf8M1CW8Nz4vjkfVy4p71UZcexuotXgzazbE8/rcmeQsWEOu1Ux+oYVJY41oc3Jqvy+VqLEYKWRdEYBC1LT5JJPGkk1N7ypQoqPpaymouyckLJG5L8VSnLqAH2eZMSTO5/X5MzDNXo0uOZmwnEU8s64Qu6Kg2AEd2C1ZpM5eQda16hRLGn83Fd3SeWEvzCUXiLo5Hn0Y4ebNvDw7jWL9eBaunA6pP+PZLDuG5DdYPj2B9JxNRNbVfhMEBYcwbvxDfLHlMxyeXJ+nlZoxwkppwaqKzXPyeD7jxn+HPbt31c5G8fX1Zcz9CShqBYul+YM7XZUlnD9ewsWiQdw7og9hJ08CdkqO7uZg8Y3JjcYwnEFBl9i/9zQVrkCi7x1e/6m9Ked8lwuXSml8VxU4Lh4m8+itp6DLebvZGxxG70gjo/qVcnjv0WtpSguSDlcZx/fu5kKYgcgBo+hnOMregxdp75Es1mIT1mITH6dNIm56XzS9JrDwdwYyd2Vxyqynb/xYxgwJr37/nUtnQ3ohpmZ9hvK4sGImrh8tYuDin6OhmPLsZRzasLGFiXMhOfkWJoTrgF4kzkoha9G665KjGymGROZMHVL7+THl5HpwWPXtzW63o1arm33C99TKojUxdD5VOP49k1LdR4RMWUTJR29cN47GD98R6wkddI6yj17D3upMQwOTx+P7VB/4+kucv86lCeOtMaUvIzV6KXPfSGHFonXkpr1P/tI5vDF3M5syTdjD4pmUbMS0YRE5di1RyfOZP9bEmgVpNPkKCnCtr77OLVpjPNFF20nNKr4WUxo5U+cyNtrO37Py0U2fwxxbGps2Z1FQT6+CvTCTzYXNiec65lxyTTqMih2wYzqcT1GSgTDs5Dex/esFBQUz9v7xHS7RgA62XPnly5fYs3sX48Y/hKFXb6qqKrHb7XyZuYMBUQMZGX8vX2XtblplKi2hgS5KyypxoUKj06ByuXC4KigucTEssh/BJccpc4BKrQaHo3rlQpcDR81Aeuo7pVspvuxi2F0GAkuqx1aoVNf3VTRPaXEJqug+GM6UYrK6QK1G7XDgQFXdu1J2keOHHfiPGUSY1kVheSX+4WFoz57GekOj1RGr1SrARZXDgSYoCDWVOFQqcKlQqxxUFJ8mr8qPe+PCCFFdpLhdpuneqnDTBjKTfklCKGjCh5Dw+JCbuqYt7H1/AwUt+Qw5silal9yK4U3Xs5OdvouisWMxb03jVN9k3vhjLIezs0j/+GMyr2VC+thkpk8aQ6yxZuouYMkmPaNDDe9rHZeTq+7q05jd4eRqA72TdXE4HGi1Wiorm9fLptW2bDG2+mLonM5h+/xpyiatJ3RKMSUHAPxQG9cQOqqMig0vUNXaIVuGvqh+Ph6fcDOudz/CvbcZl7qxkpO6hHVz32D+78L4+9trSH15GQlPTmJsUiyKxUTGigVknNKTOHch043FbFic2uzJCPZTBRTpxhNngJzCppcr3r6E2bmxJCQn89LKqWQtm8c6M9DadVRujK76x15NlXYbUH0ptc72G5sz7wNeWGTUI5qcbNiLcsjKNXmu/bRWAAAfUUlEQVR9BH1VVSXpWzff8rjp3FnCwrs3vSL/EAwD+zEsUIMKcFSWcP5wHsUuFxzN5njMYIaPGYcKcFkLyd53morzxzF1HcQ94/pdWwHRypk6vztdlOQf4HiMkbj7+6GierDl3sKWPGNwXMzjoH8M0SPuZ4AKcJRwfP9BTJWBRI4YjsG/egqwreQkh8qgsuIIJ0ON1XG6XLgcFZypAqjkwrkK4gYNo0dpDufPnKRkeAz3jwOHtZDsXBcDR/QjEBcuHJSePMTlDpJoAOjjJxHf4LgMHXFJCYRlpbf7aHx77sds2BvPSwljyFqyjA1JKYwJ12Ap+fYTYraHERvXl2+fko1TaRtI70SLEznKTvHLmhNW2Ylv/26iyspKtFotOp2uydNfAwMDPbKSKFC7WFhDCtbN5vvrABRi56zilwmhYDnF1tUrWJfpve9Eu8MHi6O1Z44TVG2aScWU9YQ+6IfKN47Q8HNU/OMHXC1rzXRfLXx/PL5PGWDnTpz/ebRJvRm3KiZzxcsUJc5i1vyVTCo+THZWDrvSzdh1BqIT57Iyri+W7L+zbN7mli3sVbyVj7OSmDN3Dvkr1pJZaAUljCgDFORmkT8jiSfjM0jNsmBITCaWXFLzQdFqoTiH9DX5YPgzibHhsLkYixJHVLhClgkUxQ6GMSRGFpGxvcCjPZZ1tp/b8OWj8rIyMnfu4HsTJ/HF55s6VO9GncmGHVB0ehSu+yAVppNaePOeWnRasLXR8ykuutj0na3nObzvfN3bXBWYDu+7dYCwo4TjObs5fksBE/szbtrbVYHp8N6b6ii7cb+SPHbe0hFj5fTenTc3TMnpg+y9ZXmOMo7v3XlrPK4yzubs5tYxxi4qzu5nZ80G23kO777xGOzf2XEXRjNnb2DtVh3TJ0Rj37qIn607haLYsYdPZenSxwk3ZbBhw64mJBpVLe5laka0ZKauIPKN+SSnjGH16hUsM1swX/9tY7Fggdpko2hXKsvSCr0eWVtQ44O6oQGlTTxHulwuysrKCAkJwcfHp3bRrvoEBQUREHDzOJSWcbvdlJWV4Wpyb4wdO3ZK8jeR+va66tln3nSyCy+e9ERFeVxNmwlT1hPSsxjrxqe5WtyKRKPXIFTv9MNHZ8L1n+/jPtzaU6yVgvQVzMvQExVXfTPDeKMOjcXMqfx03t6QRUFxq+b5kJW6mNXTU5i68M/M0QF2C6bsDSxbkc6KVANzpy3nr3M02EoOk7ZsNTl2hfhZv2NOvA4bNuymTDakm8BcQlp6AnOW/pUJmMle/TJpkck8GZ9L/vYCGhm61QwKcTPqaL8JSkvN7Px3hscTDnXacwSntby8j9FodN/yAY9MYuH8JzGG6xoZp2HDciqT1UtSaWjac5cuXVoeoegUrly50uR9FUMk4SWFmK4bIBoWGY6l0NTEXw5x9PnVGoKzl3H2WFkT5lj4ocTNpt9dn3Fg6Sqa9TWsGBg/ay4zEvqis+xi2TPfDhwjchrv/u5xetmKyP44ldS03OZPtYPqGSqV5qaevxsP2d+FUqlq4a8wNQnRw3hC34ROUYeZDw7mN+mmbDXLkNvtdqxWq1fvjVLDYrE0mtzcTB8ZCYWFLXod251vf3x1xTjLWnHt5O7x+L7YG/eenbj+dKrJi3eJtuepqa+eUney4WGSbIjmJBue4NN1MobvTyEkJLgJQ2mrcFzK5ptP3qG0hV3LiiGexFjI2pz1bc+L1kjihDBOZWRSIHeUapRarSY4ONijCUVd7HY7ZWVlnXishhAdjyQbok20dbIhbl9+fn4oioJGo/FY4mG327Hb7dhstg6yNLkQd5YONRtFCCGqqqokIRCik5FkQwghhLgN1Nyd2MdD81tvvttxa+t1u934+PjUGackG0IIIcRtwFNJhrfrq6veDnl3DCGEEEJ0Hm3SsyGDA4UQQog7l/RsCCGEEMKrbujZsNlstwwYEUIIIYRojdqeDZvN1oxle4UQQgghmkYF1Xc9rJmyIoQQQgjhSSqg9h4EQgghhBCepoJbF/YQQgghhPAUFXh+YQ9xe/HTuAnWyXgdIYQQ3iEriN7BVCo3s79fRrDOhc3ug9bfzaqNwVwq9W3v0IQQQnQiss5GB9Eel7Kmfa+C7GN+/OYvev6wMZg1acE8/0TZLfs9+uijTJ8+vc46fv/73xMVFeXtUJulvS4LDhw4kJUrV7Z6H0+UEUKIjkR6NjqI9pgN1M9g529bgkgYeZXJ91t5aUVXLlz2pZveySXzt70b//3f/92mcbWWzKwSQoiORZKNO5jTVX1C3pntz9dHNQD4+IDjpslJU6ZMITg4mLVr1xIVFcXzzz9PSUkJFy9eRKXq/J1jSaGhBKvVfFhc3OQy/fv3Z9asWVRVVaHVatm6dSvp6elA9Ripn/70p0RERBASEsJ7771HQUEB3bp147nnnkOtVhMQEMDevXv55z//6a2nJYQQbabFyYaPjw9BQUH4+fmhVjdcjcPhoKqqioqKClk4rIOY8mAFR05WJxgOpw+lFb707m4nWOfCXF7/mI2f/OQnfPLJJ+zatQuDwUBSUlKbxBsREUFFRQUVFRVt0h4Abjd/io7G5nLhp1IxITSUZ/LzacpE8W7duvH+++9z4MABAgMDWb9+Pdu2bQOgT58+/Pa3v+XMmTMkJCTw7LPPMn/+fGbPns3WrVvJyspCpVLx9ttvk5eX55XLQtHR0eTn53u8XiGEqEuLk43g4GC0Wm3TGlGrUavV+Pj4UFpa2tImve7+++9n3LhxREREUFVVRW5uLp999hnFzfhFezv4cVI55nIV//q3jhGDq5h4nxWHAyptKlZtDG6wbP/+/cnNzQXAZDK1ybHR6XQsXryYS5cusXjx4rZLWH18mFlQwNroaFRAShMTDYCioiKmTp3KxIkTcblcKIqCTqcD4OLFi5w5cwaA3NxcZs+eDYDRaCQoKIjk5GSg+nPTs2dPTCaTR5/Www8/zMyZM1m8eDEHDhzwaN1CCFGXFicbfn5+bVKmLQQEBPDqq69y8eJF/va3v3H27FkCAgIYOXIkixcv5sMPPyQzM7O9w/QAN7OSyyk8r2brHi1Lf3qFkyY1v16np/r83fg4h5vHQ3h7bIRKpeLVV1/lrrvu4q677mLWrFmsWrXKq21e796gIDZfuYLD7ebe4GB2ld06gLYu8+fPZ/369ezevRuNRsOYMWNqt12fLLnd7tqeC7fbzTvvvMM333xzQ10DBw70wDOpNnz4cGbOnIlarebVV1/l5ZdfvqU9IYTwtBZdcPfx8cHXt/nTI1UqVYe8xv/iiy+yc+dO/vCHP3D69GlcLhcWi4UdO3bw6quv8sQTTzBgwID2DrPVRg+p4kqZioPHNbz6dAlnLvjyX58G43L50JREA+D06dMMGzYMgH79+hEWFubFiGHWrFnExcXV/j8pKYmHH37Yq21eL7O8nH9cukTa5ctNTjQAQkNDOXHiBADf/e53cbvdtZcbu3fvTvfu3QGIiYnh5MmTQHUvx/jx44Hqz8ozzzyDXq/32HPp2bMnr776am0cQUFBLFq0qLbHRQghvMU3PDz8P69evdrsgkFBQc0u4+PjQ3l5ebPLedPgwYMxGo2sX7++zu02m438/HyefvppMjIyvBZHW8yguKu7g1FDqhjSz87B4358mN601zAmJgY/Pz+ys7M5c+YM//Ef/8H9999PREQEbrebr776iitXrng83qSkJH74wx/e8nhcXBxHjhzh4sWLdZZrr9ko3bp1Iz4+ns8//xyn00lKSgojR46ksLAQl8vFgw8+yMGDB+nXrx8RERE8/PDDxMbG8sc//pGSkhLy8vKYOHEiEyZMYOLEiZw5c4Z9+/bdUG9LBQYG8uabb96SHAYHBzNgwAB27NghKwkLIbzGx2g0ui9fvtzsgj169GhRg+fPn29ROW9JSUnh2LFjfPnllw3u99577zFv3jyqqqq8EofL5WqDXh83+qDqLvyyChUud8edHqrRaHjsscfqHXxcXl7OZ599Vue2tjmWt5fY2FhiYmLq3b57925OnTrVhhEJIe4kd/zU127duvHvf/+70f2Ki4sJDQ3lwoULbRCVt/g0ONOkI7HZbHz88cftHUankZOTQ05OTnuHIYS4Q93xP/9KS0sJDQ1tdD+9Xt+20y6FEEKITuKO79nYv38/Y8eO5auvvqp3n+7du+N0OiXZaEMajYbnnnuu3unVFy5c4C9/+UvbBnUbGz16dO3g07ps3LiR48ePt11AQog7iiQb+/czZcoUhg8fXueaA2q1mhdeeIEPPvigHaJrnXnz5vHuu+9it9vr3WfAgAF88803WK1WoPqy0qOPPsqGDRuoqqoiKiqKRx99lN27d9dO//Xz8+Phhx8mJiaGN998E4CQkBCmTp3KBx98gMViaXXsNpuNzMxMFi1adMvMJ4vFwrx581rdhieNHj2aLl26sGXLllbVoygK06dP5/PPP68dZ1FZWVm7ffXq1TidTmJiYhg7diyKonD58mXS0tLw9/ev9zXYt28fjz76KEOHDr2lzS+++EISDSGEV7X4MorT2dTljVpXpi0sX76clJQUkpOTCQgIqH08KiqKJUuW0LNnz9vyXhvLly9vMNGA6pPk9b0HU6ZMYcuWLVRVVREdHc2wYcNuORFNmTKldlpnjdLSUnbu3Mljjz3msfj379/P2rVrb3jM6XTy1ltvcfbsWY+101TefA/U1P3d736XI0eOcOHCBfz9/dm2bRt/+MMfav85nU70ej3f+973eP/99/n973/PpUuXeOCBBxp8DZxOJ7/+9a9vGaB96NChNl23RAhxZ2rx1Fe1Wo2iKM0qU1lZ6bXZHK1x9epVMjIyGDp0KM888wyTJ0/mkUcewWAw8MEHH/DPf/6TF198kW+++abe6Zat5Y3pmq+99hp79uxh1KhRjBw5kv79+zN06FDuvfdejh49SmxsLCNGjKBHjx4UFxfTq1cvunTpwu7du4HqGR+HDx8mMjISm81We4I/duwYV65c4b777mPnzp217dWc9M6dO+exS07Hjh2jS5cuteuc/PnPf250CnJDx/LVV19l//79OBwOAH70ox/hcDioqKjgiSeeYOTIkcTFxWEwGCgoKACqj6Ovry/3338/Bw8eZPTo0Xzve99jxIgRGAwGjh8/jsFgoGvXrhiNRsaMGUNcXBxHjx7F4XAwfPhwJk+ejNFoZOTIkRQVFVFeXs59993HiBEjiI+Pr13bJSkpiU8++QS3282wYcMwmUzcPFts6NChOBwODh06BEBZWRkPPfQQe/fubfA1sNls5OTkkJCQgEaj4fz58yxcuPCGnhMhhPCGFl9GKSsrw9fXt8mrglZVVVHWjEWR2lpVVRUffvghH374YZ3bFy9eXLsQ0+3G7XYTERHB6tWrcbvdJCcnM2jQIL766ivuu+8+Nm3axKVLlxgxYkTtCRaqT051sdls+Pv717ktPz+fqKgoj05xXrVqFQaDgW+++abVd6DNz89n8ODBfP311wQGBhIREcGxY8fo1q0bR48eJTs7G6heTKxPnz6cPn0ap9PJ5cuX2b59Oz179uTuu++uvZzx2GOP0adPH6B6bM+aNWuw2+1MnTqVQYMGkZ2dTUBAAJ988gklJSUMHDiQ73znO6xfvx6Xy0WPHj1Ys2YNTqeTYcOGUVhYWNsDGBAQwIgRI3jggQfw8fHh66+/5quvviI4OPiGz1JZWdkN69409BqcPXuWt956i3nz5vGrX/2qw617I4TonFqcbLjdbq8s5NRRlZaWduj7ujTm7NmztYs2VVRU1DnwUq/Xc+TIkVa1YzabW7wGS32cTidvvvkmLemBu9mBAwe4//77+frrrxk6dCiHDx/G6XRSXl5Oz549iYqKwuVyERgYeMPKmqdPnwbgrrvu4uzZs7UJwaeffgpUJxqFhYW1l61KSkpqj3FpaSkTJkzA4XAQEBBwQ70mk6m2Lr1ej9lsrt321VdfYbFYKCwsJCQkhJSUFC5duoTT6WywF6yx12D//v0899xzt/X7WQhxe7njp77eKW731SErKio8MubnxIkT6PV6goKCGDp0aG1PxoMPPojT6eTjjz9m48aNN5z0gdrLLj4+PvWe6Os6xsHBwTz66KNs2bKFjRs33rJ4XE29dcnNzaWwsBCoTlgKCwvp0aMHZrOZkJCQ2v1CQkKa3WsoiYYQoi1JstFBtNcA1Ovv2WE2m1t9L46bf523h8aO5aFDh2pvjFazSFtgYGDt3waDgW7dutV5/58zZ87Qt2/f2vFKkydPZvDgwfW2pdVqqaysrE0Ghg0bVu99hW4+/k8//XTtJRp/f3969+7N+fPnKSgooF+/fgQGBgIwYsSI2vEb0DFeAyGEuN4dP/W1o2ivZKOgoIAnnniCL774goKCAmJjY9m3bx8A48ePJyYmBp1Oh9vtZvjw4ezZs4fRo0cD1YOEn3/+eaxWa+2aF1FRUaSlpbXLc6nR2LE8cOAAs2fP5osvvqh9bM+ePSQlJWE0GikqKmL79u088MADt9ze/ZtvviErK4sZM2bgdru5ePEix44dIz4+vs62Lly4gMlk4plnnsFqtbJ792569+5NQkLCLZeFTpw4QWJiIr6+vjidTjIyMpgwYQIAvr6+7Nmzp7an43/+5394+umngerb2W/btq22no7wGgghxPVafG8U0fn4+Pgwa9YsPv300xYtyz5w4EBGjBhxW65J0lEkJSVx6dIl9u7d26Ly8hoIIToiSTaEEEII4VUyZkMIIYQQXiXJhhBCCCG8SpINIYQQQniVJBtCCCGE8Co1QERERHvHIYTowFoyO0kIIWqoofpeF564Lbi36HS6Dh2fp9wpz7OtyPH0DJ1O1+R7IAkhRF1UwA33auiIOnp8nnKnPM+2IsfTM+Q4CiFaS8ZsCCGEEMKrJNkQQgghhFdJsiGEEEIIr5JkQwghhBBeJcmGEEIIIbyqVbeY12q1KIqCSqWq97bebrcbl8uF3W7n6tWruN3u1jQphBBCiNtMi5MNrVaLv79/o/v5+Pjg6+uLr68vAFartaVNCiGEEOI21OLLKIqitEmZ5tL0Gsrgbr5eb0cIIYQQTdPiZKOmp6I56rvU4km2ojJ6jJ9MbJMTDl+C+o/jB7PnMG1MqFdj8whtFEmvrOLDD18h3vu5m2gSPcbx8YQ1spdh2nJWzTG2SURCCNGRtOkAUZWqDZqzneb/tmTTZfxEhoY2nnBoohN5ZLCF42ervB9bq0Uybf50DDlZFNrbOxZRSzGSlByPob3jEEKIDso3PDz8PxVFafY9JAICAlrU4NWrV5tdptn3uLCXcqrQSeyEe9GeP0FRZf2DUp3mM+QdO4tPZCyR9qMcOlvZ7Pg8pfHnaeFE5jb2FIfzwMQICv6VicnVZuHddho6nlEp7/Lm2AukZ13ABWCcyaqFw8j/Igff+JnMn/sUExISmDjxASItuew/qyNp6R+ZVL6JPSYXEEXKu4uJO7of/dOzmRDdm/7DulKUrePZvzyL6vPt1QlhWBJLV07i8ud7sBoTeaBHKH0fSCL5kSeZkmigOGs/pkrQx6Ywb950Jt7QZscY3yT3mBFCtFbnnfpqPUH61nMMfHgsDd7T1mnD2VYxtZodq/RoeETBpnTMsYnEawEUjAlxmLenU6Adz6yZ0eSsmMeCBQuYtyKH6FmzGKOtr6Zitm/YTpElhw2L15HTSH6gN9jIWLaYBfN+xurCOFKmGkE7hpmzDGQtudbmskwMKbMYX2+bQghxe2nV1NeOLYjBYwdQtmcLcnNscYviDDblJ5M4Vk9mRiSJRhMZG0zQNxmDJZe/m67tZzpMviURY18wNVhh01jys8i3A9jJP2xCn2BA3zeSvvpIDAuXkmAHUNDa7RjCgUIPNCqEEO2skyYbQURPnEDkia18fqJjdEWLjsZK1uYspk9PINIcSWR+OqlmqH/gRUu7lDSN7mEDMGexZt4aclvYihBCdGSd8DJKdaLRv3Arn+eXt3cwogOz525mlzKeWVMN5KZnV6cTp7I5pTMypCbpiIwnWjlF7ikbFgvo9demAIVFEx1+XV0ooFT/ZbHrCL02sUlvNN6Qv+gi44hUABSihxgwm05hPZXLKSWOMcZr10308aTMSZQBp0KITqPFPRtOp7PZ01+dTu+PjtD0v5vIc9tIP9K0RKPXuGk82N8PP79g/EhmxkAH53dt5PP8DtgjEpbIKwuT6atR0Ot0GFauYpp5F6kL3qegvWO7LZnYnGFlUkIWqbnXei6smaxbY2TO3OXE2+0oio3cNSvItFrRbtrFhJQ3eD2+CEtRMUUmqhMM82EOm5OYtXQuf1+WyqatScx55XWMJgtmkxlTdRZSvatJYcL8hUzXhaEnm3XLCsBawJrUaObOXMpyqx1Fa6cgLdUjl22EEKIj8DEajW6tVktRUVGzCjZ1BdHrVVZWtmgF0fDw8GbHdzu6U55nW2n8eBpIen0hxvQFvJVpbrO4bjfyvhRCtFaLezasVisqlQqNpvFr0gB2u12WKhcdhhI/k6UpcdizVrNMEg0hhPCqVg0Qraio8FQcQrQpe9Ya5mW1dxRCCHFn6IQDRIUQQgjRkUiyIYQQQgivkmRDCCGEEF4lyYYQQgghvEqSDSGEEEJ4lQro8Hd07Ojxecqd8jzbihxPz5DjKIRoLTVUr5nhdtd/G/b21tHj85Q75Xm2FTmeniHr4wghWksNEBISgtnccRc26ujxecqd8jzbihxPz5DjKIRoLRXQ5FVA20tHj89T7pTn2VbkeHqGHEchRGvJAFEhhBBCeJUkG0IIIYTwKkk2hBBCCOFVkmwIIYQQwqtadddXHx8fFEXB19e33imGPj4+OJ1O7Ha7TEMUQggh7kAtTjYURSEwMBAfH58m7e92u6moqMBut7e0SSGEEELchlp8GSUgIKDJiQZU93AEBAS0tDkhhBBC3KZanGyoVM0v2pIyzaXpNZTB3Xy93o4QQgghmqbTJRu2ojJ6jJ9MbFMTjqBoHvzBj5kxYwYzZvyYx8b0ouMuYaQlKvkVlq9axapVf2LV8rmMNyjtHdTtSYnnlb++TqIeiErh3aXJGBra3ziTVcunEdnS9vRJLP3rXOIVMCQvZXlKVEtrEkKI207nm41iO83/bcmmy/iJDA1tLOHQMnTCQ4Qf38L6tWtZ+9EeHDEPck+3Nom0+YzTeSnRzscLZjN79myWZRuYMS0ebXvHdbsrWMeLC9IwtVFzprQFzFtX0EatCSFE+2vVbJQOy3qa/9uiJvHhibDtcw6VOOvbkbwt6zlWZcUJYC2jvEqNn38bxtoc+RtYsMBO9W0q7BSZzBCta++obn/GmaxKsbBkXhpRr68kwZSBWWdAF25AX7KZFW+l35iI6Mcw9/Vk7O8vITVbT+KcWSSGgx0FSjJZm5pGgVUhMmk+cxP1mM1mzIUWavqgDNOWs1C3jtnrdMxdlYw9w4Ri0KIPN0BmKkvSCpBh1EKIzqTz9WzUsJ4gfes5Bj48logGdnNardiu5SJBQ0fT33aQg+faJMLms1sxm6+dhrRGpk8ykL15F3JPTk+xg11HuCaH1BVvsWTBGvL7JpEYed0u+lhmLryWaGSZiZw6hyTLBhYsWMCCBQvYYB7PnCcjQZ9AypMK6UvmsXjxEtaZ9ITX1aTGgLZwLSveeovFK7LQJU3A2CbPVQgh2k7n7NkAIIjBYwdQtmcLFxrdV0PEyEdIHHiFbWlfcakNomsNJWwMs+ZPRZ+xjGVZkmp4mik7/1rPghmLRYOupvNI15epCycQnrmAeVlmQEt0tIHQ8BTeWFpdQtFq0BQaUAzRGEoKyS2uLmrOzqFoeuStjdlM5OZfew1LirFoDGgUkK4NIURn0kmTjSCiJ04g8sRWPj/R2MlYS//EZMZoc9nyUQ6X6rvi0kEokUksnJ+Aad1ilmTJbb/blD4Me3Y+usRk4remUpPnnUpbxOL0m95nxjiA2ksnDY46lsRCCNHJdcLLKNWJRv/CrXyeX97o3qEjH2Gc9mvSPu34iQbaeObMTaAwdRFrJNFoe6Ys0tYs4+2sSFJeSiQMK/n5JvqOGUsYAApRSXOYFqsFUz6m0GiiqzcQFhvb8GwXIYToxFrcs+FwOFCrm1fc4XC0tLkm0/S/m8hz20g/0niiAb2IGxaB1lfLEzPuvfaYg/O7PuLzfJs3w2wR/dgk4sPDMc/5HfHXHrMV7SJ18fvI3Ia2Yqdg3Qo2vf46L03LZ9HHqWyYM4eF7yZitSso5u2sy7CCNYMNafHMeeNdEsxmivKLKZR5Q0KIO5SP0Wh0a7VaioqKmlVQURSCgoKaVaa8vLxFy5WHh4c3O77b0Z3yPNuKHE/PkOMohGitFvds2O12ysrKmty74XA42qRnQwghhBAdS6sGiEoCIYQQQojGdMIBokIIIYToSCTZEEIIIYRXSbIhhBBCCK+SZEMIIYQQXqUCcDo79mpWHT0+T7lTnmdbkePpGXIchRCtVbvOhhBC1EfW2RBCtIYa5ItECCGEEN4jYzaEEEII4VWSbAghhBDCqyTZEEIIIYRXSbIhhBBCCK+SZEMIIYQQXiXJhhBCCCG8SpINIYQQQniVJBtCCCGE8CpJNoQQQgjhVZJsCCGEEMKrJNkQQgghhFdJsiGEEEIIr5JkQwghhBBeJcmGEEIIIbxKkg0hhBBCeJUkG0IIIYTwKkk2hBBCCOFV/x+Wy9RLX1aOFwAAAABJRU5ErkJggg==;" vertex="1" parent="1">
          <mxGeometry x="-870" y="2380" width="539" height="170" as="geometry" />
        </mxCell>
        <mxCell id="ZQSnCNjEJaoJJcT3hJNP-129" value="TypeContact" style="text;html=1;align=center;verticalAlign=middle;whiteSpace=wrap;rounded=0;fontSize=16;" vertex="1" parent="1">
          <mxGeometry x="-860" y="2320" width="60" height="30" as="geometry" />
        </mxCell>
        <mxCell id="ZQSnCNjEJaoJJcT3hJNP-130" value="" style="shape=image;verticalLabelPosition=bottom;labelBackgroundColor=default;verticalAlign=top;aspect=fixed;imageAspect=0;image=data:image/png,iVBORw0KGgoAAAANSUhEUgAAAR8AAADdCAYAAACCAHZGAAAABHNCSVQICAgIfAhkiAAAABl0RVh0U29mdHdhcmUAZ25vbWUtc2NyZWVuc2hvdO8Dvz4AAAApdEVYdENyZWF0aW9uIFRpbWUAbWFyLiAyMyBhdnJpbCAyMDI0IDE0OjUwOjM0GKtIlQAAIABJREFUeJzt3Xl8k1W++PFP0iQtSZfU0lIIS1laoGVpB6iMhYGqU4SCWkW8COOAC4jiOCiC/IaRq6IMDlccxUEYLwwzIA7i4IygUK8WBipSrC1LC3aRFIhQ2pK0TbckTX5/hIale5MmXc779eL1gjxLvs8h+eY855znHEloaKgtKCgIo9GIIAiCu0g9HYAgCN2TSD6CIHiESD6CIHiEzNMBdFaffPKJp0NwmQcffNDTIQjdkKSuwVmlUnk6FkEQupGbaj6FhYVN7myz2ZBIJO0akCAI3YNo8xEEwSNE8hEEwSNE8hEEwSNE8hEEwSNE8hEEwSOcHOfjR68H1nHv7EmE+oLxcjY/bFvK5wd/hH7LePKviwi9cferu/nbQy9SoHqE2bvnULAgkW8u3HLKpo4DUP2C2GUvExc7GB9TEcWpa/lwPUz79zqGKepHWPxJEhv/nNn8pagTWDb3Cus3ZGJuyaXLf8m9uzcz2vfGFzPYN/MBvg9dzbMb5qAGoAZj3iEOvb2U78+UA+A1eD73LVvE0CH+VJ8/xKHVS/k+v4ZeT3/Fggfh2OK7SD5jguH281g++S82/vlYC2IKI3H5ch6OUAE5bHlqNQcr6zZGs/iDuehXLWWH7vo1r1wzizCVCtXpDTz6ZmoD197AcW43iDs2fc7gzybw973Ft2xTMHjlcR6J97/htWwOPJJIWv93ePEPMzD85S7+8tGPIP8lD+zeTNTltbyzcAs9Gzkuf8b/8fTswQ3EcYhP7plHdlMfkCGxLJz3M8IH9ESZ+zkvvPo9VXXb5EFMeC6J+0f3BIOObz/4J7tPVDS/rYtyLvmMfplZs/059vJdbMmrwTcygcE3fhlN3/KvRxaQ5XhmtYbalpy30eMG8bNX3+V249t8+MhuiolkaFwwMvNe/nlvsv2C4t/l+V9f5G8L1nLZBFDe9HsFJ7D4YTkpewEUhMTOZ1Z4Bht2tCAJmYo48fI09qXVXI/TDISCxZjMrpnP8oOiL4Of2cyslcspnLMSHcO5fdlvCTrxLO8szqbnk9uYtfK36OavBcB4GQbER8KZbHrFx8DlspaUmJ0mnoSwLN56fAOZ9YLXkrJrDyb9DS8Zklm9KBl14hreiWrspA0c16GYyF87gTfWR3LXhm0E7ZzArpQy+/9Df7BcvYhPXAIBH72PMXoGQcYiLKZmjvtgGm9s8wZFJJM2bKPXJxPYdaAGx/9vU8wGcr5M5mjYnTw+4OZNvWYmcX9wPhsWbuVq9L28+Nw0chZ/zMnKprd1VU4ln4DhkfjmbSH9jI5aoPTEh3x/yz4WY3nz/2ENaPC4wY9x+5BsDs3bSqEe4BjZe69tM19LMib7H0tFecsSXVEym/bEMXf+XEaEVTBLt5WtO7JaVvsBLMYyas2mRraaoOJH8j85hCE+hl6BoPOdQVT/bI49/x8qzFCxbQcXZzxG1OC1ZAGWM99iGD6DXnKIGl5E/hl/BjRy9uvCmbNuOfEhKgJV8PzGaEzmLLa+sJ7USgifs4bl8RpUgXr2ZqWS28IPdFPHyTVxzF88lwlhajDkcGDTenZkGq5tjGXJxllU7MlBkxCLJhAMB9aydEdu08e1lbmcWnMNFsBiuuX/4+q35JsmMbjXDkriB1N4PBv14OaOM9n/br6W+E011Jqb+RGrU5BDSgHcpvwFN//HBTE6uifnPv872spa+OYbTsz8FT+P9uLkN+omtrXoU9wpOdXmYzyTjTF6Efc9MJ1evfxcFVOjvIcPRn05A50rf4XlaqJiY9BgQF9RgTw8jugwpQvfwI+gcTGojfmUGIH+g1EbL1JaV6OuuEipsS9B/a7dMxoP8cPVGKLiZzDgajI/tGimk1x2LH2CJ15L5uKVFF574gmeWGRPPAC5O1bwxBNvkapv3a9A48eFMWvZQiJyNvCbR2fzm006YhfPJ/bGYlNoiI3RsXXpEzzx6G9Yf7CoZce5XBE/HIeh8TOIGpxNVmZN84e0B3kAfYONXC3yYdTsqUwYYuRikYzbBqib3taFOZV8ak/8jg/XHsIrfjmPfniSFzdt4meDb0hCivHct/sEL/7r2p8182nRQxyNHOfj6w+mMqqdCfpWqjDUuj2s3ZCCLncP6zekgEaDvEVxBjPmD8cdcS5Z8wje1zbJfCfxwO4TvPjFcRbMKOOrl9dSYAYvuTcyk/3X1q4Giwlkirojy8hPLSPqyQSqUw+59lpdJTyeCaoMdm3PwmAGQ+Y+DhqiiI24cacKMvfsQ2sGqESnM7TwONczpB7C58HfMuBCMhfbUAt3DR/kcguVJjURdwxldJgMsxnkClkz27ouJ6/ORMnB1/j44GugGsTgJ9/lgZW/RTf/NQoBTBl8tXgpWY7abBEtakJr5DhvYxko/PGBlp2nJQyZHEwDlMHk5hgwV2o5mNrCY01FZK3/Lw6cufZvYxF1v6sW47fsW/A7Cm5LIGHlY4TeZn+91lyDReF9Q8F7I1OAxXT9F7kidTf5MyaRn1oEkc5eoOvJA9WoAmNZvPED6v6LFAoFGQo51N2wmgzoDG04rj1cSCb9RAI9PzuExXdm+71Pk6oxm2UoKWDns28DXowfB2aTpZltXZfrUqujbSMStRx78qEG4+UfqWj156rh42ry8zGExqBRQYmrOwIqM9mT3PrDqvUXqShsqM2nhpqrOkoLt/Lvv0zi6ScW0Sv1NQrP52PwjSFAhT2DqvoS4HuRwgum64mmYi+fP7sXUKBp8wW1H7PegP5KChsWbSa3qR1vKZYWH+dyP3Jy9QMAeMW59Y2vM5dysciXcI035NUAPekbbOHqIQOYaXxbF+bUbZfX6KdImP4LggL9QD6IwQ8moL6cT/ENSUOmUOAlv/7nOm9Q+DWyrZHjzmwh/Xwkk5Y9Qi+VAq/AaIZOn06AMxfhBjWpG8lSzOQXk3vChWTyL8dw+69/gbe8J5rZc+h7+RBZ+Z6Lr6JID5oowlp0rwnkHiHTFMvDieEoAeTBhMfFEt5c201bj3PwbuTzorDfzmK/fb31s9S4th7XDLkXXDuVXO517cUSTmQWM3DaHYQpvfC/4w5Gqws4mlnbzLauy6maT62xBt8pr/PYM33xUdRgyE7mwJtvU1K3g2I89/37B+5zHPEtn9wzm2wAxWDu2nySuxzbikh/fgKfX23iOPOPpL38LLJlL/PI7tfxoYjilLXs2kvHZj7Gsc8u8vTsxwg6+CaHVq9FvfJdnn/QG8v5Q3y1+m0KgV7t8d7yWBa/s4BouQJVoApe+YB4DKSsXcqOa9UPc8Yu/pGwnFf/thMMKaxetJmsJo/LZfubW5m/4Hnen6tGbq5Al7OPrRnNBdPW4wC8CVtyhP+35PorxTuT2PhB9s3jfJaf5P8tvzbOp8nzKRo/runJHZoWOZXXVo0hCIC+/GH7NC58upE1O0so3L2HTzUPsXjT7cgNOg7/6Z+OrvSmtnVVN83nI6bUEATBXcTjFYIgeIRIPoIgeIRIPoIgeIRIPoIgeIRIPoIgeIRIPoIgeIRIPoIgeIRIPoIgeESrko8YYCgIgquImo8gCB4hko8gCB4hko8gCB4hko8gCB4hko8gCB7RtSeJFYRWssm88Aq5DUlQAFI/JbZqE9ZiA9YiPVR5aPL5Luqm5NOrV7tMZyUIHZ4NG6aogZhjwkHa8A2BV/5P+BzLRmLp2jMMuosj+TQ3kZggdFlKH3ymT8RrQO8md6sd3Ify23yp+SIVq67ITcF1XaLNR+j2FHeOazbx1JEG+uM9YxJ4u2i+527MbW0+t912m7veSuigrl696ukQ6vEaFoZ8+MBWHSP1U6K4cyymL75pp6i6B1HzEbo1eeyIhjd4BTB5/OMcSozBt6HjRgxBourRrrF1daK3S+i+ZF5IgwPrv+7VnxfuncrIZhbtk/buSW3ehXYKrusTNR+h25L27olE2sDD0rU63v33Byw4UUh5E/lH2qdn+wXXDYiaj9B9ybwa2VCLqdax7l8ryAmOiiU2OoqBISrk5goMOi0ZGUfI1HbxRbjaoIXJR0lYXBJJCTGEhcgx63JJ3fsP9mYWtecK20I3pY5KZP78BOR7V/HmwWtLBitjWbJmDvKDW9m8NxODCz54tit6p4633nB8cPQc5s+fwu19VfX2mz53PvqcVHZt2kJyW5OQTA4WF37bZDbkFokLvr8y4iNGkOh7w02UtYxPT+dxpJml5luQfJRELXiVJVE69u3Yyh5dBarwOJIWriF672pW79OKBCS4jHrySt55NgYVwGMreSXejEJhokKuIaZvIMz9PTHRW/jNqn04O9LGVlGF1ViJ1LfF6zXfxJ58lETN+T3LH4igftqpoyAwIp6Fa8KJ2vQm6w/qWvlOSsyPvovlyFP0yHHFt81Kwq8uEZGqYUOOs+eSESSvJf2Hk+yrAlBxX1R/gmSA08kn/GEWxOjY/MJ60uqStk5LVlYRr6xZSELaCva5eLyVXC4n5mex+PTwQeYlw1Jr4fixo1RViaprV2dISyZDH8OEQEA1kBH1OqMqyEpJdTrx1DGnZeF957jWH5dTgO1qKZrENfbEo88hQ6ckYkTf+knIdIWcrCsoo0Yw4dmVmA0vsCGzk36WfXqzIlJD6A0VHblUCsN/xvgb/m0eMZY7HXtYuazLZs2l6ptO1Wzy0cRGocjYdD3x1ClKITlnLglRSvYddF1B+vr6MWr0z0j/7hg1NfZgpVIpt4+fQEHBOX7SdfDeBWkgAyL9KcsuQG/1RAA+9IqMwOf8SQqMnnh/5ygjYolwdECZ0F/UoquUowkbSKACQEVYTBTqg6kYmjmXV78ZBPYLRipver+qUgvWgPqvmy7uZfrF+q/bKqow7T8KwYksmGuv8egzt7N6QxbKsFhiQiq4csWAGTVqjRpzVipZhmCS1rzP3IgQ4hfOJeU3m8nqjLcM1Zf4Y4aexOFD8b9wit1GW+P7SnyZObIfZT+cYV91/f2aTT5qlYqKooaSixlDZQWKQBXguuQTNWIU36Qeuuk1q9XK0W/+w9jYn7cy+UhR9hpG1JBgfBVSrJZqjOdPkd6e30qZkp7BgVRT0H7v0XQA+AUEoLj2hfPtN4r+prNkF5o8FE9rhJE0P54QANM59q5dzdbMujafKOb8fjkPRKgInDCXWclpbG7q2yubwZAX3yVYCab8ZPQlje/qK62hiGysVDQboc1qo3rvYagxET59OiMcrdL2Aq/UppGqrXtNB9obDq5LgiHxJMVtJ8uFP9ruZLFZASsWq5WqJnIPtmu/vlZbg3dgjScfTQLLls0lpq8KBe/wydzGdnyHD+JS2Lx6M2nN/RQ1wz8gAImk8d5/Y3kZg4dEkJ/XwhtVRW+GRwZQnnmU43oTyHxQyjrDl9BVpPQICMSvvKOPqFAzedkrPDxQhTrE/sq5veuvJx6Ayix2vPUPRrzzGBGKEOKXv0OMXsfeN1ezr8EmFH9kHOLHv0OfqVDy3gKuljXy9qGPEfnifPRpuykbYABbw98o85lzmA4cBbMF0BAbfS1YzpGyJ7OZaywiZW8GSc/GoEJBRGwM8oOpXaK9VKbqz5IgPevPl4PfAJYEFrP+fEVzTT6NJ5+whEQ0WW+xaIW26T5Hk5zo59eQGLudtGTnMnlISChGY2OfEDCWl9NH06/lyUcqRYYVi/laMViqqawrEakvmsjhhAX4IJNaKL10ltN5eiz4oIkewyA/GVKpBaMumxN5eizSICLGDKOXUoYUC4Unj3K21Ifew6IYFKxEhoXSvHQyiwCvQIbFTWKYFKzVReSdyubSTUWjoFdkDEOCfZAB1bp0juVV4z8gkuF9A1DIwKLXcur0BYxWUPYewcghQSiwYi3/kfTMS/iNmMig8mMcK6gGfBny8xgUOYfJrvcLL8UvbBwT+4O1NI/jJ0sIGDaaiF5KpFYr1ZdOcDyv8TJ3DzmBIX0Jqfsuo0eb2UBGKcoh5wpE9AWFKoQQlQl1M7dU1anPciboI6J++zpn/vg7yqtu2cF/BuHPLELyxa+5nDae4b+P4eJbq6noqbZPqVFjxlqkrz+lhlyDpi5efQ4NhXsrQ1YGOmKIAFQhIYQA9Q4LjMU0WsPN6U9FbbAC2+iHqelzS+2s6hzyY5mND9gLrCJxlPmWr7CNqBAr6tFlJN36SFu1giPHfFrXpiZX0OtaVVsu96aXvJn/lGsaTT5ywFxRhKHScMNdlRK12ozhln5OgwEUcgXO3n7pr5YQHjGs0e0qX18qKspbfsLqS+Tp+jBiXByBhec5f15HodECSPGPGEl/y1mOpeqxKIIZMS6SQVdSySmrRpeZav9QKHox6vYINBePUWD1wc+3gpxDmRRauXaOGIYozpNx+AJGqxSp1Gov0Vo9OUczuWSREThsHKOGBFN4sojrTUAyfPwU6E8fJrvE/qoseAQjQ0o5cewkRqsPmlG3E9WvhGMF3vQfFED56cNk662O6R78WlwIVsq1x68lKUA5hEG9ashLPU6hpdHZIzxMhTpYSb3PkzyQhgYkN62Min8uICfgI4YvfoxTf9yCI//IxtP3mZdRnV7Kqf/LxuY/Hi+pF9JLxdReKqbpiTNu/IIpkMuh2WqMQnH9KHkjPWwyOTYf9c2nR2F/P5kc/NS3nrTp95SBuocNxU3fdCtgQy6rRe136wegqfso12rVIEN57ELWJWSwaPXBdqkulpQUM8jaeCtt/wED+ebIoUa312ehJOcYh88H0quvhrAxcYRdOkl6jpnQIBUKaSS3B9n3lMqklPaQgVFBr4jhhAXaayUyGZgUQPWt51YSGiRFn6PDaAWwcmPo9r9b0BeVwxAlPjSUmq8fEBAchEIZyOjb+14LCDD1AEop0kNkRCRDzp/nYmEZ1c4MTK++Qkn1aAaNiEB24TyXSupdmAcUcWDtb0hThTPn1We5XaUgJmkuUWmbyXIUmpzwWbOIUQGYOL1lBZszK9C3qNf6IoatCzj/4jainoEzf99NtTyGXr9aR2jZWk7841AziaYB5isYDEAIEBhOTBhk5jZ9iDoqGs21v5sMOhocZVSUivf+1FteVGIOjsWSvh3v1na1F/Vgx/5bn0GzkhBcSUR6IFud7mpvu1aOcJa3YdRn6/yYl8OkyXfz7dEjjt4uLy8v4ibGI5fJqahofWOxtVrPpTw9hVeG8fMxAwj+8UfAjP7sUU4W3ZzsFJrRDPMrJv1YAUarLxE/H934V70lOcBqxSqVN7+rFCyFp0k9W/8jWZJ9lGP+wfQPi+L2QaWcPnb2WtpqQxKylpF37CiXgzWEDbmdQZqzHDtZiKdbwiqLdFQW6di1Zzoxcwei6DuFlf+jIfVIGucMagbGTiBuRIj983cxme3JWnSt+h5mc3n9Aqy/epmhq36LgiLKM9ZyavvuNv6QasnMqWBKiAroS8LC+aS9vPWGZHkzuSaBxbNGOL4/uswsF3bTdE4d7vGKkpJivj16hEmT70LTtz81NdWYzWa+ST3EkPChjI39Od+lHW3ZyaRKAn2tlJZVY0WKQqVAarVisRop0lsZFTYIf30eZRaQymRgsSCVSsFqwVLXUE9jX/FKikqsjOqnwVdvb5uRSm+sy7ROaZEeacQANOdL0VVaQSZDZrFgQWqvfZUVknfagk/cMIKVVrTl1fiEBKO8UEDlTW9qj1gmkwJWaiwWFH5+yKjGIpWCVYpMasFYVEB2jTc/jwkmQFpIkUeGBdSn3bud1MTfEx8IipARxD8wgvib9qjg2I7t5LYlY1gyuLI1iSsuidRMRvIRrkyYgOHAHs4NTOLV96M5nZFG8q5dpF7LjOroJOZOjyM6qm6oAFCRQXJKF5qMzFpLlc3emGq21FLVxN3LjVqVfMxXMknL0rV7C31NTTXJB/bVe1138QLBIa2Y6tUnAM3QQYzyVSAFLNV6Lp3OpshqhbMZ5EUOZ3TcJKSAtVJLxvECjJfy0AUNY9ykQddGaFZyvsGytKLPOUFeZBQxEwchxd54e0zblisGS2E2J30iiRgzkSFSwKInL/0kumpfwsaMRuNjH3Jg0v/IqTKoNp7hx8Aoe5xWK1aLkfM1ANVcvmgkZtgoepdmcun8j+hHRzJxElgqtWRkWRk6ZhC+WLFiofTHU5R0kMQDoI6dTmyT7ToqYhLjCU5LdtlAw7YyZ+1i+7FYno+PI231WrYnzicuREGF/vo3xGAOJjpmINcvycS5PdtJdrJnuCOxlJ3j93V9FmX51//ejEaTjxmQq9TIuSHZaJPZoL11TyUqJZjc1GdYdKUV071WXuL08UsNb7Ma0Z0+Xr+3waInL/MoefUO0JGecsveViO608duOUfZzfvpszlcr6JWScGxw7e+MfqCkxyrNzyojLxjh+vHYy3jQuZR6o96smK8kM7hug2mS5w+enMZpB/uuAM1DRnb2XJAxdwpEZgPvMxvtp5DLjdjDpnFmjUPEKJLYfv2Iy1IPDVtroW2IlpSN6wn7NXlJM2PY9Om9aw1VGC48X6qooIKcCSfK0c2sHaPtt0jcwcZEmRNNVA3s7p6o8lHm5JM0fLl/O0TVTPtPCYqzqWyydlBPoIAUKnl4OYVpO4LI0SvxWwGsxnQ7mLtioNUaHUtayux5FNZGonm3plYfyhrQR+ON/KYmfQo/oxbe+ObjjeLHStWoFu4hIV/mIKq4ghrH19P2q0/xqYrZOzawIY9Wc2OzG7gTZB9+AKyalf9wktJ2dmbI23ua7BSZpEzJWocP29uV4uBDxv5FZCEhobagoKCMBrbdyy+mEZVcPc0qpKgGWgenElAgH8LmuZrsBRn8NMnb1Na1rYlcuSaWBKiIW1f2vWamTKKhCnBnEtJJdcVj+J3ISL5CG7TEedwFjynQw4xEwSh6xPJRxAEjxDJRxAEjxDJRxAEj3DbCGfR2CgIwo1EzUcQBI+oV/MxmUzYGplMSRAEwVVuqvmYTCasLXwoTBAEwRmO5GOxWLDZbEgkzTyQIQiC4AKO5FNb2+rplARBENrMkXxEO48gCO7kSD7idqt781bY8FeJ9j7BfTrcTIaCe0mlNhY9WIa/yorJLEHpY2Pjbn+KS708HZrQxYlxPh2IJ25959xjJOMHb/7wVzV/3u3P5j3+PP1Q/ano7rvvPubObXjxtvfee4/w8PD2DrVVPNWMMHToUN555x2n93HFMR2dqPl0IJ7obRykMfP3z/2IH1vFjImVPL8+iMslXvRU11JsuF77+de//uXWuJwlem47PpF8urlaq/0LejjDh+/P2ueslEjAckvn58yZM/H392fLli2Eh4fz9NNPo9frKSwstE+638UlBgbiL5Oxs6jlM0cPHjyYhQsXUlNTg1Kp5MCBAyQnJwP2NtZnnnmG0NBQAgICePfdd8nNzaVnz5489dRTyGQyevTowbFjx/jnP//ZXpflUU4lH4lEgp+fH97e3shkTZ/KYrFQU1OD0WgUAxk7iJl3Gjnzoz3hWGollBq96N/LjL/KiqG88TafJ598kk8++YQjR46g0WhITEx0S7yhoaEYjcZ2n/juJjYbH0REYLJa8ZZKmRIYyOM5OS1a56tnz57s2LGDEydO4Ovry7Zt2/jqq68AGDBgAH/84x85f/488fHxPPHEEyxfvpxFixZx4MAB0tLSkEqlvPXWW2RnZ7fLbWRERAQ5OZ5buMup5OPv749S2cjKi7e+kUyGTCZDIpFQWlrqzNu2q4kTJzJp0iRCQ0OpqakhKyuLzz77jKJW/OJ1Bo8mlmMol/Lv/6gYM7yGqXdUYrFAtUnKxt3+TR47ePBgsrKyANDpdG4pG5VKxapVqyguLmbVqlXu+wGTSFiQm8uWiAikwPwWJh6AK1euMGvWLKZOnYrVakUul6NSqQAoLCzk/PnzAGRlZbFo0SIAoqKi8PPzIykpCbB/b/r06YNO16LVEVts2rRpLFiwgFWrVnHixAmXnrulnEo+3t7ebjnGHXr06MFLL71EYWEhf//737lw4QI9evRg7NixrFq1ip07d5KaeutKkp2RjYVJ5WgvyTjwrZI1z1zlR52MN7aqr62y2nw7ya3tKe3dtiKVSnnppZfo168f/fr1Y+HChWzcuLFd3/NGP/fzY9/Vq1hsNn7u78+RspatDbN8+XK2bdvG0aNHUSgUxMXFObbdmDxtNpujZmOz2Xj77bf56aefbjrX0KFDXXAldqNHj2bBggXIZDJeeuklXnjhhXrv5w5tvlmXSCR4ebW+O1YqlXbINoLnnnuOw4cP8+c//5mCggKsVisVFRUcOnSIl156iYceeoghQ4Z4OkynjR9Rw9UyKSfzFLz0az3nL3vxl0/9sVoltCTxABQUFDBq1CgABg0aRHBwcDtGDAsXLiQmJsbx78TERKZNm9au73mj1PJyPi4uZk9JSYsTD0BgYCD5+fkA/PKXv8RmszmaJ3r16kWvXvY16CIjI/nxxx8Bey1o8uTJgP278vjjj6NW37o+e9v16dOHl156yRGHn58fL7/8sqNG5k5evr6+/61UKqmqatWCIYA98NaSSCSUl5e3+rj2NHz4cKKioti2bVuD200mEzk5Ofz6178mJSWl3eJwRw9Nv14Wbh9Rw4hBZk7mebMzuWX/h5GRkXh7e5ORkcH58+eZN28eEydOJDQ0FJvNxnfffdcuczYlJibyyCOP1Hs9JiaGM2fOUFjY8Dpunurt6tmzJ7GxsXzxxRfU1tYyf/58xo4di1arxWq1cuedd3Ly5EkGDRpEaGgo06ZNIzo6mvfffx+9Xk92djZTp05lypQpTJ06lfPnz3P8+PGbzttWvr6+vP766/V+LPz9/RkyZAiHDh1y6xAFx+oVJSUlrT64d+/ebXrTS5caWcjPQ+bPn88PP/zAN9980+R+7777LkuXLqWmpm1LqzTHarW6oVZoQ+1nr/KXGaVYbR23O1qhUHD//fc32plRXl7OZ5991uA295Rl5xIdHU1kZGSj248ePcq5c+fcFo+TX3KmAAAaCUlEQVToasf+a/Wf//yn2f2KiooIDAzk8uXLboiqvUia7MnqSEwmE7t27fJ0GF1GZmYmmZmZng7DQfw0AKWlpQQGNrlAOABqtdq93byC0IWJmg+Qnp7OhAkT+O677xrdp1evXtTW1ork40YKhYKnnnqq0eEcly9f5q9//at7g+rExo8f72jMbsju3bvJy8tzWzxub3AGOtwX+NKlS9x///0UFxc32IApk8lYvnw5u3btatdbrvZoJF26dCnHjx9vclzMkCFDqK6uxmy2L+fbs2dPZs+eTXZ2NrW1tYSHh/PYY48hkUi4cOECYB8yce+99/Lggw9y+PBhAAICAnj00Uf54YcfHOdyRm1tLRaLhblz5xIWFkb//v0df4KCgti0aRNljfQ+eaLBefz48YwaNYrc3FynztOS8gd7J0BSUhLjx49n8ODB5ObmUltbS3BwMA8//DDjx48nJiaG77//HrB/zqdNm8a4ceNuKsv+/fuTnZ3N/v37nYq7tZy67WrLBGQdddKydevWMX/+fJKSkujRo4fj9fDwcFavXk2fPn065bNC69atazYRjB8//qbaxcyZM/n888+pqakhIiKCUaNG1ftFnDlzpqMbuU5paSmHDx/m/vvvd1n86enpbNmy5abXamtrefPNN2/6IrpLe34G6s7dkvJXq9Xcc8897Nixg/fee4/i4mJ+8YtfADB79mxSUlJ4//33b+qdra2t5Y033qjX4XPq1Cm3jpuq49RtV90zK609piMqKSlh+fLlPPDAA/zxj3/Ey8sLqVRKQUEBW7dupbCwkP/+7//GYrFw8uRJT4fbYr/73e948803GTt2LL169cJsNuPt7Y1arWbnzp1ERUUxYMAApk+fzpdffom/vz9lZWWOD6hWqyUnJ4d77rnnpvN+/PHHDfYmnT17lrvuuovevXu7rFfzX//6F/369XPEsGXLFtLT09t8vpdeeok//elPjtr+r371K9LT09Hr9UydOtVRRunp6WRkZNCnTx+mTJlCeXk5paWlpKSkMG3aNHr27IlMJiMjI4Pjx48DoFQqeeihh1Cr1VitVj788EOqqqoYPXo048aNo6amBrlczoEDB9DpdNxxxx2EhITg7+9PRkYGFoulReUfHh5Ofn4+FRUVgL0xec6cOWRmZiKRSNBqtQD1klZ5eTmvvvoq69atQ6VScenSJd544w2PVAqcSj5lZWV4eXm1eNRyTU1No9XkjqCmpoadO3eyc+fOBrevWrXKMTCss7HZbISGhrJp0yZsNhtJSUkMGzaM7777jjvuuIO9e/dSXFzMmDFjbrptMJlMDZ7PZDLh4+PT4LacnBzCw8NdOqRi48aNaDQafvrpJ6efsM/JyWH48OF8//33+Pr6Ehoayg8//MCQIUNISUnh3Llz+Pj48MILL3DixAmsVit9+vThvffew2AwcMcddwD2JKhQKHjkkUc4ffo0YG8b3Lx5M2azmVmzZjFs2DAyMjLo0aMHn3zyCXq9nqFDh3L33Xezbds2rFYrvXv3ZvPmzdTW1nLvvfe2qPzrfiTqlJWV4efnV+/1hly4cIE333yTpUuX8tprr3ls3J1Tycdms3WrxQBLS0s79HNpzblw4YJjEJnRaGyw1qpWqzlz5oxT72MwGNo8BqwxtbW1vP76621qm7zViRMnmDhxIt9//z0jR47k9OnT1NbWYjAYmDhxImPHjsVms+Hl5eVIsOXl5RgMBgD69etHdnY2YE8ONzZ6a7Vax22uXq93lHFpaSlTpkzBYrHQo0ePm0YU63Q6R82jpeVfW1vb4C1gS2sw6enpPPXUUx79PIuu9m6ks8/TbTQaXXJ7kJ+fj1qtxs/Pj5EjR5KRkQHAQw89xOnTp/n444/59NNPbzrGYrE4/i6RSBpt+2mojP39/bnvvvv4/PPP2b17d73BrDeeu6UMBgMBAQGOfwcEBFBWVlbv9aZ4+odUJJ8OxFMN2jc+c2QwGJx+lkitVjtqCZ7SXFmeOnXK8aBnXQ+mr6+v4+8xMTGO2s+tzp8/73jQUyaT8fjjj+Pv3/hMAEqlkurqasft0KhRoxp9LrKl5Z+bm8ugQYPw9fUFYMyYMZw6dQqDwUBlZSWDBw8GYNiwYc2ey1PEOJ8OxFPJJzc3l4ceeoj9+/eTm5tLdHS0owF18uTJREZGolKpsNlsjB49mm+//Zbx48cD9i/f008/TWVlpeP2Izw8nD179njkWuo0V5YnTpxg0aJFN3UvHzp0iNmzZ2MwGDhz5gxnz57lwQcfrNcFnZaWxrRp03jyySfx8vLi+++/b7Kd5fLly+h0Oh5//HEqKys5evQo/fv3Jz4+vt5tZEvK/+DBg2RnZ/Pll1/y61//GrBP31E3V9C///1vZsyYwT333EN1dTVnz55tecG5kVPPdgldj0QiYeHChXz66adtGtM0dOhQxowZw4cfftgO0XV9zpZ/ZyKSjyAIHiHafARB8AiRfARB8AiRfARB8AiRfARB8AhHV3toaKgn4xAEoYNzde+bI/mYTCbHQ2odkUql6tDxuUp3uU53EeXpGiqVyuUrzzhuuzwxe31rdPT4XKW7XKe7iPJ0jfYoR9HmIwiCR4jkIwiCR4jkIwiCR4jkIwiCR4jkIwiCRzg9pYZSqUQulyOVSpucYMlqtWI2m6mqqur0k1oJguA8p5KPUqlsdB7fG0kkEry8vBwTKFVWVjrztoIgdAFO3XbJ5XK3HNNair4jGd6zcywJLAjdlVPJp7GpIJvijtn6TFfK6D15BtEtTkBe+A2exH8tWsycuOaXTfY4ZTiJyzayc+cyYts/l3dhGuas+4SdH2xk48Zrf9YtY36cBlcUa9SCjXywOPr6ueTRLP5gJ2sSg6/vpE7glZ1rSGx05lQ1Ca/8jWVxXe8/2u0Nzg2t9eRypgK+/jyD2yZPZWRg8wlIEZHAvcMryLvQMdcUu1kYc5bPRZOZhtb5RUEFKsjY/BsWLVrEokWLeGFDJsFzX2FlgsbpM+ek5UBULGF1L4TFEG42oI6JoW7dEGV0LAN1aaR5dsprj+i6czhXFvD15zISpk2Fr77glL7xVQ9M+V/xUY6J3gmjGOrGENtGx57Vq6hUJfDK3ODmdxdapVKbzPpNEWxcmERU8gay5GEkLF5IQgiYkYM+lS0b9sDDf+J5+WYWbc4CQB61mHcWVLD2ua1or53LnJVKjmoWsRrI1YEmNgrzkb1oJ0QTI08m1SxnREwYVzK2UoSSqKTFzI0LBLMcOTqSN20g+drJVDHzWZkw0D65vPYfrF9/EJ0nCsiFunZXe2U+yQcuMnTaBJp8Zr/WRMdcxLkhZipFjaddmbNOo1VrCFND2KzFJFZsZ8WKFaxYsYLthsksfjiM3JQ0KmLiiZIDyImKj6LiYLIj8dhPdJq0nBBGRAcDwUSPkJOVlkqGbiCxUXIggtiICrLSdMij5rI4NpcNS1ewYsVSXt4rZ9bCBOw/L3I0yizeWrWCpUvfIivsMeZ0gfvtrlvzAcCP4ROGUPbt53TtqbgFl5IrrrXTKImI0BAYMp9X19gzvlypQKHVINceJNWwkvgoOVlZMcRHG0j5x611kUoy087xWFwM6hQTMepc9moN6DIMJMVGIDfEEk4Wm3MhZE4Eak0US9bEYra/EWa5gbqbP21aGpUAZi1ZWhOzwkMgrXPXfbpw8vEjYuoUwvIP8EW+6NoXWk4ZE43GkEOOAQYC5/a8zKrk+p+hI0eu8Gp8FGrVZCK0B9haVP9chow0dHOjiY4xozmXRpYZzJmnMcdHE1MUhSprOzlASCWYT+9gxZtp3FyxVZPQPpfpcV30tsueeAZrD/BFjmfWoRY6J2V4Is/Pj0D7j73kUklOjo6BcRMctz/hiYuZE21vLi5KTUEXkcDc+IGcS0mjwTbjokzSrgxkyvQwdJkZ9sSiSyNHHkNSnJqstCzMwJWcHCoiJhN7rddLGZXE4sRwR09ZWEyUvZFariEqDHS5V9qxFNzDqZpPbW1tq7vbXbHcbXMUg39G2MWvSD7TssTTd9Ic7hzsjbe3P94k8dhQC5eO7OaLnA5YYwpOYNnKJAYq5KhVKjTvbGSO4QgbVuwg19OxdUoqYha8w8b51/5ZoSNt6yq2p9qrMdpdG9i+eDEr/5RApVmO3HCQrSnXPheGNFLOPcbzERm8ltbYZ0VHRoaJuQ9UsuWtun20pGnVTInVsve0vZ5jztrOhn3PM/+VdUw3gxId+zbsxYwKqEBnjmHxyiQCg0OQa7ezNq3zN/w51u1SKpVcudK6bNrSEc43qq6ubtMI55CQkFbH1xl1l+t0F1GertEe5ejUbVdlZSUmk6nF+5vNZvFohSAIgAsanI1GoyviEAShm+miDc6CIHR0IvkIguARIvkIguARIvkIguARIvkIguARjuTT0Vd17OjxuUp3uU53EeXpGu1Rjo6u9srKyg49t3JHj89Vust1uosoT9doj/F5juQTEBCAwdBxZzTq6PG5Sne5TncR5eka7VGOjtsuhULh0hO7WkePz1W6y3W6iyhP12iPchQNzoIgeIRIPoIgeIRIPoIgeIRIPoIgeITTT7VLJBLkcjleXl6NdmlKJBJqa2sxm82i21MQBMDJ5COXy/H19W3xQoA2mw2j0YjZ3PlnYRMEwTlO3Xb16NGjVSuQSiQSevTo4cxbCoLQRTiVfNqy+qg7Vizt3bs3QUFB7f4+giC0nVO3XR01+Vy9epWpU6fyn//8h6tXrza7v0ql4u6778bX1xeZTMbJkyfJyMho9zjb6pe//CXTpk3DarVSXl7Ohg0bKC4u9nRY3ZKfnx/vv/8+c+bMYfr06fj5+bFz505Ph9UpdMl1u2pqavjiiy+YOnUqBw8ebHZYeHx8PBcvXiQ9PR1vb2/mzZtHfn4+ZWVlboq45cLCwpg5cyYvvPACRqORWbNmMXv2bN59911Ph9bt7d2719MhdCpdMvmAPQEdOHCAKVOm8PXXXzeZSL7++muqq6sdx5nNZuTyjrkcrU6nY9myZY65s69cucKAAQM8HFXnNWnSJO655x6qqqrw9vZm27Zt5OTkMGvWLBQKBdu3bwdgwYIFnD9/nv3793PnnXcybdo0Ll26hE53fdXQpKQk/P392bZtGyNHjuThhx+mpqYGHx8fPv74YzIzMz11mR1Slx7nU1VVxZdffkliYmKT+1VWVmK1WgGIjIyktLSUkpISd4TYamazmdLSUsDe4H/vvfeyf/9+D0fVefn5+fH222/z6quv8umnn/LII480ub9SqWTevHm88cYb/M///A9FRfWXKfX29mbJkiVs3LiR1157jT//+c8899xz4jmzW8gGDAjHaGy+XaSzmjBhAt9++22L9o2JiSEiIoJPP/20naNyXs+ePVm2bBl79+7l1KlTng6n0youLmbevHmYzWZ8fX0JCAhocv8+ffpgMBgcbYknT56st49Go6GqqspRK9LpdFRXV9OnTx+0Wq3Lr6Gz6rK3XWBvmM3Ly+PcuXPN7jtp0iR8fX3ZvXu3W1ZVdUbfvn1ZtmwZf/nLX0TicUJQUBBPP/00S5YsoaSkhNGjRzNv3rwG95XJ7F8ViURy0/CSlnagSCQSMcD2Fl32tuuuu+6ioKCA/Pz8ZvcdOXIk/v7+7Nu3r8MnHrlczrJly3jnnXdE4nGSv78/RqORkpISJBIJkyZNciSZ8vJyAgMDAXuCiYiIAOCnn37itttuIzjYvnr7mDFj6p334sWL+Pj40KdPHwD69euHTCbj0qVL7risTsOpmo/FYnH8Z7XmmPY2cOBAdDodOTk5Ldp/3LhxAPzqV79yvHb06FHy8vLaJT5nTJgwgZ49e/LMM884XjMYDLzyyisejKpz0mq15Ofn88Ybb1BWVsZnn33GsGHDmD17Nl988QUTJ07kxRdfpLy8HK1Wi1QqpaKigm3btrFy5UqKiorIysqqN9DWZDLx9ttv8/TTT1NTU4NCoWD9+vWtWt23O5DcfvtEm9F4tU1rtcvlcvz8/Fp1THl5eZser+gua253l+t0F1GertEe5ehUzcdsNlNWVtbi2o/FYnFLzUcQhI7P6QZnkVAEQWiLLtvgLAhCxyaSjyAIHiGSjyAIHiGSjyAIHuFIPh19cF1Hj89Vust1uosoT9doj3J09HZdvXq1Qw//7ujxuUp3uU53EeXpGi2ZF6u1HMlHqVS2y2LwrtLR43OV7nKd7iLK0zXaoxwdt10qlcqlJ3a1jh6fq3SX63QXUZ6u0R7lKBqcBUHwCJF8BEHwCJF8BEHwCGlBQa6nYxAEoRsSNR9BEDzC6afalUolcrkcqVTa6OqlNpsNq9WK2WymqqpKjLsQBMG55KNUKvHx8Wl2P4lEgpeXF15eXoB9tQhBELo3p2672rK2lTvWw+rTp49YLlkQOjinaj51NZnWaOzWzJVKSkqYNm0ahw4datGw8ODgYOLj45HL5chkMs6cOUNaWlq7x9lWs2fP5vbbb6e2tpaqqio2btx40+J1gtAZuL3B2R1rtdctlzxp0iTUanWz+8fGxnL8+HF27NjBzp07iY6O7rA1p+HDhzNo0CCWLl3KCy+8QHp6OrNnz/Z0WILQal123a7q6mr279/PPffcw1dffdXkcsn79u1z/F2lUmG1WqmqqnJHmK125swZXn/9dcBe87ztttsoLCz0cFSd17x58xgyZAgSiYSamhreffdd9Hp9o8sdr1ixggsXLuDj40Pv3r25evUq7733nqcvo1PqsskHri+XPGPGDHbu3Nnkvr6+vjz88MMoFAqSk5M7fKP4nDlzmDZtGmfOnGHt2rWeDqdTCgkJIS4ujieffBKwr98WFBREZWUlS5Ys4fe//z06nQ6NRsPq1atZuHAhVqsVb29vPvjgAyQSCRs3biQ0NJTLly97+Go6ny49zkcikRAXF9ei5ZKNRiP/+7//y0cffcTkyZMdi8J1VDt27ODRRx9Fq9Xy3HPPeTqcTqm4uBitVstrr73Gfffdh16vJy8vr8nljgHOnj0L2IeQlJWVtXr5KMGuyyYfiUTC3Xff3aLlkocOHepoi9Lr9Vy8eBGNRuOOMFutX79+DBkyBLBP8JScnMyIESM8HFXnZLVaef3119m4cSM1NTUsW7aMiRMnNrjvjcsd3zqxljs6UbqiLpt8WrNc8tixYxk2bBgACoWC3r17U1xc3N4htknv3r15+umnHeOrYmJiKCgo8HBUnVPfvn2ZMmUKP/30E/v37yc5OZnhw4eL5Y7dxKk2n9ra2lZ3t7tjWsvWLpe8f/9+4uPjiYmJwcvLi6ysLC5evNjOUbZNWloaAwYMYO3atVgsFoxGI5s2bfJ0WJ1SYWEhDzzwAJMmTcJsNmOz2Xj//ffFcsduIgkNDbUFBQW1abnklo5wvlF1dXWbGnO7y7K33eU63UWUp2u0Rzk6ddtVWVnZql8Ds9nc4XuRBEFwD6e72o1GoyviEAShm+myDc6CIHRsIvkIguARIvkIguARIvkIguARIvkIguARjuTT0Vd17OjxuUp3uU53EeXpGu1Rjo6u9srKyg49t3JHj89Vust1uosoT9doj/F5juQTEBCAwWBw+Ru4SkePz1W6y3W6iyhP12iPcnTcdikUCpee2NU6enyu0l2u011EebpGe5SjaHAWBMEjRPIRBMEjRPIRBMEjRPIRBMEjnH6qXSKRIJfL8fLyarRLUyKRUFtb65iwSRAEwankI5fL8fX1bfEctjabDaPRiNlsduZtBUHoApy67erRo0erJs+WSCT06NHDmbcUBKGLcCr5tGX1UXesWKroO5LhPVu/lLMgCO7TJZOP6UoZvSfPILq1CUgxgITHFvPYpND2CczFNIlr2LlzJZPlno6kG5CHMzkuzNNRdClds7fLVMDXn2dw2+SpjAxsaQJSEnHXBIJrKrG0a3CuIQ+bw+J4OVdE85l7REzh4TgNIs+7TtddLrmygK8/l5EwbSp89QWn9E0v2eM3PIFxHOeQdhx3dvRSkUcxd/EITm/aQ8jyeE9H04nJCUtYzMJEDVSCXF5Bxva17MisRJO0jmXhWnQhYZiT91GRGEtIYDgrF8D6zamIp8Wc1zVrPnUq80k+cJGh0ybQ5I1UYDRTflbJka9yqKhxV3BtpSR64XzCUjawQyuqPc5RE6LSsmf1UlasWMrLeyqY8vAUggETEKKpYN+KpaxPTmH7nnNU5OxitUg8LtPRf+Od5MfwCUMo+/ZzLje2i1dPxt41jKKvPqbABIHuDK8N1LELmavcy9p9OpB3zCWdOw8DV/TBzF38CglmM6g0yJVFqIAKwKzNIkfk93bThZOPHxFTpxCWf4Av8puYiyQ4iqH+Srzu+i/mAF7KQPxJ4L/4mo8OdbRVS5VET45ApdGwfN10QEVIoIqINUtQrF1PcpGn4+tkNLNYPDeE5BWr7GUXvZgP5tdtNGMymxC5p/100eRjTzyDtQf4Iqe86V0vH2LHlkOOfwaOncMM1Vd8dKjRupIHVXLwzUUcrPunPJYlGxPIWLGeg+Jb0npqFSrzFXRFAGri4qNQkdZgo7IZM3LR3OxSTrX5WCyt7xdqyzGtpRj8M8IufkXymWYSj9C95SSzVxfD4nVreGXlfEJS/kGaIo6F86O5dSisOTeDnLC5rFuZSJgnYu2CnFqrXS6X4+fn16pjysvL2/R4RXdZc7u7XKe7iPJ0jfYoR6duu8xmM2VlZchkLTuNxWJxS81HEISOz+k2H5FQBEFoi649zkcQhA5LJB9BEDxCJB9BEDxCJB9BEDzCkXxqa5t+8NLTOnp8rtJdrtNdRHm6RnuU403jfARBEBrTbuN8xEAsQRDcSbT5CILgESL5CILgESL5CILgESL5CILgESL5CILgESL5CILgESL5CILgESL5CILgESL5CILgEf8fhQ0hwe2XjCEAAAAASUVORK5CYII=;" vertex="1" parent="1">
          <mxGeometry x="-140" y="2090" width="287" height="221" as="geometry" />
        </mxCell>
        <mxCell id="ZQSnCNjEJaoJJcT3hJNP-131" value="Filiere" style="text;html=1;align=center;verticalAlign=middle;whiteSpace=wrap;rounded=0;fontSize=16;" vertex="1" parent="1">
          <mxGeometry x="-130" y="2030" width="60" height="30" as="geometry" />
        </mxCell>
        <mxCell id="ZQSnCNjEJaoJJcT3hJNP-132" value="" style="shape=image;verticalLabelPosition=bottom;labelBackgroundColor=default;verticalAlign=top;aspect=fixed;imageAspect=0;image=data:image/png,iVBORw0KGgoAAAANSUhEUgAAAxoAAACLCAYAAADmku8pAAAABHNCSVQICAgIfAhkiAAAABl0RVh0U29mdHdhcmUAZ25vbWUtc2NyZWVuc2hvdO8Dvz4AAAApdEVYdENyZWF0aW9uIFRpbWUAbWFyLiAyMyBhdnJpbCAyMDI0IDE0OjUxOjEye0LoRwAAIABJREFUeJzs3XlcVOX+wPHPDDPDMoCDCKiDigukQCqZ6A1NyS6V6C3MrNTqp3VdikrNUm+mZZaZlmWUV+vKz3tRq6tRiZXc+qlXUYEQXEDDDYVJYUSGZYBZmPn9gYwbqwyL9rxfL18vmXPOc545yzPP9zzLkXTu3Nnq6elJWVkZgiAIgiAIgiAI9iBt6wwIgiAIgiAIgnD7EYGGIAiCIAiCIAh2JwINQRAEQRAEQRDsTtbWGbhVbd26ta2zYDePPvpoW2dBEARBEARBuM1IagaDK5XKts6LIAiCIAiCIAi3iWtaNPLz8+td2Wq1IpFIWjRDgiAIgiAIgiDc+sQYDUEQBEEQBEEQ7E4EGoIgCIIgCIIg2J0INARBEARBEARBsDsRaNwuPCPw/3METm2dD2hfeREEQRAEQRDahAg0bheFWVT2ncegMN+2zkn7yosgCIIgCILQJq6Z3rbps0654TNuJX95cgSdXaHsQha/bZjLD7tOQ7fX+Ov/zqTz1Qlc2sI/H3uVs8qJPLllEmenRbIv97qd1LcdgPJeQl9bRFhob5yMWi4mLWfTKhj9/Ur6Km7M88WtUaz5LKPhI6GK4LXJBayKycDU8Nog/zN/2bKOAa5Xf5jO9vHjONh5KS/GTEIFgIGyk7vZ/dFcDh4rBcCh9xQefm0md/Rxp/LcbnYvncvBUwZ8nv+FaY9CcvQoEo8ZoV91OuatT7Dms+SG8+Q8lsGvjOXC6mnkljTmS7SgJuelF/es/YHe24bxr4SL1y1T0HthKhPD3a/6LIsdEyNJ6b6aV98bi+7zUXz+5WmQ/5lxW9YRdGE5q6evp1Md250a+zPPP9m7lnzsZuuD/0NWfRdBn1Cm/89d+PfohMuJH3hlyUEqapbJPRn2chSPDOgEOg0HvviGLYf0DS8TBEEQBEG4zTTvhX0DFjHhSXeSF41i/UkDroER9L664m08wHcTp5FZVvOBgarGpFvndr24a8knDCn7iE0Tt3CRQO4I80JmSuCbvyRWf6HwT5jzTB7/nLacC0aA0vr35RVB9ONydiYAKPAOncIE/3RiNjYi4DBqObRoNNtTDFfyaQI6g7kska/Hv8hvCl96v7COCQvnkT9pIRr6MeS1WXgeepHV0Vl0+usGJiychWbKcgDKLkCP8EA4loVPeAhcaELEULGN1KXbGr9+S7JrXoycWj6Md1cFMipmA56bh/H1zpLqY90dzJfycAqLoMOXf6ds4Fg8y7SYjQ1s98Vo3t3gCIpARsRswGfrML7eYcB2Dutj0pH9n0T2+93Hsz2uXeQzPopHvE4RMz2WSwP/wqsvjyY7+t8cLq9/mSAIgiAIwu2mWV2nOvQLxPXkFtKOaagyXaT40CYOJp2+Zh1zWSlVppp/xkanXet2vacypE8Wuz+KJb+olKqiZLISEigG27pmI2AEs75m2wZ2pE1kbbyO0MljCB44gQnqFGIbE2TY8llSz/czgv40p7buRtcxEB8PoNtYgrpnkbzhv+hNFzm7YSN5nUcQdPnhuvnYAXT9xuIjDySon5ZTx5rbNDGCQSt+4c5ul/90n8moTzfQ9XKIKe02laHvpvLIut945KNfGBp21VN+z/EMWri3etmKL7kz2OuqdCMY/NEPDBz5DiPfTWXsp6mMGj+0mXmth6mUKr0BM2A2llx7rC8d4JRxBL193PAN701+ahbmBrczVp8z/eXjazQ0/ho9m83O3afJKzBft8CTAQM7ceaHfeSUV1Gybx+HdD3400CHBpYJgiAIgiDcfpoVaJQdy6Js4EweHjcGHx83e+WpTo79eqO6kI6myI6JylUEhYagRkeRXo/cP4yBfi523IEbnoNDUJWdorAM6N4bVVkexTU9ZvR5FJf54tntcr+vst38dimEoPCx9LiUyG9ldaVrD16oH5uFcu80vp92B98umsupczWtMyHc+coiVKde56dp/dm+IQ/1c+/Q2fmqzeW96XbXKdIWDWbbC6PYv/NUS2a2Hlp+S4U7wscS1DuLzAxDw5u0BHkHfL3KuKR1ov+TDzGsTxl5Whkde6jqXyYIgiAIgnAbalbXqapDr7Np+Tzue3QeT7/wCZxM5Jf353Lw1OXuSoqhPLzlEJE1G2R9xGcLYmmwV3od28lc3cFYQmVzMn09pR8qTTzLdwYxe3IBq9brCQtRI8850XCrhsKLQe+lEnT5Ibg5azmfLdiEAZC5jmDclkOYFY7ILh3gl0XLOWsCB7kjMqPhyhN3DJiNIFM4Xv67hFNJJYz4awQXP3+CysCZ9vy2tXBE3qU3SucsSkvS0dY0oPQaj9rlABn/3l19vI+u4dTFL+nW25ELR2sq8iX8vn0jpebq/5cXtnBW66FL2o3Th7NQHXqdX0zj2ygXTsjlZgqNKgLuuQMf7T4OmECukDWwTBAEQRAE4fbTzFqOkcJdb/PvXW+Dshe9//oJ4xbOQjPlbfIBjOn8Ej2XTFtvFW3DQUY92zmWlYDCHSdoXDqNoctgVwrg4sWJbB2m8hx2JTVyW6OWzFVPsOPY5b/LtNRUwc1lB9g+7XXOdowgYuFUOnes/rzKZKgOPmyJOCJTgNl45Sm8PmkLp8aO4FSSFgKb+wXroyV3w1xUE2dy78p3kJenc2rDixw5qgUXL5w6jGDwytQrq8sd0cqv2tykpeRiG7UeXC83kbRDEXTathuza1sFGpWYTDJcOMvmFz8CHBg6GExGcwPLBEEQBEEQbj/2e5xaMxYhPBCVnOpAAwNlF06jb+yAB5vatzOcOoWucwhqJRTae7Ke8gziE5u+WWVRHvr82vr1GzBc0lCcH8v3n4/g+edm4pP0NvnnTqFzDaGDkupoSelLB9c88nONV4IKfQI/vJgAKFDf9Be6ko/qgfSOgAHk7kivDhYKt3Hkk20cwQvV6HWMfGwqp44up7xcS+XFLaS8+jqXmp2H1nCaw0vHAeAQ1kZZMBWTp3XFX+0IJw1AJ3y9zFzarQMTdS8TBEEQBEG4DTVrjIbDgBlEjLkXTw83kPei96MRqC6c4uJVAYJMocBBfuXfFY6gcKtjWR3bHVtP2rlARrw2ER+lAgePgdwxZgwdmvMlWoEhaQ2ZivHcO7IT5CZy6kIIQ565F0d5J9RPTsL3wm4yW2x4Qx4lxV549vYCHHG7ayhXJnv1QhUyFpW7I3B5NibT5b5Tp7egMUUQ9OehyAFkvtXrtnhPH8c6rglFdbczqruZXX+91O1mt2uA3AEuJyWX1wzoLuRQxkV6jr4HPxcH3O+5hwGqs+zPqGpgmSAIgiAIwu2neWM0ygy4PvAOU1/wxUlhQJeVyI73P8LWVV8xlIe//42HbVscYOuDT5IFoOjNqHWHGWVbpiVtzjB+uFTPdqbTpCx6Edlri5i45R2c0HJx53K+TmjOt2gFpmSSt+Xx/JNT8dz1PruXLke18BPmPOqI+dxufln6EfmAT4vsPI/cb7fR87l4IsPz0J3SUoKjbanTnTMZ9NxKnORgvHiAw19spHq21XQyP1hOyHMriXzMCwdTCSWntpB2pCWnz3XEb/Ze/jb7yicXN0ex5ousa9+jMe8wf5t3+T0a9aanqHu7+l8ZU7/Ah3h78SA8AfDlvbjR5H67hmWbC8nfEs+36seIXjsEuU7Dno+/sU1fW98yQRAEQRCE200zX9gnCIIgCIIgCIJwo2Z1nRIEQRAEQRAEQaiNCDQEQRAEQRAEQbA7EWgIgiAIgiAIgmB3ItAQBEEQBEEQBMHuRKAhCIIgCIIgCILdiUBDEARBEARBEAS7E4GGIAiCIAiCIAh2JwINQRAEQRAEQRDsrkmBhnhZnyAIgiAIgiAIjSFaNARBEARBEARBsDsRaAiCIAiCIAiCYHci0BAEQRAEQRAEwe5EoCEIgiAIgiAIgt2JQEMQBEEQBEEQBLuTtXUGBKE9scoccPDuiMSzA1I3F6yVRiwXdVi0RVBhaOvsCYIgCIIg3DKuCTR8fHzaKh+C0KasWDEG9cQU4g/S2hv6HE79jlNyFhJzVSvnThAEQRAE4dZjCzTy8/PbMh+C0HZcnHAaMxyHHl3qXa2qd1dKO7pi+DEJi0bbSpkTBEEQBEG4NYkxGsIfnuK+wQ0GGTWkHu44jh0BjooWzpUgCIIgCMKtrdXGaHTs2LG1diW0U5cuXWrrLNzAoa8f8n49m7SN1M0FxX13Y/xxXwvlShAEQRAE4dYnWjSEPzR5aHDtCxw6MHLos+yODMG1tu2C+yBROrdo3gRBEARBEG5lYtYp4Y9L5oDUy+PGzx2688pfHuJOo7nezaVdOlF1MreFMicIgiAIgnBrEy0awh+WtEsnJFLJjQuqNHzy/RdMO5RPaT2xhrRrp5bLnCAIQh2sVqtd06pJzx7pXp2GvfJpz+8rCELrEi0awh+XzKGOBVUYq6Dpw73leAWFEjowiJ7eSuQmPTpNDunpe8nIKW9eXv9AHBwccHZ2RiaT4eDggExmn2LKbDZTVVWF2WymoqKCqioxTbFw67FarUgktTwguUkSicQWbNgj3Zr0av5vDzVp2vN7C4LQOhr5C+6CX1gUUREh+HnLMWlOkJTwFQkZWkwtmz/hD0gVFMmUKRHIExbz/i5d9YcuocxeNgn5rljWJWSgs8OFZy0oatb2lqu29xo4iSlTHmCIr/KG9cZMnkJRdhJfr11P4s0GHDI5mO14t8msyM0SO9y/MsIDgol0vapx1FLCt0dPsrf+nme1UigUdOjQAWkd7zJpDplMhkwmw9HREWdnZ4qLizEajXbfj105mQjycCDzfDtqfA4YgPSvveCXPVh+utjWufnDaYnKtr3TvBXyKAhC62hEoOFC0LQlzA7SsH1jLPEaPUr/MKKmL2NgwlKWbs8RwYZgN6qRC1n9YghKgKkLeSvchEJhRC9XE+LrAZPfIGTgel5avJ3mvsnCqq/AUlaO1NXlpravDjRcCJr0BvPGBXBjiFFDgUdAONOX+RO09n1W7dI0cU8umJ7+BPPeGThn2+NusxDx1HkCktTEZDc3LRme8irSfjvM9goAJQ8HdcdTBjQx0HB1dcXFxQWz2UxpaSkmk8nW6uDg4IBcLsfFxQW5XN7cTCOVSlGpVOj1evR6fYPr+036mGVjvBuZuonsuJdYvF3XvEzKjEyaeoFxXWTs+Fdn1mXbIdjoMg9V3wPodu6++TTuDUYiL4cnx+Mw6iiWj/Zj1di7dUiOyksFOq1dHioIgiAIbaPhQMP/caaFaFj3yipSah7GanLIzNTy1rLpRKQsYLud310ml8sJuSsUJ2cnZA4yzFVmUpP3U1Ehup/c7nQpiaQXhTDMA1D2JPiGSaH0ZO5ManaQUcOUkonjfYObvl32WayXilFHLqsOMoqySde4EBDse2PAYSwgO7MAl6Bghr24EJPuFWIybtFr2akLCwLVdL6qziuXSqHfXQy96m9T8N3cZ1vDwgVNFsvOV9aZrFwux9nZmYqKCkpLS29YXlVVRVVVFZWVlbi6uqJU1h3WNZZEIkGpVGI0GjGZ6q/NyhUKFIrGdqZToKCZwZDMROTUAobJZOjLJAQ9VsCUf/oQm9vMp7rK3sg985qXhtwBzqRQ9boBycxRSD+ehHXzL1i2NjWAvp4K/5GRjAkPJSjAG4VeD0ol6HI4mrKT7fGJZDYzdhMEQRBaV4OBhjo0CEX62itBRg3tThKzJxMR5ML2XfarNLm6utF/wF2k/ZqMwVBdMZFKpQwZOoyzZ8/wu6adz/Ij9aBHoDslWWcpsrRFBpzwCQzA6dxhzpa1xf6bxyUglADbRFBGivJy0JTLUfv1xEMBoMQvJAjVriQaqnM4dBuLRzcvpA3U+SqKzVg63Pi5MS+BMbXUyaz6Cow/7QevSKZNrm7JKMqIY2lMJi5+oYR46yko0GFChUqtwpSZRKbOi6hlf2dygDfh0yez86V1ZN6KT2orz7MivYjIfnfgnnuELWX1DNKUuDL+zm6U/HaM7ZV1ryeRSHB3d6e8vLxRrQtlZdUXtr2CDXd3dy5dutSOBpyaiXiqgDGlHVm6q4K3wpxZmlTJwqcLiFrvTfz5dtKFRH8R68qvqLrrLqQzx+Iw/ASWj3dhPdP01g25Oozps6czkHS2fx1D7FINqDyQ6wsweYcQNiaK2asjyYxbRUyiaEUX2hMvRkZPx2PHUuJPtHVeBKH9aTDQUCmV6LW1BRImdOV6FB5KwH6BRlBwf/YlXdusb7FY2L/vv9wd+qcmBhpSXHz6EtTHC1eFFIu5krJzR0hryRq4zIVOXh5Ucrbl9lF/BnDr0AHF5cq1a7f+dDceJyu/nfdFB8CPqCnheAMYz5CwfCmxGTVjNIKY9MY8xgUo8Rg2mQmJKayrr6YuG0ufVz/BywWMpxIpKqx7VVepAS1ZWGi4kmu1WKlM2AMGI/5jxhBse8hdfcDLc1JIyqn5TAM5V21cE/B4hxMVFkemHQP01mS2WgALZouFivrq5tbLkbbFWm8vKoVCgdVqbVSQUaOsrAxHR0e7DBSXyWQoFAoMBkOz02q+KsKezGcCHVi82YWCgAoAdNkdWRpfyJKntejXe5No51bkZjl4EMvzp5E8dz/SFU9j/f4XLJvP0dhoQK6OYOFbE1DsXM7cjdkoR05n4T9C8dbrMSqV6I/GsWrVAnbuiGLevCUsUS5iUbwINlqdTI0pah4VdytQxMzAqZ0/87NRRfDW6ikEyAGFAgVcHpulIWHBXDbm1L6Zf9RCHihaS8yuhm42FT39/VDulXPDRa8KZdq8KQxTKzEWpBC3KoYm95wVhFtc3b/S6ghee20yIb5KFKxm6+S6VlzNF2E7Wbd0HSnNbNZ279ABiaTufshlpSX07hPAqZON7Fiu6EK/wA6UZuwntcgIMidcZLdChdtepDh38MCttB0NJK2VipGvvcXjPZWoLneDP5Ow6kqQAVCeycYPvyJ49VQCFN6Ez1tNSJGGhPeXsr3WgtsdGbs5/S/o+hAUfjqNSyV17L7zVAJfnUJRyhZKeuigjifbpmNnMO7YDyYzoCZ0YE2f/TPsjM9o4Dtq2ZmQTtSLIShREBAagnxX0m1RWZIpuzPbs4hV50rBrQezPS6y6py+0UM0HB0dqaioaPJ+y8vLcXd3b/J2tWlcoFFE+vpVJKgmM29cAJxJYHmshojZ0xniUcDeTz5kp3pq9bKb5DLoEpPd3Fm63hUNXNMBS5vlyVJnLQsfKyX9Mze7dR+0C5MO65otVP0ShHTWaByGnsby0S6s2Q2Ut6pQpi+cAPFLWbQ9B/nAaJY9riJh0Qy255SDXM3I2QtZGK3jpVXxLF2sZ97CecwuWMD7SU39wVExMGoKj0eE4KeSg0lHzt5Ylq9LabB19NpkwoiO9mPn0o1k1ruiF6FTpjMpLABvJehy9hL34TqS2tWJaxxL4HQqxoVT5aYACto6O02jS2Tx04kA+E9ZwxuqWJ5dldJA2SvH2z8AvxNNn3vwChUjo6MJOrOcGQuy8Z60jCXRkWQuaP74QkG4ldQZaPhFRKLO/JCZC3Lqn+fTKGfgnGVEhsaRkti8J7Te3p0pK6urNghlpaV0VXdrfKAhlSLDgtl0ucpjrqS8pvYjdUUd2A+/Dk7IpGaKzx/n6MkizDihHjiIXm4ypFIzZZosDp0swiz1JGBQX3xcZEgxk394P8eLnejSN4heXi7IMFN8Mo0MLeDgQd+wEfSVgqVSy8kjWZy/5tAo8AkMoY+XEzKgUpNG8slK3HsE0s+3AwoZmItyOHI0lzILuHQJ5s4+niiwYCk9TVrGedyCh9OrNJnks5WAK33+FIIiew9ZNzy5l+LmN5jh3cFSfJLUw4V06DuAAB8XpBYLlecPkXqy7mPeOuR4ePvibRtrW0RORi3Rgzab7AII8AWF0htvpRFVA92iKpNe5JjnlwTNeodjK16n9Pr6rPtY/F+YieTHZ7iQMpR+b4SQ9+FS9J1USN1csBpMWLRFWLRFUHFVRVSuRl2T36Jsasvu9XSZ6WgIIQBQenvjDdywmUcoxgFqrg11lFR5KbAOeBxD1+ue+lecQZ6cUfcLcTwqiOxvuu4WthLkbUE1oISoLtetX6lgb7JT034I5Qp8LjehyeWO+DRxsLZcLqe8vOllR0PjKpqah8bQ63TouFx5NunQ6/TUZMNUXo5OZ2xW8Fie5sXMtLqXaxpY3uayM7G8fA7Jk/cjffcxrG9uxHK0rpXVRM6ehl/KKhZsz8GEnNCIgRTEz60OMgBMGnbFxBG6OpJhLikkahJZvlzJkoXziNIsIj6nsUdbTtC0t5gTlEPchy+x84QOk4uaILWxaUEGgNIPvwBvlLU8wL6WCQpSiJm7lBN6NZELlzHl8RSSYhp6KGE/KpUHrq6u5OU1r/lB4qyCohTkBSGYetspc0C/wGB+O56FxdIm/YwBF4KiopkSEYy30khR9k5iYzZS/YxLTs+ot/giEkzZX7Pg/US8Ji1jXrgahcJIUfZ2YpbHc6Kua8BlIMOCCtgVm0k5kBOfyJkx4YR6bbf7uFZBaM/qDDTkgEmvRVeuu6pnlAsqlQndddOA6HSgkCtobheqokuF+Af0rXO50tUVvf7GgaJ1qjzPSU1XggeH4ZF/jnPnNOSXmQEp7gF30t18nOSkIswKL4IHB9KrIInskko0GUnVFUCFD/2HBKDOS+asxQk3Vz3ZuzPIt3A5jRD6KM6RvieXMosUqdRSfUSrisjen8F5swyPvoPp38eL/MNarhSlMpzcFBQd3UNWYfWnMq9g7vQu5lDyYcosTqj7DyGoWyHJZx3p3qsDpUf3kFVkgcvTfro1+iBYKM1JvRyQAC596OVj4GRSKvlmW3LtjBKVlws3XE9yD2p7kXf9StB/M43sDl/SL3oqR1asxxZryIbi+8IilEfncuTnLKzuQ3GQOiA9f5Gq8xepv6f51RVTBfIGKx2A4qohwvI6ZrqSybE6qa5NHkX1/mRycFNdn2j9+5SBytmK4po73QJYkcuqULldfwG0/jgFmUx2U++0sOd7MBoXaHgwbM5qhtX8GTCZ91bX/FHdyhZutxzZgyMOfmORFmzBVGfR7IWsz1CsZ7Zht8NpKseaVwJGFSgdoK47yWsgoT11pMdmXr51lKiUoCu4LpguL0BnUqL0AMrBlLOXvdoowkO8ic9pZD8UVQQTwmHnohgSa2qG5RoyL/epVw2cQvSUMAI8FBgLjhK/NobtJ8qR+0cxLzqSACUYTdnELXifXYBcGUr0mi8woiNp1Vx2DlzJktBM3n45livd9HWkbE+8/H8N2Tl6FF7VZYApaAoro8PwViqQY0RzNIMC7yACvJUojBp2xiwnNkNX+/4bGRm5uXdg2L3h7PgpoXEb1EOSthxlGpij/m7XQKOw8CIRD44h8aeENgk2XEKjmR0JcYufZZdGRdjsJcyJ1vDS0iTAxJn4xcyNv3KN6TYu4LmNAF5ELvuAyeE7WZxYR+LearzQUVDTAGTSoTOpqh9QiUBD+ANpUgdneeh0VkakM3Pprhbp8lFYeJFe9RQ23Xv0ZN/epkzLaKYwO5k95zzw8VXjNygMv/OHScs20dlTiUIayBDP6jWlMinFzjIoU+AT0A8/j+rWBpkMjArghglzXOjsKaUoW0OZBcDC1Vmv/r+ZIm0p9HHBidrCsCsbdPDyROHiwYAhvpczBBidgWK0RRAYEEifc+fIyy+hsjkvdK8soLByAL2CA5DlnuN8Yd0zAbUeLTuWv0SK0p9JS15kiFJBSNRkglLWkWk7aHL8J0wgRAlg5Oj6BazL0FPUqHpGHrrYaZx7dQNBL8Cxf22hUh6Cz1Mr6VyynENf7W4gqKiFqQCdDvAGPPwJ8YOMBgYCqoIGor78f6NOQ61v8dAm4fhT0nUfumDyCsWcFodjU6e31Tqz8Sfn6z60EOFVTkCaB7HNnt62+cxmMw4ODpjNTZsP18Ghrhcu3lwebkeS7lNRjQih+MvXMd7QM8wd2b0b8OiTju7MtqbfA7Xx7o7k5ZFIfcuxrtmCJbmeVLXbWRcXyluzp5GxYB2Z5Tqyc/SMGRaES0aGrbyU+w8jiBxiCwDk+E+aRxTxLE1ofGd3eUAAPfUnam8B8Ypg9pyBaGMW8HSKDnXEPN6aNxXNzLUoo6LwyljEs7E5mORy5CZACSZ9CjEzV5FyOTm5Pp6vNAU3tlDWUEcwOczI3lXpmAC5ygtv3XZemRmPVjWShasnQ8xLPJdiQh21hJWTw0nMSMCvtv03gpt7B0aMHMVPP2zDbM/379hZQf4FDqalEPFAJIk7trdysCEnOCwYU8rb7NKYAC1J8XuZsCSUIPn1ZTCAC/6R05kaEYBKAXKlHJ1X8yekEITbXRNrrPKbeFty05w+mc2Ikffj6Ohk+8zBwYF7R96PXCZHr2/6QG5LZRHnTx4lNT0fmboHXjIpYKLo+H6SkpJISkpiz+49HM43o+jSj75uF8lMTiJp/yHqmZGzcUfPYsEilTe8qhTM+Udt+Unas5ukrELATGHWfpKPacEriCF/CsRTVhOi3ETAYSnhZPJ+jmgMePQZQlh/nxY/p41RrtWgydnF1/Fnqjum+D7Awg/eInpSJJGRk4h+azVLxvWszmteInGJOWg02ia0oWVxYdU0zpWP5Y7Fexn8t0V4XFzOkU+33GTQnENGds2TV18ipk8hqJ7XccjVEURPCLYda01Gph2nULi1mUymmxrUba83htfk4fZjwPzfaRQXjKDD+EXIronLHHEYtAGPvnmUbHkdU7OjDAWMjcDhoweQFqVR9fwWLHsabn3WJC4n5kQQs5dU3z8n4jeSHRTNktlRjAwNJSwymiXzQtF89RUZJhf8oxYyb5iGdcvjaXSvKYB6pht2CQoloGAXX6VoAROaxHgyGMiwABPZKdkow6KJnhSGv7LuRktTThLbd52o9Z6Wq0fy2sIoTF+/T2xtE1joMsnUKFHITdX7P5pNgUqNF40Aqrr9AAAgAElEQVTf/9Xc3NwZNnxkuw8yahTkX+DXX5O5P+KhtslAfYfo6jLdL4rox1Xsff8lZs58iZj0BiavKNCgRXWlS7BchUquQ3OLDXERhOZqdx1nCgsvcmD/XkaMHMWUZ2cycfIUxo1/klMnf0NfXsbdoX9qfGJSFzzcnS5/SSkKpQKpxYLZUoa2yIKHXy/cL9dVpDIZUqqn0sVixlwzYU6diZejLbTg2U1NzUuRm9MNqVhbhNSrB2qXy4nIZJebm6TVrSol+Zw8mk2h1AMvFwv60kqcvL1wuWGflsvbSAELBrMZhZtbdVpSKSBDJjVTpj1L1rHzWDy86NCOroKchDiSLj/qV3gHEz5uKlOnjiM82PtyJV1P8sa4uvvF1secTkFsFAdf6c+BV0aRGbeFm59nyER64l4K0JO9I46dpnCW/P1j3po9iTD1lUqNamAU0QtXsmbldEJqun3p00nceRu1nVuqqLBWtwiYzFVUNPGppNlsxsWl6S9NvJlt6svD7SkP44/PUFIcgcf4mVTHZo7IgtbRcUgJZV++iKG5Q7TUPZGumITDeCWWj7+kamUmjZjA7bJyMmKWEqsJZd4HrxHplU3MK8tJ1PkxLDKSiCAjO1ctYFWKkojZy3gj0sTXS2OaPPGI6cwJCpT+hKgbXvdq2l1LmbkgjkxlBHNWr2RKUM293chxSKowohdORhG/lOWJmjrqtKbqhys1SZqM1X/I69t/PSRwq71EW4Kkrjk4WpCJoylHkYdGMVItB1SERg3DIzuFTJMJnU6PSu2HC5e7VsoVgAm9/vqzaMKIAhfldeemPIO9md6MjAzCBTl+URH0zNlLym1U9AtCYzTpkaCpIIOUzLoKS/sxGCpJ3LH9hs81ebl4efs0PiGnDqjv6EV/VwVSwFxZxPmjWWgtFjiezsnAfgwIG4EUsJTnkJ56lrLzJ9F49mXwiF6X32xczrla600WirIPcTIwiJDhvZBSPbA6OedmvjGY87M47BRIwKDh9JEC5iJOph1GU+mK36ABqJ2qp/k1Fp3mSAlUlh3jtEdQdT4tFizmMs4ZACq5kFdGSN/+dCnO4Py50xQNCGT4CDCX55CeaeGOQb1wxYIFM8Wnj1DYVuPwaqEKHUNoveMwlIREhuOVktjm3VxNmV8TlxzKnPAwUpYuJy5yCmHeCvRFV+4QncmLgSE9ufKVjJyJjyPxNnrxmLnkDG/UVFZLTl35fyNVVlbi4uKCUqls9BS3rq6udnlDOGB7EWB9TsTO5NFYADkDo9fwRrgH6M+wY+0qYpNarkw0mSXozc2tNZ7CkDCNsvEb8LjPEalDCB7eeZT9+wkqSpozpa8LPDoShyfVsGcPVW8eb0KAcTUtSateoSBiOtPnrWaM9ijpKRnsTdRhUqoJiJjN6pCe6NO/Yvnc7Tf30j7tDr5OiSR6djTZq9aTlFMOci/81XAiM4XsqZE8HrqTmBQ96ogoBpJJTDbIXVxAm0HiumxQ/4OIgd6wXYteHoK/t5wUDcjlJlCHEeFXwM5rWjVcCJ02Bb/0VcytM8ioX637z6y/y1hpSQlJe3bz4ENj+OnHhHbfquHt05lBdw/hpx+3tfq+y5NiWOU9hylv/YOpCijK3sGHMbvQAbrt8WS/Np1/bJ6OPmcHSxcksHHvHKas/ieTjUbARE6mESggZdcZ5k2fQ0Tm0qvKdh271sYQMGc2f9+swKhJZ/0qMeOU8MdTZ6BhAuRKFXKuKiBzEonJuX5NF5QuYGylskxbkN/4lcvPczT1fO3LLGVojqbe2KfWXMTJjP2cvGEDDWk7r1vbUobmaPJ1aZRcu15RFnv235AxzibvuX7HFJ09TPINr98o4WTynhvzYykhN2M/N84lYqEsN409NQuM5zm6/9pjkLan/U6ArkuPY/0OJZMfCMC0YxEvxZ5BLjdh8p7AsmXj8NbsJC5ubyMKa0M9rVF2yy1JMavwWzKPqClhrF27iuU6Pbqr+0/o9ejBFmgU7I1heXxOi+esNciQIKtv8Hgj68cWi4WSkhI6dOiARCKxvZCvLm5ubjg7Xz/u5OZYrVZKSkqa0DfchAkTRdkJxHwYWz3LXEs63ZGXT9sjoSwq4qfB+A106KqlfMszVGibEWT49kX6US8kSg2WNzdiPdrcjoDlnEhcxdydKvxDQgkdGERokBKFXseZ7EQ+jEvhhLZZ83mRErOYtZOnMGHhP4hWAiY9mvQ4lq9KZFWMmtmTVvLPaAXGoqPEL19LhklO6PQPiA5VYsSISZNEXKIGdEXEJ4YTveyfPICO9LWvEO8XxeOhmWTvOnFlMLg8gLAAD7wVs1kTevkzUwYxL8U0MC2uLQFCptay/0YoLtax57877R5syOJn4B5vl6SAa4MMayuMzzgRO5Onr/mknMz4pcyt7TtpEnn/5WtHeuesW0DKulrSjV/Mc7WloU1h3YIUatlEEP4wJJ07d7Z6enre+OPuF8nCeY8T5K1soA+/Ef2ZJNYujaG+ac07duxoh+wKt7JLly41el252g/vohw0Vw0G9/LzRp+jaeTYhhB6vL0O9/Tl5P5W0oi5lByRh8ykV7dtHFq2pmldquRqRk6fzdTwnij1e1n+7JVBovhN4uMPxuFrLCD96xhi4jObPp0mVM9EValrbN294Sw7WZBXSm9ynIiM8ID+PKZqRIOoWcemw9nsbUTPJFdXV5RKJSaTifLyckwmk21mKQcHB+RyOS4uLnZryQDQ6/UNBjbXU/n5QU7OTZ3HNufQGwellqqSZvSXumskDi93x3pgD5YvzjT6xXxC67PX9LYtpW+/YH77LatVggxBENpG3YGGnYlAQ2hKoGEPEs+xqB8dT4cO7o0YjGTAfDGd37d+RPFNdieRq0OJGAgp21OutLi4BBHxgBdndiZxQidqZA2RyWS4u7vbNZiojclkoqSk5DYemyEIgiAIbU8EGkKrae1AQ7h1OTo6IpfLUSgUdgs6TCYTJpMJo9HYiLeAC4IgCILQXPabH1IQBMFODAaDCAYEQRAE4RbXjiY2FQRBEAShPlarFasd54KtSc9e6dakYc982vP7CoLQukSLhiAIgiDcIiR2fklGS6Vnz3TtnUdBEFqPaNEQBEEQBEEQBMHuWq1FQwwEFgRBEARBEIQ/DtGiIQiCIAiCIAiC3d3QomE0GsXAK0EQBEEQBEEQmuWaFg2j0YhFvKFTEARBEARBEIRmsgUaZrMZq9UqZncQBEEQBEEQBKHZbIFGVVVVW+ZDEARBEARBEITbiC3QEOMyBEEQBEEQBEGwF1ugIbpM/bE5Kqy4K8X4HEEQBEEQBME+xJvB/+CkUiszHy3BXWnBaJLg4mRlzRZ3LhY7tHXWBEEQBEEQhFuYeI9GO9IW3dcmPVhG+m+OvPe/Kj7b4s66eHeef6zkhvUefvhhJk+eXGsan376Kf7+/i2d1Sb5o3cFnD9/PnfddRd33HEHq1evbuvsNOhWOF/ffPMNSqWyrbPRKLfC8WwrrVFetdXx9/f3Z/369UyfPr3eMrsu4eHhLZSz9qmt75PmlCmDBg3C3d3dzjlq/+xxzmbPns2aNWvo2bMn//rXv3B0dLzmt7Lm97Ol1bWfsLAwFi9e3OL7by2iRaMdaYtZv3qpTfzrBzfC765g7PBy5qzy5EKhA51UVVzUXWnV+O6771o1X831R59B7b333gPgjjvuaOOcNE57OF9SqfS2md67PRzP9qCtzmlbHf/+/fuTmprK2rVra11e3/GQSqVMnDiRnTt3tmQW25Vb+T55+OGHWbduHSUlNz4YvJ3Z45wNGzaMqVOnUlxczFNPPXXD8prfz8aSSCQ3FQA1dT+3KhFo/MFVWapv2D3pThw8rgBAIgHzdZOQjR8/Hnd3d9avX4+/vz/PP/88RUVF5OfnI5WKhrGrRXp44C6TsVmrrXc9uVzOc889R+fOnZFKpVy6dInPPvsMg8HA119/zcaNG+nRowd9+/blyy+/JDAwkC5dulBSUsIHH3wAwLPPPkvfvn0xGo1UVVXxwQcfUFxczFtvvUVCQsIf7keoRmPPgb+/P8899xyXLl1Cq9USFxfHjBkz6NKlC1arlYKCAtasWYPBYLhmu9GjRzN8+HAMBgNSqZQ1a9Zw/vx5nnvuOfz9/ZFIJBgMBlatWsWlS5da8qvajadMxqLu3Xn59OkG1/3222/ZtGkTarUatVrNTz/9xM8//4ybmxuzZs3CxcUFqVTK2bNn+eyzzwBqPTZGo5E5c+bg6OiIs7MzOTk5fP3117zzzjs8++yzALz55puUlpbywQcfIJFIiIuLY/r06fTu3ZuJEydiMBhwcnLiyy+/5ODBg4wbN44ePXrg6enJzz//jEajueXLq7g77mDyb7/Vu06/fv24//77kclkPPPMM+j1eluZvXXrVrZu3Uq/fv1Yvnz5Dcc8JiaG6OhoPD09Wbx4McuWLSMuLo6NGzfSpUsX/P39+fnnn/nxxx/rPceNKbfqK/duB025j2o09b4ZMmQIQUFBvPDCC8TGxrJ06dIWOVdQd1l3q5o5cyZyuZzZs2cTGxvLqlWrmDhx4jXr1Px+pqam1vn9Fy9ejEajoXfv3nz66adUVlYyY8YMZDIZzs7OJCcn880339Sbl6v3M3PmTPz9/Tl//jxlZWUteQhaXbMCDYlEgpubG46Ojshk9SdlNpsxGAyUlZXdNk8Nb3Xj7yvj2Onq4MJcJaG4zIHuPibclRZ0pXWP0fjrX//K1q1b2bt3L2q1msjIyFbJb+fOnSkrK2u/N6HVyhcBARgtFhylUh7w8ODZ7Gzqmjg6MjISo9FoayKdPn06Y8eOZcuWLVitVjQaDd999x2PPvooTzzxBC+88AJWq5W4uDi8vLyoqKigrKyMBQsWYDabee655xg9ejSbN29uve/cgICAALKzs1tvh008B1VVVfj7+zNz5kzy8/MZP348CoWCBQsWAPDqq6/azkmN3r17M2rUKF599VUsFgv33HMPM2bM4LPPPmP48OE888wzAAwYMABPT0+7BRr+/v6cOHHCLmld7zVfX9wdHOjl5MQ//P1ZkZfH8YqKOte3WCycP3+er7/+GpVKxdq1a0lKSqJTp04kJyeTmJgIwMcff0xwcDBarbbWY9OjRw8qKipYsmQJAPfffz+VlZUYDAZ8fHy4dOkSzs7OuLm52Y5Bbm4uJpOJ1157jXnz5pGXl4evry/Lly9n6tSpVFVV0bt3b2bNmoXZbOb999+3S3nV6tcyMMbDg/s9PPCQyfiwZ0/2lZay5eLFWtc9duwYv/zyC+7u7mzYsIHx48fblpnNZjQaDZs2beL++++/4Zi7u7uzadMmBg8ezFtvvQVUPznWarV89913dOnShWXLlvHjjz/WeY6PHj3aqHIrLCysznLPHhQKBZ07d+bcuXN2Sa8pmnof1WjqffPjjz8ybtw4Pv30U/Ly8lrsXLm7u9da1tm7W09r3ltr1qzhz3/+M++99x6VlZX1rltXWb948WKqqqpwcnKy/Va88cYb7Nixg5SUFKRSKR9++CFZWVkcP368wTwNHDiQoKAgXnrpJSwWC3PmzLnp79ce60nNCjTc3d1xcXFp3I5kMmQyGRKJhOLi4ubstkUNHz6cESNG0LlzZwwGA5mZmWzbtg1tA09GbzVPR5aiK5Xy/X+VDOpn4KF7yjGbodIoZc2W+vt99u7dm8zMTAA0Gk2rHBulUsnixYu5ePEiixcvbp/BqkTCtBMnWB8QgBSYUk8FFyAoKAi1Wk2fPn0AcHR0vKYiefLkSQCKi4s5c+aMrWm2uLgYV1dXLl68iNVqZf78+ZhMJnx9fW3npT0YPXo006ZNY/HixRw6dKh1dtrEcwBQWFhIfn4+AIGBgezZs8e2LD09nSFDhlyzflBQEJ06deKdd94BqrucODo6otVqOXPmDO+99x4pKSn8+uuvdqvs9OnTh/fee4+tW7eyadMmu6R5tffz8njd1xeAxWfPkmc0NrjNkSNHANDpdJSUlNC1a1e0Wi0PPfQQd999N2azGQ8PDzp06EBWVlatx0an0/Hoo48yf/58MjIyOHDgADqdjrS0NO68804KCgrIzs5GpVLRvXt3W9egbt26UV5eTl5eHgB5eXkYDAa6du0KQHZ2NmazGbBPedUm1zKQUFREhcXC6927k6jT8VNR0U2nVXMMDh06VOsx79Sp0w3bZGVlAVBUVGQL9goLC2s9xzUaKrcaKveaa9asWQQFBTF79uxWb028mfsI6j6mdd03tWmpc1VbWWdPbXVvNUZD3//q39ugoCDc3NyIiooCquu8Xbt2bVSg0atXL44dO2ar1xw6dIhhw4Y1Ob/ttZ7UrEDjZi44e1+k9uLs7Mz8+fPJz8/nX//6F7m5uTg7O3P33XezePFiNm/eTFJSUltn0w6sTI8qJee8jB0HXFj2wiVOa2S8G6ui+ppsuO/j9X0kW7qPq1QqZf78+XTr1o1u3boxffp01qxZ06L7vFl/cnNj+6VLmK1W/uTuzt56ui5ZrVa+++47duzYUevyqwuJ6wsMiUTC8OHDGTJkCAsWLMBoNPL00083OvBvaQMGDGDatGnIZDLmz5/PK6+8wu+//94q+27KOQAwNlAZuL7vrdVq5ciRI6xcufKGdd98803UajUDBw7kb3/7G19++SW7du1q8ne4WseOHXnjjTdwdHTkySef5Ny5c+zdu7dZad6wD5kMqUTCS6dO8RdPTz5rRNcIBweHa/5vtVp56qmnMJlMvPvuuwCsWLECqL5+6zo2L7zwAn369GHQoEGsXr2aBQsW8Ouvv3LfffdRVFTEoUOH8PDwoH///gwYMIDPP/8chUJRa55qztXV57S55VVbXssA93t48HBmJvO7dWtWoFFzTLRaba3HvLauS1eXOzXHra5zXNs2tZVbDZV7zTFx4kTuvfdeABYuXMj8+fMbvL/t6WbuI6j7mNZ331yvpc5VXWWdPbT1vdWQhr7/9eXMRx99dFP5l0gkza5Tted60k13VpVIJNf80DR6h1Jpu+wj+/LLL7Nnzx4+++wzzp49i8ViQa/Xs3v3bubPn89jjz1mewJzKxsabOBSiZTDJxXMf6aIcxcc+PxbdywWCY0JMgDOnj1L//79gepI3MvLqwVzXN20HhISYvs7MjKS0aNHt+g+b1ZSaSn/vniR+MLCBiu4mZmZDB8+3HY/REZGEhwc3Oh9eXh4kJubi9FoxN3dndDQ0Aa7MLaGrl27Mn/+fFte3NzcWLRoUavN2NSUc3C9o0ePXjMLyKBBg25oJcrMzCQkJMQ240twcDCjR4+me/fujB49Go1Gw/bt2/nxxx8JDAxs1ndRKBQsXLgQT09PoLrcnTVrlt3LoktmM2/n5nLGYGh05WjgwIEA+Pj4oFQq+f333/Hw8ODUqVNAdXeIbt26IZPJ6jw2Q4YM4c477yQ7O5vNmzeTnZ1Nr169yMzMxN/fnzvvvJPMzEwOHz7M3XffTadOnTh37pztQZBarQage/fuyGSyWn/km1NetfW1DLAgJ4dSi4XXz561S3p1HXOLxVJnAHe1us5xYzW33KvLsGHDePLJJ21/BwQEMGvWrGan2xQ3cx9B3ce0vjKlMefLHueqtrLOHtrDvdWQpnz/zMxMRo4cCVTXc5999llUKlWj9pOTk0NgYKCtTj148OAm57U915NuulZys1OMSSSSdtOcU6Nfv344ODjw888/17q8rKyM1atX8z//8z8sWrSolXNnXxIJ9OtpopfazKETjvy4r+lPwD///HOio6N54IEH0Gg0LdZvHKpvltr6VE+bNg2NRtPumlqbYvv27XTt2pUVK1ZgNpspLCzk//7v/xq9/Z49exgxYgRvv/02JSUlxMbG8vLLLzN06NAWzHX9XF1dWbRoka3pvoavry/z589vV825tUlISGDGjBm8++67SCQScnNz+eGHH65Z5/Tp08TFxfHmm29SWVmJRCLhs88+s43xuO+++zCZTFgsFmJiYpqVn9mzZxMQEHDNZ05OTixcuJA5c+a06UDzzp07s3jxYry8vFi7di2VlZV8//33zJgxg+HDh3Pu3Dk2bdrEE088wbJly+jbt+8Nx8ZqtfLSSy/xxBNPIJFI0Gq1JCcnYzab+f3333Fzc6OiooKKigp8fX1JS0sDwGAwsGLFCl566SUMBgMKhYIVK1bU+vT6ZsurW/1arsvZs2frPearVq2ydRWpTV3nuLHHtbnlXm38/f2ZNWvWDU+C7733XnJzc9vVuLXaNPW+AUhLS2P+/Pl8/vnnTU63seeqrrKuuW6Ve6sp3//vf/870dHRLFu2DIVCQVpaGjqdrlH7OXjwIPfccw+rV69Gq9WSk5NDjx49Gp3P9l5PknTu3Nnq6elJYWFhkzfu0qXLTe20vc1YMGXKFH777Tf27dtX73qffPIJc+fObbHZMSwWSyu09lhRuVXfwCVlUizW9ju1n0Kh4JFHHqnzCUxpaSnbtm2rdVnrHEvhegMHDqz3Kf7+/fs5c+bMDZ+L83Wjrl272p6Q1ebUqVMkJyfXuqylj+c333zDU089hV6vb7F9tLWbvZZBXM+t7YEHHrC1+l3ParXy/fff13qtivPUNsS9ZT/NqSe1FhFoUD2zzDfffGNrYqzLokWLWLduHRcuXGiRfIgbyH7Esby1iPNlXyLQaFvier41iPN067mVzpmXlxfPP/98rcvS0tJISEho5Ry1jbbv0N0OFBcX4+Hh0eB6KpWqXU0ZJgiC0BbGjRvX1lkQBEFo17RarW266D8yEWhQHVkOGzaMX3/9tc51fHx8qKqqEoFGK1IoFMyYMaPOmZQuXLjA//7v/7ZupoR6DR06tN7uPlu2bLFNqSjUT61W1/rW2hopKSnN7tsu1E1cy7eOCRMm0KtXr1qXGY1G1q5dK1rf2hFxb9nPrVBPEoEG1YHG+PHjGTBgQK2DZmQyGS+++GKLzF/f0ubOncvHH3+MyWSqc50+ffrw+++/U15eDlS/POjhhx8mLi4Og8GAv78/Dz/8MPv377dN8evo6Mjo0aMJDAy0DRzs0KEDEyZMYNOmTXYp1I1GI0lJSSxatOiGGc70ej1z585t9j7awvz581m9erXteN+syMhILly4QFpaGp06dSIqKory8nI2btxoW6dv3762F2QpFAr27NljezFSeHg4AQEByOVyjh8/zs8//4y/vz+DBw9m8+bNNzXhQ2pqKg8//DB33nnnDct++umndvHj0Zh7oj3QaDRoNBoef/zxG5adOnWqXU+3/cQTT3D48GHb3P436+qyyMfHhwceeMA2le6OHTvIycmhb9++PPLII5RcNcPYtm3byM3NZcaMGcjlcqqqqt+mcuHCBb799lsmT57Mf//7X3Jycurc961wLTfF0KFD6dix4w2TGzSVXC5n8uTJ/Pjjj+j1esaOHYu7uzsODg78+uuvJCcn4+TkxKuvvnpNl+yDBw9y4MABHnzwQQIDA695WdratWsJDw/HYDBc8x6bxvq///s/xo4dW2vPhJUrV96SQYa9fieCg4MJCAjgm2++YdCgQQwZMgSLxUJFRQXffvstxcXFdZ4TuVxe63k8duxYs37r29O91bVrVyIiIhqsjF9fT7r6uAKEhYURHh5ObGwsGo0GoNbf5eb+xl7vVqgnObi6ur7p4uJCRSPeXnm9mtfaN0VVVVW7vOkzMjJ4+eWXcXZ25uzZs7aXPfn7+zN37lw6d+5Mampqi44vuX6+d3vYt29fg7M3jB49mrNnz9puoKeffpqEhAR0Oh0BAQH079+fwsJCysvLyc3NBaorEsePH+eOO+6w/TAYDAbKy8u57777bC/zaq7z589TUVHBoEGDbJ9VVVXx7rvv1vsinJY4lvYybNgwkpOTb6qiW/OdAgMD6d69O//5z39QKpU8+uijHD9+HJVKZTv2EomE6dOns379elJTUzl37hyTJ09m7969DBgwgICAAGJjY0lNTWXEiBHo9XpOnDiBWq3Gx8fHdq6bwmq1kpKSQlhY2DUzihw5coT333+/zoK1Nc9XY+6J9uLw4cP4+fnRrVs322dFRUX87W9/o7S0tM7tWuN41pd+cHAw+fn5zX6ZZ01ZVFxczF//+lfi4+PZuXMnhYWFPPLIIxw4cABfX19MJhNxcXGkpqaSmppqCzqGDRvGhg0b2Lt3L6mpqRw7dgyr1crp06eZOHEiaWlpdV4LN3st12zbFuVPffv09fXF2dn5pmcJrEn7wQcfJDc3l+PHj/PII4+Qm5tLfHw8R48e5bHHHiMrKwuZTEa/fv2IiYmxnZOalysGBwdz8OBBEhISbMtqzsmDDz7I+fPn6722a1NeXk5WVhbh4eHXVLa++uorvv/++zq3u91/J9zd3YmKimLjxo14eXkxZswYvvjiCw4cOICHhwf9+vXj+PHjdZ4TV1fXWs9jc3/r29O9VVpaSkZGRoPrXV1Puvq4WiwW7r//fiwWC25ubvz222+UlpbW+bt86dKlZv3G1uZm60mtpVktGgaDockvCGupGZuaq7CwkHnz5jFu3DhWrFiBg4MDUqmUs2fPEhsbS35+Pm+++SZms5nDhw+3dXYb7fXXX+f999/n7rvvxsfHB5PJhKOjIyqVis2bNxMUFESPHj0YM2YM//nPf3B3d6ekpMQWUOXk5JCdnc2DDz54Tbr//ve/aw0yjx8/zqhRo+jSpYvdgrLvvvuObt262fKwfv162zSXLWXq1Kns2bPH9qM8fPhw3Nzc+OGHH4iIiKBbt2626Qbj4+PR6/VMnDiRwsJCunTpQkJCAm5ubtx3331YLBaqqqqIj4+3/YCGhITQq1cvPDw82LdvH7/++itdunThoYcesp2jtLQ00tPT6dq1Kw888AClpaUUFxfzn//8hxEjRvDdd98BUFlZyYYNG/D398fPz8/2HaxWK3q9HldXV0pLS3FxcbF1/QsICODQoT7Q1U4AABybSURBVEO2Av3IkSMEBgZy4sQJ9uzZw/PPP8++fftu6olLaWkpS5YsYeXKlSiVSs6fP8+7775re6rc1mruCQcHB6KiopDL5Tg6OpKfn8+2bdtwcHBg9OjRdOzYEavVSnFxMdu3b8dkMrFgwQJ27txJx44d6dq1KxkZGfV2ubSHDz74AB8fH3r37o3RaGTp0qVcvHix2en26tWLUaNG2abHlMlkzJkzhzVr1tCrVy8GDx6MwWBALpezY8cONBoN99xzD97e3ri7u5Oens6xY8cYPXo0nTp1QiaTkZ6eTmpqKoDtJWMqlYrff/+db7/9FqDR94+Xl9c1ZdG6detsAYROp7O9Q0ChUFzzJPZqdS0rLS0lOzubu+++m/3799d5jFr7WlYoFMyZM4ePP/7Y9vDvqaeeIi0tjaKiokaXD0OHDiU4OBiJRMKFCxfYvn07UP1w8LHHHkOlUmGxWNi0aRMVFf/f3v0HRXndix9/Iz4ou6hr4iJmQ7KMAppVXJKUxmAiJunaSvzB+BXbYmJIJiZmaG+1jo5Tbh1u7DBxrEwdGgJtLkk0zY3RksmoSTC9YAfyY8fKWtkmQhQS3bQFEh+Mu+I+4H7/AJ4ryiLICmg+r78S3B/PnnOec87nOb/OM3v27H7l98mTJ7HZbGzfvh3o3Kq2O33Pnz+Ppml6vgw0TwCqqqqYN2/eNW1He/z4cXbs2KE/wf3www/ZuXPngD9nIB566CHCw8M5ePAgALGxsSxatIgXX3yx3+W8vb2d9PR0IiIi9G32u0faemsnIiMjWbp0KWPGjCEsLIympiY9f3/1q19RXV1NbGwsO3fuJDU1lcOHD6NpGi0tLRQXF+vlSlVVoqOjgeB50ldeDbatHynthMViYeHChfzhD39gzpw5/eonJSUl6ekK8Ne//hW/34/NZtM/N1i7DAy6je3NcPST+mtQgcbZs2cJDw/v92nfFy5c6DG8PdJcuHCBN954I2glt3nzZiZPnjzEVxUagUCAmJgYiouLCQQCZGRkMH36dA4fPsz999/Pvn37aGlp4Z577unxxCvYqap+v5+xY8f2+m91dXXEx8eHdPSnqKgIi8XCV199pXewryeXy8WsWbP0tJg1axZvv/02Y8eOpa2tjVdeeYWOjg4WLFjAvffey6FDh/QDlF555RVGjx7NqlWrePnll1FVlZSUFJKSkvTpLl6vl507dxIdHU1WVhaHDx9m/PjxVFRU0NDQwNixY/nlL3/J0aNHuXjxIrfddhu///3vUVWV8ePHExUVpR9O1lfF3D1N5MyZM0ycOJE333wTQA8ou509e5YZM2bo16aqKrGxsXz55ZfXlH6nTp1i69atrF+/nueff37ATyiHwvTp0/H7/fr9brfbMRgM2O12Ro8erQ+lL1u2jJSUFKqrq/XAo/uJ4BNPPHHdA40LFy7w/PPPs337dkpLSzl+/HhIPvfkyZMsXryYW265hW+++YbExEROnz7Nt99+S2RkJHv37uXMmTMkJibyyCOP8Oqrr3Lx4kWmTJlCSUkJHR0d3H///UBnoxYREcFPf/pTamtrATAajfzpT38iPDycX/ziF0ycOJHz58/36/4BuP/++3vURZeW17S0NJxOJwCRkZHcfvvtPPnkk4wZM4aGhgY++OAD2tvbGTt2LI8++ihms5m2tjYqKyv1Tlx9fT1z5szpM9CAoS3Lfr+furo6ZsyYwZEjR4iKiiImJobjx48zbdq0ftUPt912G3fffTfFxcV0dHSwdOlSfU/+yZMnU1JSgqZpZGZmMn36dGpqavqd30lJSTQ2Nup1zqWzE+x2O6qq0tTUxJ133klkZCQrV65k3LhxtLS0cPDgQVRVJTIyknvuuYcHH3yQsLAwjhw5ot9Dn3/+ORkZGYwaNeqaRh0rKyuJjY3le9/7Hr/97W9DkCN9c7lcrFq1Sg80kpKScLlc/W4noPM082PHjvH3v/+d2NhYvv/97+tlNFg78dlnn1FTUwN0HtR255138sUXX9DR0cHXX3+tnxweHx+v128dHR36rIWIiAjmzJnDu+++CxA0TyIjI4PmIwy+rR9p7UR/+0nLli3r0U/srZ/UV7scija2N0PdT+qvQQUagUBgWA+MGmqtra20trYO92Vcs1OnTunR87lz53odjTKZTHz66aeD+h5VVa956+NgOjo6+M1vfnNNU/yuhdvt5uGHH0ZRFCZNmkQgENA79oFAgOXLl9Pe3q6fVNzti67Te2+99Vb8fr9eIXd3irp1d6DOnDmj54OqqjzwwAPce++9BAIBwsPD9WDu22+/1T/LZDL16yAgRVFYunQpO3fu5F//+hdTpkxhxYoVFBYWXvWpkaqqmEymQVWCf/vb33j22WdH7D3T0NBAamoqy5cv5+TJk3z22Wd4vV7uuOOOHqeBnzhxgsTERP3/u9Mk2D10PbS0tPCzn/0s5Gl57NgxkpKSqKysJCkpSe+8tLa2smDBAtrb24mMjOxxWq/H49HLT2xsrL4Ow+/395jn3F3GOzo6OHv2LAaDgTNnzvTr/oHe66LRo0ezZMkS/H6/3pk6efIk33zzDbW1tYwePZrMzEzmzp3LoUOHeP/99/n888/5+uuviYuLIzMzkx07dtDW1qaX8f4YyrJ89OhRHnjgAY4cOcKsWbOora2lo6Oj3/VDbGwsp06d0vOoeyRp8uTJNDY26k9hL617+pvfweqe++67D5vNpq9jbG1tpaqqitraWtra2pg3bx5Lly7llVde4fDhw3i9XhobG5kwYQLZ2dm0tLTQ2NiI3+/H7/cTFRV1zQ8ld+7cyTvvvDMksye++eYbzp49i9Vq5csvv2TGjBkUFRXR1tbW73IeGxurn3Nw6tSpHtNpemsnvv32W2677Tbi4+O5ePEiUVFRPfLr0s+eMGHCFfnVvZbyo48+0gOaYHmiqmrQfITQtPUjrZ3oTz+pt3QdqFC0sZcb6n5Sf90YmxGLkAjVEN1wOXfu3JANq164cIGTJ0+SkJDArFmz9A7YzJkzSUxMZM+ePezZs+eK+c7da3vCwsL6nEfaW14sX76c2tpa3nrrLb1zcPnnDkR0dDTt7e36uS/dT51uueUWVFVlwoQJ+msnTJhwXSr6kdJ49Ka1tZUXX3yRDz/8kKioKJ599tk+D/3q7b+H0vVIS5fLhc1mw2AwMGXKFI4fP8748eNZsmQJBw4cYM+ePVccZHppWeyrnPeWTv29f3qjKAqPPfYY//znP3scQHXq1CmOHTtGIBBA0zTcbjdTpkwhEAjwySef6AtZGxoa8Pv9/drKvDdDVZZPnDiByWRi3LhxPeqe/tYPA82TgeR3b374wx8SGxvLq6++2mNazuHDh/VpN0ePHtU7pG63W+/gtra20tjYGPIHU0NZ73TfQ9OmTeP06dN4vd4Bl/OB5NdDDz1ER0cHu3fvZs+ePVd0ePvKr0mTJvHYY4/xwQcf9FiXECxP+srHUBpJ7YT0k0JPAo0RZLgWpQUCAf1UyYE85Qumv0/cr6dQpKXL5eKuu+5ixowZ+rqcqKgoWlpaaG9vx2AwkJCQcMVOD9D5BDoiIkKfA5ucnMwjjzzS5/dFRUXpQUFycrL+1PJylwcJwZw5cwaj0cj48eOBzg7FmDFjUFWVf/zjH9jtdsLCwggPD2f27Nk9FvUNdR4OR9lPTEzEarXi8Xg4dOgQHo+HmJgYvvjiC6ZOnaq/btq0aSF96jQU+pueX3/9NW1tbTz44IPU1tZy8eJFDAYDbW1t+hPlpKSkXsshdI7udI/2jB49mqeeekovb73p7/0DV9ZFS5Ys4dNPP72iI/zwww+Tmpqq/+7uqRzjxo1j9erV+tPemJgYIiIi9MDjepbxwZbnY8eO6b+pu07ob/3w5ZdfEhcXh6IoACxatEifFtmbgeT35Xly7733MmHCBN56660eHdzExESWL1+up0NCQoL+oGPVqlX6VK6xY8dyxx136P8WERGBoihDto18KOqd2tpa4uPjSUpK4siRI8DAyvmpU6f0e8hsNvPEE0/0+X2XlgOLxcKkSZOCfnZra6ueX6NHj+bHP/4xf/7zn684dTtYnvSVjzA8bf1I6Cddmq7XaiT0k4aKbG87ggzXDVRfX8/y5ct57733qK+vx2636ws609LSuOuuuzAajQQCAWbPns3HH3/MfffdB3RWXs899xw+n08fTo2Pj6esrGxYfku3UKTliRMnWLRoER6PR5/b6na7mTVrFo899hg+n4+DBw+yZMkSpk+f3uO97e3t7N27lyVLluhPWq+WJocOHeInP/kJqqry6aef8tlnn7Fs2TLee++9Hq87e/YsXq9XX4QXHx/PD37wAyIiIoiMjOS5556jvr6egwcP8s4777B8+XI0TUNRFMrKyvR54HfeeSc5OTlAZ8emu/ExGo2YTCZ9l5ihMBxlv6mpicWLFzNv3jygs/HoXv+wcOFCVq1aRVhYGM3Nzfr9cKMYSHoePXqUhQsXUlRUBHR2bD0eD0899RQ+n4+PPvqIO+64g/nz518xJO90Olm4cCFPP/004eHhHDlypM8pL/29f4AedZHJZGLmzJlMnjyZu+++W3/Nrl27cDqdLF68WN8q8/Tp01RVVdHe3s6RI0d4/PHHaW9vJxAI8NZbb+nzqRMSEq55B6arGWx5Pnr0KGvWrOlx7/e3fvjqq69wOp08+eSTBAIB/v3vf3P8+HFSUlJ6/a6B5PeJEydwOByEh4fT0dHB3LlzAXqcflxRUcHx48eZOnUqzz33HJqm4fV69VGYiooKFixYAEB4eDgff/yx/jQ9Pj6ehoaGIdsVLhT1zoULFzh9+jSxsbHs3bsXGFg5P3DgAIsWLWL27NmEhYXp6z2C+fjjj0lPT8dms9HU1ERlZSUPPvigvqXqperr65k2bRrNzc3MnDmT8ePHs3TpUv3fz507x2uvvRY0T0aNGhU0H2F42vqR0k/qTlfoXGdjMpmYOHEiy5Yto729nY8++og5c+b02i4PRxs7nMJiYmICt956a499ksV3V/eWqG+//bb+1GQgEhMTueeee27IM0duJDabjZkzZ+qLu0Opeweby58c3wzCwsLIzc0dUbtgid4Nti7qS1RUFE899RRFRUVBN7wQvUtPT6elpYVPPvkk5J/99NNPc+DAgV47zWLgJkyYwOOPP85LL70U8nODvstt/WDT9WZuY3sjgYYQQgghhBAi5GSNhhBCCCGEECLkJNAQQgghhBBChJwEGkIIIYQQQoiQk0BDCCGEEEIIEXL69rYxMTHDeR1CCCGEEEKIIRTqXf0upwcafr8fr9d7Xb9sMIxG44i+vlD5rvzOoSLpeWOR/AodScvhJel/45C8urFIfoVGdzqOGTPmun6PPnWq+/TUkWqkX1+ofFd+51CR9LyxSH6FjqTl8JL0v3FIXt1YJL9CY6jSUdZoCCGEEEIIIUJOAg0hhBBCCCFEyEmgIYQQQgghhAg5CTSEEEIIIYQQISeBhhBCCCGEECLkRl/9JX0zGAwoisKoUaMICwvr9TWBQICLFy+iaRrnz58nEAgM9muFEEIIIYQQI9igAg2DwcDYsWOv+rqwsDDCw8MJDw8HwOfzDeZrhRBCCCGEECPcoKZOKYoyJO8ZqIjbZzFjUvh1/x4hhBBCCCFE7wYVaHSPUAxEsOlVoeRvOsuUtEXY+x1shDNu6jx+vCaHrNSJ1/XaQsIQT/qGIt54YwMp1z9uE4NkineQvSGXvLxc8vLyyMvPJy8nHZtpuK/sxqRY08jZ9hpv5DmQJBQ3KnNGPn/MsV/fL7GtpmhbFtZ+v8GEI+81NqRKw3Ip2+oi9r6RT7q5598Nqbm8tveP5NgVUFJYW5RLmgEsWdsoyrENz8UKQNqJkWTQazQGatSoIVh/7v+C/z0ADy38EbP+8i7HznT0+fKIBAeLE5o5fuoCidf/6gbJStbGlRirnTTONF/95WIYKcRnbOTJ+Bp2lb5AabOm/91ky2Rt7lrKtxRQrQ7rRd5YzA7WPmPDVdNASsJwX4wQ4ruiSTUx32Fh/+uerr+YmDvfjLep6381JwVrnABYhuUKhU7aiRFlyAONIeP7gv89MBrHwh/BVYIN/4m/8D91fqY4km6AQMND2ZbN+IwO8lZKoDEoSiq5rzmoemozlT7AnE5+fgJvrimgLiGDddmpGDUNRVFQq4vZXlaPz5xKTk4G1ggNTVHwundRWOpCta2mKNtIjWohoWk3m0qcYH+GJ+Or2L7VhSVrI/kzFfx+DU+dF1tcDVv3WVibEU91aT3W7N+xUSlkTUk9oGBfW8SKuk1s2g+pOevIsIKmKSg0Ura9kOpmMNmzyVlp67pGP3VlhZRUe3Hk7SCl2YXRaqKqcAv7G7t/sAFb1jqyU0ygKWie/RQXltOombBn5bAy2dj1HR7Kiwspb1RIy9vBfE81qtGMyWqByjKc5mQSoqOxmjzs3lI4tIGSWkXhr8vRUjawUhqQQVHsORSt9LB5fRkeQEnL5bW5VTy+pRqLYy3POKJBA0Xx4t5VQKlLDVLmmrFkbGNDfCOeaCvavi0UVEr03C+mFFbnZhBnisaEm11bCqlWFayOHJ5Jt4CvM/1rdr3A6y4floxt5Ma7cWomzMZoLJfcg+aU1eRk2jACitfN7sISqnt8Vypr8zLQXt9CoZMg9/ylb1CIz/gvcuxVFGzZT6PGd5rqdqOkOIh/vZR6AHMq8831uJu6RqWUFDa8nI7r2c24L3mfwb6a/8o2sW/LVioJ0n4Mw++5qUk7MaLcvIEGgO8E5e+P4/8tnkvz64f4V7DXdfjpe8xjJNHwfccr/OtPITk9A6X852wqV0GxkvZoNBMxMzdnJcr+X7Le6QMsZG3LY6V9DYVeDSzRNBesp8QDYMLxqAVnaSE48si2lLN5UzUqZjK27YCa3XicoC6Yibmz2eqd1UGmrYGSNSW4AZM9nZRoA3iTWf2MBeem9ZSrgNlBXv4zpNVsx68ZsSpOfr7eyaXbLii2J8lJ8bB9/RbqNROpOWtxJFdR6l9JTkoTBetLcGtgcuSx4xkHNZvKQTMSTRVbCurRbKspyl0AP99EQbOB1NyXcKSYqC4fwmZS8+EDZGLH9ZTAoxnR1G5Zz+sewJJKerwJxWALUua24AaiLV5K1q/HLfVTPykYzVC9aTMlvs776dFUE9X7FaKNjZRtKcDZDIbUDby0YgHlrjL8gCnaT8WmAho1hZQNL5ORaqK6wkb26jicm/6D/c1gcWxgtcOG09X1VSY7q3O7gwwVxZ4T5J6v1q/N4lhHjt0pQUY3TwUV5hwW2HZR79awOOajOEtpSLATF+Qthvgs/jM7mvKtW6hsNuPIC9J+uCSBQ0raiRHl5g40GMeMudM4+/GB4EGGEFfQcFfXkJmdR57NhdPpxLnPSbOSQlacibjM/yQ/o/OVilFDjTZBA/jVBmq7R9UVG3ZjLbubLMxda8JVXN311ErljKrS6G4CzYofAxF9XYrHSWXTOnLyN1BT68JVXUF5ow9sNuJMViy5+czXABQMmoYlWsMDeGpquXxvt2i7FaVxV1enQaW6cDPVgDUrHhpLqetq69QaF00rbcQp5Z2X4G6k8y1evKqHxmYAH17VT4RRqvKbTwNVTsjJzSO6xkWN00lFpQfN5ghS5sANaI1uvQyJ/tDwNjqp8wH4UJu8KCYj0ETTGTMrc/JwaBoYLSiGZoyAFw1voxuP1vV+tes9cTbivHXsbu78ZE/5VjYD2FLBGEdm7gKiqzex3tlZC1lswe75akAhOnUduQleSn9eJkFGN38T1RUeHnUko7ibcCRrVLzgQQvyxFwxp7Nxo4WGF9ZT7gGUOOzB2g+ah+pXCDHkbuJAYxwJP1qA9cT7vHtCttMV/fF/XX61uoD/cJqJT04mJTWb/Mw6Cja5AA9VBZvQp+l2iwf8GnqbbDRh9KuomLEYVer0ACSZZGsT7kYNoq0YzzTSxJVzevUr0eop27yG9y02ku2ppG/MJL1sE5s9gOqkZH1Jj2F6UEgDNG0gvYPLXhs08vEBN8BmCaJfgpcQH67S9awps2KzJzN3RR4r5peyqZwgZQ7MyRp+zd/HZ4peab3kgyWTnJXRlG/aTHkzYM/hj9lXvK1XvYb9JjNaTR1GRwYp7xfi9PXyCZfd8yZjE67mFDIWWKgp80i+dlGdFTSsSCM1RcWuVrC5GVKCvNYYHYHHDckrUjFvqewKJYK0H0LcxG7Sk8E7g4ypje/zbt23w30xYsTS8GpGJnb1nU02W1eH30RKVhappmbqneW8XrgLlzGBBGMdroZoktOsXQ26hbTV2aT2tlTGq+I1RmOiGY/XhDVOAcykrEwnQVNRvQZSMmbSXF6DBnhVDcU4sfNzFQs2qxEAxeogO90GHjfV+0so2NeMxRaH0uCmQUkm1WbouvgUsnMcVy5CVExYrGYUoMnViJYwlwSl8zemrt3G2jRT54iFNaXr72C22TE1uGmQ3sXNzetHM5q7dmQxYJtp7fy7wUZ6dhoWbyOuyjIKi6vxJ9gw97fMicExGTFqTXiaAUykzu9ad9HXexrcNBhtpFg7X2V25LJttb3zPR4nZSUvsN1pJXudAzNc5Z7XqCsvpXD7LryODay0yailzuek3G1hRZYNT0VVn2srVHcZJQVb2aesZF2GFUUbQPshxE1kUCMaHR0dA97itqPj+q+GiJh6N9bTf6H80/4FGbfPy+KhqWMYM2Y8Y8jgycR2/lm1h3frRuBIiNnBhtwM4iIUTEYjlh1FZKlVFG56va+Z/qI3Wg373k8nZ0MeNo8X1aPiQQFUGhqNrMv9HRla50xPb/UudjWrqIXFJKxby7Ztvs7FfK7dFDTDFfvnaTU4mzJwJOxiV3ElOStzyfU2U7O/hFKySd+YQ7OzmGJXZxlrrirDnZpFfm4aTV4VtVmFCNCaGlAznyHfAZoGaB52F9eg+TRKChNYuzqfbT4NxaBRX1aIh87BFZ01g9yNJorXFOBy/zeFVetYve13QASaZx+F1Sqa9t8UOteRnZ+vLzjfVVg+IgfzlZQctmXbiFBMGI0J5Bdl4K8pZn2JS566DlT9fso8G1idn4vnjBeP2vXk2ufB488kZ9ujnYNYipf6XYXU+5qDljnpK4VQXTn7PBvJ2ZZPk9qEa9+bOJ9ZyTPZNewI1rP1VVNaYiNn7TZ+B+Crp6zQhWbqft6uUV9awL68PNZl1fHr14Pd88b/+8zmSrYXzyQ/J4fUTbI7XicNd4Ub7EYqnT76GP7t4mF/QSm2/LVk122iJFj7IUJK2omRJSwmJiZw6623YjAYaGpquvo7LtHfk8Ev1dbWdk0ng0dHRw/4+m5E35XfOVSGNT3NaWzYOBfP7lLKnB59zYTJmkLqfDONu/bLwtnLSPkPHUnL4SXpf+OQvLqxSH6FxlCl46BGNHw+H6NGjSIi4mpRfSdN064pyBDihtRcydZfe0hbkcm6dBMKGprWuWjcWbFfFs4KIYQQ4qY26MXg586dC8V1CHFz8tVTWVpA5XBfhxBCCCHEELtJF4MLIYQQQgghhpMEGkIIIYQQQoiQk0BDCCGEEEIIEXISaAghhBBCCCFCTgINIYQQQgghRMj1OEdDCCGEEEII8d1wvc/S0Le3lcNPhBBCCCGEEKEiU6eEEEIIIYQQISeBhhBCCCGEECLkJNAQQgghhBBChJwEGkIIIYQQQoiQk0BDCCGEEEIIEXISaAghhBBCCCFCTgINIYQQQgghRMhJoCGEEEIIIYQIOQk0hBBCCCGEECEngYYQQgghhBAi5P4/eEu1944H9xAAAAAASUVORK5CYII=;" vertex="1" parent="1">
          <mxGeometry x="-180" y="2390" width="794" height="139" as="geometry" />
        </mxCell>
        <mxCell id="ZQSnCNjEJaoJJcT3hJNP-133" value="User" style="text;html=1;align=center;verticalAlign=middle;whiteSpace=wrap;rounded=0;fontSize=16;" vertex="1" parent="1">
          <mxGeometry x="-180" y="2350" width="60" height="30" as="geometry" />
        </mxCell>
        <mxCell id="ZQSnCNjEJaoJJcT3hJNP-137" value="&lt;span style=&quot;border: 0px solid rgb(227, 227, 227); box-sizing: border-box; --tw-border-spacing-x: 0; --tw-border-spacing-y: 0; --tw-translate-x: 0; --tw-translate-y: 0; --tw-rotate: 0; --tw-skew-x: 0; --tw-skew-y: 0; --tw-scale-x: 1; --tw-scale-y: 1; --tw-pan-x: ; --tw-pan-y: ; --tw-pinch-zoom: ; --tw-scroll-snap-strictness: proximity; --tw-gradient-from-position: ; --tw-gradient-via-position: ; --tw-gradient-to-position: ; --tw-ordinal: ; --tw-slashed-zero: ; --tw-numeric-figure: ; --tw-numeric-spacing: ; --tw-numeric-fraction: ; --tw-ring-inset: ; --tw-ring-offset-width: 0px; --tw-ring-offset-color: #fff; --tw-ring-color: rgba(69,89,164,.5); --tw-ring-offset-shadow: 0 0 transparent; --tw-ring-shadow: 0 0 transparent; --tw-shadow: 0 0 transparent; --tw-shadow-colored: 0 0 transparent; --tw-blur: ; --tw-brightness: ; --tw-contrast: ; --tw-grayscale: ; --tw-hue-rotate: ; --tw-invert: ; --tw-saturate: ; --tw-sepia: ; --tw-drop-shadow: ; --tw-backdrop-blur: ; --tw-backdrop-brightness: ; --tw-backdrop-contrast: ; --tw-backdrop-grayscale: ; --tw-backdrop-hue-rotate: ; --tw-backdrop-invert: ; --tw-backdrop-opacity: ; --tw-backdrop-saturate: ; --tw-backdrop-sepia: ; --tw-contain-size: ; --tw-contain-layout: ; --tw-contain-paint: ; --tw-contain-style: ; color: rgb(46, 149, 211); font-family: &amp;quot;Söhne Mono&amp;quot;, Monaco, &amp;quot;Andale Mono&amp;quot;, &amp;quot;Ubuntu Mono&amp;quot;, monospace; font-size: 14px; text-align: left; white-space-collapse: preserve; background-color: rgb(13, 13, 13);&quot; class=&quot;hljs-keyword&quot;&gt;const&lt;/span&gt;&lt;span style=&quot;color: rgb(255, 255, 255); font-family: &amp;quot;Söhne Mono&amp;quot;, Monaco, &amp;quot;Andale Mono&amp;quot;, &amp;quot;Ubuntu Mono&amp;quot;, monospace; font-size: 14px; text-align: left; white-space-collapse: preserve; background-color: rgb(13, 13, 13);&quot;&gt; &lt;/span&gt;&lt;span style=&quot;border: 0px solid rgb(227, 227, 227); box-sizing: border-box; --tw-border-spacing-x: 0; --tw-border-spacing-y: 0; --tw-translate-x: 0; --tw-translate-y: 0; --tw-rotate: 0; --tw-skew-x: 0; --tw-skew-y: 0; --tw-scale-x: 1; --tw-scale-y: 1; --tw-pan-x: ; --tw-pan-y: ; --tw-pinch-zoom: ; --tw-scroll-snap-strictness: proximity; --tw-gradient-from-position: ; --tw-gradient-via-position: ; --tw-gradient-to-position: ; --tw-ordinal: ; --tw-slashed-zero: ; --tw-numeric-figure: ; --tw-numeric-spacing: ; --tw-numeric-fraction: ; --tw-ring-inset: ; --tw-ring-offset-width: 0px; --tw-ring-offset-color: #fff; --tw-ring-color: rgba(69,89,164,.5); --tw-ring-offset-shadow: 0 0 transparent; --tw-ring-shadow: 0 0 transparent; --tw-shadow: 0 0 transparent; --tw-shadow-colored: 0 0 transparent; --tw-blur: ; --tw-brightness: ; --tw-contrast: ; --tw-grayscale: ; --tw-hue-rotate: ; --tw-invert: ; --tw-saturate: ; --tw-sepia: ; --tw-drop-shadow: ; --tw-backdrop-blur: ; --tw-backdrop-brightness: ; --tw-backdrop-contrast: ; --tw-backdrop-grayscale: ; --tw-backdrop-hue-rotate: ; --tw-backdrop-invert: ; --tw-backdrop-opacity: ; --tw-backdrop-saturate: ; --tw-backdrop-sepia: ; --tw-contain-size: ; --tw-contain-layout: ; --tw-contain-paint: ; --tw-contain-style: ; color: rgb(223, 48, 121); font-family: &amp;quot;Söhne Mono&amp;quot;, Monaco, &amp;quot;Andale Mono&amp;quot;, &amp;quot;Ubuntu Mono&amp;quot;, monospace; font-size: 14px; text-align: left; white-space-collapse: preserve; background-color: rgb(13, 13, 13);&quot; class=&quot;hljs-variable constant_&quot;&gt;TYPE_REALISATIONS&lt;/span&gt;&lt;span style=&quot;color: rgb(255, 255, 255); font-family: &amp;quot;Söhne Mono&amp;quot;, Monaco, &amp;quot;Andale Mono&amp;quot;, &amp;quot;Ubuntu Mono&amp;quot;, monospace; font-size: 14px; text-align: left; white-space-collapse: preserve; background-color: rgb(13, 13, 13);&quot;&gt; = &lt;/span&gt;&lt;span style=&quot;border: 0px solid rgb(227, 227, 227); box-sizing: border-box; --tw-border-spacing-x: 0; --tw-border-spacing-y: 0; --tw-translate-x: 0; --tw-translate-y: 0; --tw-rotate: 0; --tw-skew-x: 0; --tw-skew-y: 0; --tw-scale-x: 1; --tw-scale-y: 1; --tw-pan-x: ; --tw-pan-y: ; --tw-pinch-zoom: ; --tw-scroll-snap-strictness: proximity; --tw-gradient-from-position: ; --tw-gradient-via-position: ; --tw-gradient-to-position: ; --tw-ordinal: ; --tw-slashed-zero: ; --tw-numeric-figure: ; --tw-numeric-spacing: ; --tw-numeric-fraction: ; --tw-ring-inset: ; --tw-ring-offset-width: 0px; --tw-ring-offset-color: #fff; --tw-ring-color: rgba(69,89,164,.5); --tw-ring-offset-shadow: 0 0 transparent; --tw-ring-shadow: 0 0 transparent; --tw-shadow: 0 0 transparent; --tw-shadow-colored: 0 0 transparent; --tw-blur: ; --tw-brightness: ; --tw-contrast: ; --tw-grayscale: ; --tw-hue-rotate: ; --tw-invert: ; --tw-saturate: ; --tw-sepia: ; --tw-drop-shadow: ; --tw-backdrop-blur: ; --tw-backdrop-brightness: ; --tw-backdrop-contrast: ; --tw-backdrop-grayscale: ; --tw-backdrop-hue-rotate: ; --tw-backdrop-invert: ; --tw-backdrop-opacity: ; --tw-backdrop-saturate: ; --tw-backdrop-sepia: ; --tw-contain-size: ; --tw-contain-layout: ; --tw-contain-paint: ; --tw-contain-style: ; color: rgb(0, 166, 125); font-family: &amp;quot;Söhne Mono&amp;quot;, Monaco, &amp;quot;Andale Mono&amp;quot;, &amp;quot;Ubuntu Mono&amp;quot;, monospace; font-size: 14px; text-align: left; white-space-collapse: preserve; background-color: rgb(13, 13, 13);&quot; class=&quot;hljs-string&quot;&gt;&#39;mes réalisations&#39;&lt;/span&gt;&lt;span style=&quot;color: rgb(255, 255, 255); font-family: &amp;quot;Söhne Mono&amp;quot;, Monaco, &amp;quot;Andale Mono&amp;quot;, &amp;quot;Ubuntu Mono&amp;quot;, monospace; font-size: 14px; text-align: left; white-space-collapse: preserve; background-color: rgb(13, 13, 13);&quot;&gt;;&lt;br/&gt;    &lt;/span&gt;&lt;span style=&quot;border: 0px solid rgb(227, 227, 227); box-sizing: border-box; --tw-border-spacing-x: 0; --tw-border-spacing-y: 0; --tw-translate-x: 0; --tw-translate-y: 0; --tw-rotate: 0; --tw-skew-x: 0; --tw-skew-y: 0; --tw-scale-x: 1; --tw-scale-y: 1; --tw-pan-x: ; --tw-pan-y: ; --tw-pinch-zoom: ; --tw-scroll-snap-strictness: proximity; --tw-gradient-from-position: ; --tw-gradient-via-position: ; --tw-gradient-to-position: ; --tw-ordinal: ; --tw-slashed-zero: ; --tw-numeric-figure: ; --tw-numeric-spacing: ; --tw-numeric-fraction: ; --tw-ring-inset: ; --tw-ring-offset-width: 0px; --tw-ring-offset-color: #fff; --tw-ring-color: rgba(69,89,164,.5); --tw-ring-offset-shadow: 0 0 transparent; --tw-ring-shadow: 0 0 transparent; --tw-shadow: 0 0 transparent; --tw-shadow-colored: 0 0 transparent; --tw-blur: ; --tw-brightness: ; --tw-contrast: ; --tw-grayscale: ; --tw-hue-rotate: ; --tw-invert: ; --tw-saturate: ; --tw-sepia: ; --tw-drop-shadow: ; --tw-backdrop-blur: ; --tw-backdrop-brightness: ; --tw-backdrop-contrast: ; --tw-backdrop-grayscale: ; --tw-backdrop-hue-rotate: ; --tw-backdrop-invert: ; --tw-backdrop-opacity: ; --tw-backdrop-saturate: ; --tw-backdrop-sepia: ; --tw-contain-size: ; --tw-contain-layout: ; --tw-contain-paint: ; --tw-contain-style: ; color: rgb(46, 149, 211); font-family: &amp;quot;Söhne Mono&amp;quot;, Monaco, &amp;quot;Andale Mono&amp;quot;, &amp;quot;Ubuntu Mono&amp;quot;, monospace; font-size: 14px; text-align: left; white-space-collapse: preserve; background-color: rgb(13, 13, 13);&quot; class=&quot;hljs-keyword&quot;&gt;const&lt;/span&gt;&lt;span style=&quot;color: rgb(255, 255, 255); font-family: &amp;quot;Söhne Mono&amp;quot;, Monaco, &amp;quot;Andale Mono&amp;quot;, &amp;quot;Ubuntu Mono&amp;quot;, monospace; font-size: 14px; text-align: left; white-space-collapse: preserve; background-color: rgb(13, 13, 13);&quot;&gt; &lt;/span&gt;&lt;span style=&quot;border: 0px solid rgb(227, 227, 227); box-sizing: border-box; --tw-border-spacing-x: 0; --tw-border-spacing-y: 0; --tw-translate-x: 0; --tw-translate-y: 0; --tw-rotate: 0; --tw-skew-x: 0; --tw-skew-y: 0; --tw-scale-x: 1; --tw-scale-y: 1; --tw-pan-x: ; --tw-pan-y: ; --tw-pinch-zoom: ; --tw-scroll-snap-strictness: proximity; --tw-gradient-from-position: ; --tw-gradient-via-position: ; --tw-gradient-to-position: ; --tw-ordinal: ; --tw-slashed-zero: ; --tw-numeric-figure: ; --tw-numeric-spacing: ; --tw-numeric-fraction: ; --tw-ring-inset: ; --tw-ring-offset-width: 0px; --tw-ring-offset-color: #fff; --tw-ring-color: rgba(69,89,164,.5); --tw-ring-offset-shadow: 0 0 transparent; --tw-ring-shadow: 0 0 transparent; --tw-shadow: 0 0 transparent; --tw-shadow-colored: 0 0 transparent; --tw-blur: ; --tw-brightness: ; --tw-contrast: ; --tw-grayscale: ; --tw-hue-rotate: ; --tw-invert: ; --tw-saturate: ; --tw-sepia: ; --tw-drop-shadow: ; --tw-backdrop-blur: ; --tw-backdrop-brightness: ; --tw-backdrop-contrast: ; --tw-backdrop-grayscale: ; --tw-backdrop-hue-rotate: ; --tw-backdrop-invert: ; --tw-backdrop-opacity: ; --tw-backdrop-saturate: ; --tw-backdrop-sepia: ; --tw-contain-size: ; --tw-contain-layout: ; --tw-contain-paint: ; --tw-contain-style: ; color: rgb(223, 48, 121); font-family: &amp;quot;Söhne Mono&amp;quot;, Monaco, &amp;quot;Andale Mono&amp;quot;, &amp;quot;Ubuntu Mono&amp;quot;, monospace; font-size: 14px; text-align: left; white-space-collapse: preserve; background-color: rgb(13, 13, 13);&quot; class=&quot;hljs-variable constant_&quot;&gt;TYPE_INSPIRATIONS&lt;/span&gt;&lt;span style=&quot;color: rgb(255, 255, 255); font-family: &amp;quot;Söhne Mono&amp;quot;, Monaco, &amp;quot;Andale Mono&amp;quot;, &amp;quot;Ubuntu Mono&amp;quot;, monospace; font-size: 14px; text-align: left; white-space-collapse: preserve; background-color: rgb(13, 13, 13);&quot;&gt; = &lt;/span&gt;&lt;span style=&quot;border: 0px solid rgb(227, 227, 227); box-sizing: border-box; --tw-border-spacing-x: 0; --tw-border-spacing-y: 0; --tw-translate-x: 0; --tw-translate-y: 0; --tw-rotate: 0; --tw-skew-x: 0; --tw-skew-y: 0; --tw-scale-x: 1; --tw-scale-y: 1; --tw-pan-x: ; --tw-pan-y: ; --tw-pinch-zoom: ; --tw-scroll-snap-strictness: proximity; --tw-gradient-from-position: ; --tw-gradient-via-position: ; --tw-gradient-to-position: ; --tw-ordinal: ; --tw-slashed-zero: ; --tw-numeric-figure: ; --tw-numeric-spacing: ; --tw-numeric-fraction: ; --tw-ring-inset: ; --tw-ring-offset-width: 0px; --tw-ring-offset-color: #fff; --tw-ring-color: rgba(69,89,164,.5); --tw-ring-offset-shadow: 0 0 transparent; --tw-ring-shadow: 0 0 transparent; --tw-shadow: 0 0 transparent; --tw-shadow-colored: 0 0 transparent; --tw-blur: ; --tw-brightness: ; --tw-contrast: ; --tw-grayscale: ; --tw-hue-rotate: ; --tw-invert: ; --tw-saturate: ; --tw-sepia: ; --tw-drop-shadow: ; --tw-backdrop-blur: ; --tw-backdrop-brightness: ; --tw-backdrop-contrast: ; --tw-backdrop-grayscale: ; --tw-backdrop-hue-rotate: ; --tw-backdrop-invert: ; --tw-backdrop-opacity: ; --tw-backdrop-saturate: ; --tw-backdrop-sepia: ; --tw-contain-size: ; --tw-contain-layout: ; --tw-contain-paint: ; --tw-contain-style: ; color: rgb(0, 166, 125); font-family: &amp;quot;Söhne Mono&amp;quot;, Monaco, &amp;quot;Andale Mono&amp;quot;, &amp;quot;Ubuntu Mono&amp;quot;, monospace; font-size: 14px; text-align: left; white-space-collapse: preserve; background-color: rgb(13, 13, 13);&quot; class=&quot;hljs-string&quot;&gt;&#39;mes inspirations&#39;&lt;/span&gt;&lt;span style=&quot;color: rgb(255, 255, 255); font-family: &amp;quot;Söhne Mono&amp;quot;, Monaco, &amp;quot;Andale Mono&amp;quot;, &amp;quot;Ubuntu Mono&amp;quot;, monospace; font-size: 14px; text-align: left; white-space-collapse: preserve; background-color: rgb(13, 13, 13);&quot;&gt;;&lt;br/&gt;    &lt;/span&gt;&lt;span style=&quot;border: 0px solid rgb(227, 227, 227); box-sizing: border-box; --tw-border-spacing-x: 0; --tw-border-spacing-y: 0; --tw-translate-x: 0; --tw-translate-y: 0; --tw-rotate: 0; --tw-skew-x: 0; --tw-skew-y: 0; --tw-scale-x: 1; --tw-scale-y: 1; --tw-pan-x: ; --tw-pan-y: ; --tw-pinch-zoom: ; --tw-scroll-snap-strictness: proximity; --tw-gradient-from-position: ; --tw-gradient-via-position: ; --tw-gradient-to-position: ; --tw-ordinal: ; --tw-slashed-zero: ; --tw-numeric-figure: ; --tw-numeric-spacing: ; --tw-numeric-fraction: ; --tw-ring-inset: ; --tw-ring-offset-width: 0px; --tw-ring-offset-color: #fff; --tw-ring-color: rgba(69,89,164,.5); --tw-ring-offset-shadow: 0 0 transparent; --tw-ring-shadow: 0 0 transparent; --tw-shadow: 0 0 transparent; --tw-shadow-colored: 0 0 transparent; --tw-blur: ; --tw-brightness: ; --tw-contrast: ; --tw-grayscale: ; --tw-hue-rotate: ; --tw-invert: ; --tw-saturate: ; --tw-sepia: ; --tw-drop-shadow: ; --tw-backdrop-blur: ; --tw-backdrop-brightness: ; --tw-backdrop-contrast: ; --tw-backdrop-grayscale: ; --tw-backdrop-hue-rotate: ; --tw-backdrop-invert: ; --tw-backdrop-opacity: ; --tw-backdrop-saturate: ; --tw-backdrop-sepia: ; --tw-contain-size: ; --tw-contain-layout: ; --tw-contain-paint: ; --tw-contain-style: ; color: rgb(46, 149, 211); font-family: &amp;quot;Söhne Mono&amp;quot;, Monaco, &amp;quot;Andale Mono&amp;quot;, &amp;quot;Ubuntu Mono&amp;quot;, monospace; font-size: 14px; text-align: left; white-space-collapse: preserve; background-color: rgb(13, 13, 13);&quot; class=&quot;hljs-keyword&quot;&gt;const&lt;/span&gt;&lt;span style=&quot;color: rgb(255, 255, 255); font-family: &amp;quot;Söhne Mono&amp;quot;, Monaco, &amp;quot;Andale Mono&amp;quot;, &amp;quot;Ubuntu Mono&amp;quot;, monospace; font-size: 14px; text-align: left; white-space-collapse: preserve; background-color: rgb(13, 13, 13);&quot;&gt; &lt;/span&gt;&lt;span style=&quot;border: 0px solid rgb(227, 227, 227); box-sizing: border-box; --tw-border-spacing-x: 0; --tw-border-spacing-y: 0; --tw-translate-x: 0; --tw-translate-y: 0; --tw-rotate: 0; --tw-skew-x: 0; --tw-skew-y: 0; --tw-scale-x: 1; --tw-scale-y: 1; --tw-pan-x: ; --tw-pan-y: ; --tw-pinch-zoom: ; --tw-scroll-snap-strictness: proximity; --tw-gradient-from-position: ; --tw-gradient-via-position: ; --tw-gradient-to-position: ; --tw-ordinal: ; --tw-slashed-zero: ; --tw-numeric-figure: ; --tw-numeric-spacing: ; --tw-numeric-fraction: ; --tw-ring-inset: ; --tw-ring-offset-width: 0px; --tw-ring-offset-color: #fff; --tw-ring-color: rgba(69,89,164,.5); --tw-ring-offset-shadow: 0 0 transparent; --tw-ring-shadow: 0 0 transparent; --tw-shadow: 0 0 transparent; --tw-shadow-colored: 0 0 transparent; --tw-blur: ; --tw-brightness: ; --tw-contrast: ; --tw-grayscale: ; --tw-hue-rotate: ; --tw-invert: ; --tw-saturate: ; --tw-sepia: ; --tw-drop-shadow: ; --tw-backdrop-blur: ; --tw-backdrop-brightness: ; --tw-backdrop-contrast: ; --tw-backdrop-grayscale: ; --tw-backdrop-hue-rotate: ; --tw-backdrop-invert: ; --tw-backdrop-opacity: ; --tw-backdrop-saturate: ; --tw-backdrop-sepia: ; --tw-contain-size: ; --tw-contain-layout: ; --tw-contain-paint: ; --tw-contain-style: ; color: rgb(223, 48, 121); font-family: &amp;quot;Söhne Mono&amp;quot;, Monaco, &amp;quot;Andale Mono&amp;quot;, &amp;quot;Ubuntu Mono&amp;quot;, monospace; font-size: 14px; text-align: left; white-space-collapse: preserve; background-color: rgb(13, 13, 13);&quot; class=&quot;hljs-variable constant_&quot;&gt;TYPE_POST&lt;/span&gt;&lt;span style=&quot;color: rgb(255, 255, 255); font-family: &amp;quot;Söhne Mono&amp;quot;, Monaco, &amp;quot;Andale Mono&amp;quot;, &amp;quot;Ubuntu Mono&amp;quot;, monospace; font-size: 14px; text-align: left; white-space-collapse: preserve; background-color: rgb(13, 13, 13);&quot;&gt; = &lt;/span&gt;&lt;span style=&quot;border: 0px solid rgb(227, 227, 227); box-sizing: border-box; --tw-border-spacing-x: 0; --tw-border-spacing-y: 0; --tw-translate-x: 0; --tw-translate-y: 0; --tw-rotate: 0; --tw-skew-x: 0; --tw-skew-y: 0; --tw-scale-x: 1; --tw-scale-y: 1; --tw-pan-x: ; --tw-pan-y: ; --tw-pinch-zoom: ; --tw-scroll-snap-strictness: proximity; --tw-gradient-from-position: ; --tw-gradient-via-position: ; --tw-gradient-to-position: ; --tw-ordinal: ; --tw-slashed-zero: ; --tw-numeric-figure: ; --tw-numeric-spacing: ; --tw-numeric-fraction: ; --tw-ring-inset: ; --tw-ring-offset-width: 0px; --tw-ring-offset-color: #fff; --tw-ring-color: rgba(69,89,164,.5); --tw-ring-offset-shadow: 0 0 transparent; --tw-ring-shadow: 0 0 transparent; --tw-shadow: 0 0 transparent; --tw-shadow-colored: 0 0 transparent; --tw-blur: ; --tw-brightness: ; --tw-contrast: ; --tw-grayscale: ; --tw-hue-rotate: ; --tw-invert: ; --tw-saturate: ; --tw-sepia: ; --tw-drop-shadow: ; --tw-backdrop-blur: ; --tw-backdrop-brightness: ; --tw-backdrop-contrast: ; --tw-backdrop-grayscale: ; --tw-backdrop-hue-rotate: ; --tw-backdrop-invert: ; --tw-backdrop-opacity: ; --tw-backdrop-saturate: ; --tw-backdrop-sepia: ; --tw-contain-size: ; --tw-contain-layout: ; --tw-contain-paint: ; --tw-contain-style: ; color: rgb(0, 166, 125); font-family: &amp;quot;Söhne Mono&amp;quot;, Monaco, &amp;quot;Andale Mono&amp;quot;, &amp;quot;Ubuntu Mono&amp;quot;, monospace; font-size: 14px; text-align: left; white-space-collapse: preserve; background-color: rgb(13, 13, 13);&quot; class=&quot;hljs-string&quot;&gt;&#39;post&#39;&lt;/span&gt;&lt;span style=&quot;color: rgb(255, 255, 255); font-family: &amp;quot;Söhne Mono&amp;quot;, Monaco, &amp;quot;Andale Mono&amp;quot;, &amp;quot;Ubuntu Mono&amp;quot;, monospace; font-size: 14px; text-align: left; white-space-collapse: preserve; background-color: rgb(13, 13, 13);&quot;&gt;;&lt;br/&gt;    &lt;/span&gt;&lt;span style=&quot;border: 0px solid rgb(227, 227, 227); box-sizing: border-box; --tw-border-spacing-x: 0; --tw-border-spacing-y: 0; --tw-translate-x: 0; --tw-translate-y: 0; --tw-rotate: 0; --tw-skew-x: 0; --tw-skew-y: 0; --tw-scale-x: 1; --tw-scale-y: 1; --tw-pan-x: ; --tw-pan-y: ; --tw-pinch-zoom: ; --tw-scroll-snap-strictness: proximity; --tw-gradient-from-position: ; --tw-gradient-via-position: ; --tw-gradient-to-position: ; --tw-ordinal: ; --tw-slashed-zero: ; --tw-numeric-figure: ; --tw-numeric-spacing: ; --tw-numeric-fraction: ; --tw-ring-inset: ; --tw-ring-offset-width: 0px; --tw-ring-offset-color: #fff; --tw-ring-color: rgba(69,89,164,.5); --tw-ring-offset-shadow: 0 0 transparent; --tw-ring-shadow: 0 0 transparent; --tw-shadow: 0 0 transparent; --tw-shadow-colored: 0 0 transparent; --tw-blur: ; --tw-brightness: ; --tw-contrast: ; --tw-grayscale: ; --tw-hue-rotate: ; --tw-invert: ; --tw-saturate: ; --tw-sepia: ; --tw-drop-shadow: ; --tw-backdrop-blur: ; --tw-backdrop-brightness: ; --tw-backdrop-contrast: ; --tw-backdrop-grayscale: ; --tw-backdrop-hue-rotate: ; --tw-backdrop-invert: ; --tw-backdrop-opacity: ; --tw-backdrop-saturate: ; --tw-backdrop-sepia: ; --tw-contain-size: ; --tw-contain-layout: ; --tw-contain-paint: ; --tw-contain-style: ; color: rgb(46, 149, 211); font-family: &amp;quot;Söhne Mono&amp;quot;, Monaco, &amp;quot;Andale Mono&amp;quot;, &amp;quot;Ubuntu Mono&amp;quot;, monospace; font-size: 14px; text-align: left; white-space-collapse: preserve; background-color: rgb(13, 13, 13);&quot; class=&quot;hljs-keyword&quot;&gt;const&lt;/span&gt;&lt;span style=&quot;color: rgb(255, 255, 255); font-family: &amp;quot;Söhne Mono&amp;quot;, Monaco, &amp;quot;Andale Mono&amp;quot;, &amp;quot;Ubuntu Mono&amp;quot;, monospace; font-size: 14px; text-align: left; white-space-collapse: preserve; background-color: rgb(13, 13, 13);&quot;&gt; &lt;/span&gt;&lt;span style=&quot;border: 0px solid rgb(227, 227, 227); box-sizing: border-box; --tw-border-spacing-x: 0; --tw-border-spacing-y: 0; --tw-translate-x: 0; --tw-translate-y: 0; --tw-rotate: 0; --tw-skew-x: 0; --tw-skew-y: 0; --tw-scale-x: 1; --tw-scale-y: 1; --tw-pan-x: ; --tw-pan-y: ; --tw-pinch-zoom: ; --tw-scroll-snap-strictness: proximity; --tw-gradient-from-position: ; --tw-gradient-via-position: ; --tw-gradient-to-position: ; --tw-ordinal: ; --tw-slashed-zero: ; --tw-numeric-figure: ; --tw-numeric-spacing: ; --tw-numeric-fraction: ; --tw-ring-inset: ; --tw-ring-offset-width: 0px; --tw-ring-offset-color: #fff; --tw-ring-color: rgba(69,89,164,.5); --tw-ring-offset-shadow: 0 0 transparent; --tw-ring-shadow: 0 0 transparent; --tw-shadow: 0 0 transparent; --tw-shadow-colored: 0 0 transparent; --tw-blur: ; --tw-brightness: ; --tw-contrast: ; --tw-grayscale: ; --tw-hue-rotate: ; --tw-invert: ; --tw-saturate: ; --tw-sepia: ; --tw-drop-shadow: ; --tw-backdrop-blur: ; --tw-backdrop-brightness: ; --tw-backdrop-contrast: ; --tw-backdrop-grayscale: ; --tw-backdrop-hue-rotate: ; --tw-backdrop-invert: ; --tw-backdrop-opacity: ; --tw-backdrop-saturate: ; --tw-backdrop-sepia: ; --tw-contain-size: ; --tw-contain-layout: ; --tw-contain-paint: ; --tw-contain-style: ; color: rgb(223, 48, 121); font-family: &amp;quot;Söhne Mono&amp;quot;, Monaco, &amp;quot;Andale Mono&amp;quot;, &amp;quot;Ubuntu Mono&amp;quot;, monospace; font-size: 14px; text-align: left; white-space-collapse: preserve; background-color: rgb(13, 13, 13);&quot; class=&quot;hljs-variable constant_&quot;&gt;TYPE_PROJET&lt;/span&gt;&lt;span style=&quot;color: rgb(255, 255, 255); font-family: &amp;quot;Söhne Mono&amp;quot;, Monaco, &amp;quot;Andale Mono&amp;quot;, &amp;quot;Ubuntu Mono&amp;quot;, monospace; font-size: 14px; text-align: left; white-space-collapse: preserve; background-color: rgb(13, 13, 13);&quot;&gt; = &lt;/span&gt;&lt;span style=&quot;border: 0px solid rgb(227, 227, 227); box-sizing: border-box; --tw-border-spacing-x: 0; --tw-border-spacing-y: 0; --tw-translate-x: 0; --tw-translate-y: 0; --tw-rotate: 0; --tw-skew-x: 0; --tw-skew-y: 0; --tw-scale-x: 1; --tw-scale-y: 1; --tw-pan-x: ; --tw-pan-y: ; --tw-pinch-zoom: ; --tw-scroll-snap-strictness: proximity; --tw-gradient-from-position: ; --tw-gradient-via-position: ; --tw-gradient-to-position: ; --tw-ordinal: ; --tw-slashed-zero: ; --tw-numeric-figure: ; --tw-numeric-spacing: ; --tw-numeric-fraction: ; --tw-ring-inset: ; --tw-ring-offset-width: 0px; --tw-ring-offset-color: #fff; --tw-ring-color: rgba(69,89,164,.5); --tw-ring-offset-shadow: 0 0 transparent; --tw-ring-shadow: 0 0 transparent; --tw-shadow: 0 0 transparent; --tw-shadow-colored: 0 0 transparent; --tw-blur: ; --tw-brightness: ; --tw-contrast: ; --tw-grayscale: ; --tw-hue-rotate: ; --tw-invert: ; --tw-saturate: ; --tw-sepia: ; --tw-drop-shadow: ; --tw-backdrop-blur: ; --tw-backdrop-brightness: ; --tw-backdrop-contrast: ; --tw-backdrop-grayscale: ; --tw-backdrop-hue-rotate: ; --tw-backdrop-invert: ; --tw-backdrop-opacity: ; --tw-backdrop-saturate: ; --tw-backdrop-sepia: ; --tw-contain-size: ; --tw-contain-layout: ; --tw-contain-paint: ; --tw-contain-style: ; color: rgb(0, 166, 125); font-family: &amp;quot;Söhne Mono&amp;quot;, Monaco, &amp;quot;Andale Mono&amp;quot;, &amp;quot;Ubuntu Mono&amp;quot;, monospace; font-size: 14px; text-align: left; white-space-collapse: preserve; background-color: rgb(13, 13, 13);&quot; class=&quot;hljs-string&quot;&gt;&#39;post pour créer un projet&#39;&lt;/span&gt;&lt;span style=&quot;color: rgb(255, 255, 255); font-family: &amp;quot;Söhne Mono&amp;quot;, Monaco, &amp;quot;Andale Mono&amp;quot;, &amp;quot;Ubuntu Mono&amp;quot;, monospace; font-size: 14px; text-align: left; white-space-collapse: preserve; background-color: rgb(13, 13, 13);&quot;&gt;;&lt;/span&gt;" style="text;html=1;align=center;verticalAlign=middle;resizable=0;points=[];autosize=1;strokeColor=none;fillColor=none;fontSize=16;" vertex="1" parent="1">
          <mxGeometry x="-1240" y="1760" width="390" height="90" as="geometry" />
        </mxCell>
        <mxCell id="ZQSnCNjEJaoJJcT3hJNP-161" style="edgeStyle=none;curved=1;rounded=0;orthogonalLoop=1;jettySize=auto;html=1;entryX=1;entryY=0.5;entryDx=0;entryDy=0;fontSize=12;startSize=8;endSize=8;" edge="1" parent="1" source="ZQSnCNjEJaoJJcT3hJNP-139" target="ZQSnCNjEJaoJJcT3hJNP-159">
          <mxGeometry relative="1" as="geometry" />
        </mxCell>
        <mxCell id="ZQSnCNjEJaoJJcT3hJNP-162" style="edgeStyle=none;curved=1;rounded=0;orthogonalLoop=1;jettySize=auto;html=1;entryX=0.5;entryY=1;entryDx=0;entryDy=0;fontSize=12;startSize=8;endSize=8;" edge="1" parent="1" source="ZQSnCNjEJaoJJcT3hJNP-139" target="ZQSnCNjEJaoJJcT3hJNP-147">
          <mxGeometry relative="1" as="geometry" />
        </mxCell>
        <mxCell id="ZQSnCNjEJaoJJcT3hJNP-139" value="Project" style="swimlane;fontStyle=0;childLayout=stackLayout;horizontal=1;startSize=30;horizontalStack=0;resizeParent=1;resizeParentMax=0;resizeLast=0;collapsible=1;marginBottom=0;whiteSpace=wrap;html=1;" vertex="1" parent="1">
          <mxGeometry x="-1380" y="1340" width="140" height="150" as="geometry" />
        </mxCell>
        <mxCell id="ZQSnCNjEJaoJJcT3hJNP-140" value="id" style="text;strokeColor=none;fillColor=none;align=left;verticalAlign=middle;spacingLeft=4;spacingRight=4;overflow=hidden;points=[[0,0.5],[1,0.5]];portConstraint=eastwest;rotatable=0;whiteSpace=wrap;html=1;" vertex="1" parent="ZQSnCNjEJaoJJcT3hJNP-139">
          <mxGeometry y="30" width="140" height="30" as="geometry" />
        </mxCell>
        <mxCell id="ZQSnCNjEJaoJJcT3hJNP-146" value="post_id" style="text;strokeColor=none;fillColor=none;align=left;verticalAlign=middle;spacingLeft=4;spacingRight=4;overflow=hidden;points=[[0,0.5],[1,0.5]];portConstraint=eastwest;rotatable=0;whiteSpace=wrap;html=1;" vertex="1" parent="ZQSnCNjEJaoJJcT3hJNP-139">
          <mxGeometry y="60" width="140" height="30" as="geometry" />
        </mxCell>
        <mxCell id="ZQSnCNjEJaoJJcT3hJNP-141" value="en cours" style="text;strokeColor=none;fillColor=none;align=left;verticalAlign=middle;spacingLeft=4;spacingRight=4;overflow=hidden;points=[[0,0.5],[1,0.5]];portConstraint=eastwest;rotatable=0;whiteSpace=wrap;html=1;" vertex="1" parent="ZQSnCNjEJaoJJcT3hJNP-139">
          <mxGeometry y="90" width="140" height="30" as="geometry" />
        </mxCell>
        <mxCell id="ZQSnCNjEJaoJJcT3hJNP-142" value="termine" style="text;strokeColor=none;fillColor=none;align=left;verticalAlign=middle;spacingLeft=4;spacingRight=4;overflow=hidden;points=[[0,0.5],[1,0.5]];portConstraint=eastwest;rotatable=0;whiteSpace=wrap;html=1;" vertex="1" parent="ZQSnCNjEJaoJJcT3hJNP-139">
          <mxGeometry y="120" width="140" height="30" as="geometry" />
        </mxCell>
        <mxCell id="ZQSnCNjEJaoJJcT3hJNP-145" style="edgeStyle=none;curved=1;rounded=0;orthogonalLoop=1;jettySize=auto;html=1;entryX=0.498;entryY=1.133;entryDx=0;entryDy=0;entryPerimeter=0;fontSize=12;startSize=8;endSize=8;" edge="1" parent="1" source="ZQSnCNjEJaoJJcT3hJNP-112" target="ZQSnCNjEJaoJJcT3hJNP-142">
          <mxGeometry relative="1" as="geometry" />
        </mxCell>
        <mxCell id="ZQSnCNjEJaoJJcT3hJNP-147" value="Competences" style="swimlane;fontStyle=0;childLayout=stackLayout;horizontal=1;startSize=30;horizontalStack=0;resizeParent=1;resizeParentMax=0;resizeLast=0;collapsible=1;marginBottom=0;whiteSpace=wrap;html=1;" vertex="1" parent="1">
          <mxGeometry x="-1380" y="1100" width="140" height="120" as="geometry" />
        </mxCell>
        <mxCell id="ZQSnCNjEJaoJJcT3hJNP-148" value="id" style="text;strokeColor=none;fillColor=none;align=left;verticalAlign=middle;spacingLeft=4;spacingRight=4;overflow=hidden;points=[[0,0.5],[1,0.5]];portConstraint=eastwest;rotatable=0;whiteSpace=wrap;html=1;" vertex="1" parent="ZQSnCNjEJaoJJcT3hJNP-147">
          <mxGeometry y="30" width="140" height="30" as="geometry" />
        </mxCell>
        <mxCell id="ZQSnCNjEJaoJJcT3hJNP-164" value="project_id" style="text;strokeColor=none;fillColor=none;align=left;verticalAlign=middle;spacingLeft=4;spacingRight=4;overflow=hidden;points=[[0,0.5],[1,0.5]];portConstraint=eastwest;rotatable=0;whiteSpace=wrap;html=1;" vertex="1" parent="ZQSnCNjEJaoJJcT3hJNP-147">
          <mxGeometry y="60" width="140" height="30" as="geometry" />
        </mxCell>
        <mxCell id="ZQSnCNjEJaoJJcT3hJNP-149" value="label" style="text;strokeColor=none;fillColor=none;align=left;verticalAlign=middle;spacingLeft=4;spacingRight=4;overflow=hidden;points=[[0,0.5],[1,0.5]];portConstraint=eastwest;rotatable=0;whiteSpace=wrap;html=1;" vertex="1" parent="ZQSnCNjEJaoJJcT3hJNP-147">
          <mxGeometry y="90" width="140" height="30" as="geometry" />
        </mxCell>
        <mxCell id="ZQSnCNjEJaoJJcT3hJNP-150" style="edgeStyle=none;curved=1;rounded=0;orthogonalLoop=1;jettySize=auto;html=1;entryX=1;entryY=0;entryDx=0;entryDy=0;entryPerimeter=0;fontSize=12;startSize=8;endSize=8;exitX=0;exitY=0.5;exitDx=0;exitDy=0;" edge="1" parent="1" source="ZQSnCNjEJaoJJcT3hJNP-90" target="ZQSnCNjEJaoJJcT3hJNP-114">
          <mxGeometry relative="1" as="geometry" />
        </mxCell>
        <mxCell id="ZQSnCNjEJaoJJcT3hJNP-151" value="Media" style="swimlane;fontStyle=0;childLayout=stackLayout;horizontal=1;startSize=30;horizontalStack=0;resizeParent=1;resizeParentMax=0;resizeLast=0;collapsible=1;marginBottom=0;whiteSpace=wrap;html=1;" vertex="1" parent="1">
          <mxGeometry x="-1410" y="1580" width="140" height="150" as="geometry" />
        </mxCell>
        <mxCell id="ZQSnCNjEJaoJJcT3hJNP-152" value="id" style="text;strokeColor=none;fillColor=none;align=left;verticalAlign=middle;spacingLeft=4;spacingRight=4;overflow=hidden;points=[[0,0.5],[1,0.5]];portConstraint=eastwest;rotatable=0;whiteSpace=wrap;html=1;" vertex="1" parent="ZQSnCNjEJaoJJcT3hJNP-151">
          <mxGeometry y="30" width="140" height="30" as="geometry" />
        </mxCell>
        <mxCell id="ZQSnCNjEJaoJJcT3hJNP-155" value="post_id" style="text;strokeColor=none;fillColor=none;align=left;verticalAlign=middle;spacingLeft=4;spacingRight=4;overflow=hidden;points=[[0,0.5],[1,0.5]];portConstraint=eastwest;rotatable=0;whiteSpace=wrap;html=1;" vertex="1" parent="ZQSnCNjEJaoJJcT3hJNP-151">
          <mxGeometry y="60" width="140" height="30" as="geometry" />
        </mxCell>
        <mxCell id="ZQSnCNjEJaoJJcT3hJNP-154" value="label" style="text;strokeColor=none;fillColor=none;align=left;verticalAlign=middle;spacingLeft=4;spacingRight=4;overflow=hidden;points=[[0,0.5],[1,0.5]];portConstraint=eastwest;rotatable=0;whiteSpace=wrap;html=1;" vertex="1" parent="ZQSnCNjEJaoJJcT3hJNP-151">
          <mxGeometry y="90" width="140" height="30" as="geometry" />
        </mxCell>
        <mxCell id="ZQSnCNjEJaoJJcT3hJNP-153" value="url" style="text;strokeColor=none;fillColor=none;align=left;verticalAlign=middle;spacingLeft=4;spacingRight=4;overflow=hidden;points=[[0,0.5],[1,0.5]];portConstraint=eastwest;rotatable=0;whiteSpace=wrap;html=1;" vertex="1" parent="ZQSnCNjEJaoJJcT3hJNP-151">
          <mxGeometry y="120" width="140" height="30" as="geometry" />
        </mxCell>
        <mxCell id="ZQSnCNjEJaoJJcT3hJNP-157" value="Message" style="swimlane;fontStyle=0;childLayout=stackLayout;horizontal=1;startSize=30;horizontalStack=0;resizeParent=1;resizeParentMax=0;resizeLast=0;collapsible=1;marginBottom=0;whiteSpace=wrap;html=1;" vertex="1" parent="1">
          <mxGeometry x="-1610" y="1265" width="140" height="120" as="geometry" />
        </mxCell>
        <mxCell id="ZQSnCNjEJaoJJcT3hJNP-158" value="id" style="text;strokeColor=none;fillColor=none;align=left;verticalAlign=middle;spacingLeft=4;spacingRight=4;overflow=hidden;points=[[0,0.5],[1,0.5]];portConstraint=eastwest;rotatable=0;whiteSpace=wrap;html=1;" vertex="1" parent="ZQSnCNjEJaoJJcT3hJNP-157">
          <mxGeometry y="30" width="140" height="30" as="geometry" />
        </mxCell>
        <mxCell id="ZQSnCNjEJaoJJcT3hJNP-159" value="text" style="text;strokeColor=none;fillColor=none;align=left;verticalAlign=middle;spacingLeft=4;spacingRight=4;overflow=hidden;points=[[0,0.5],[1,0.5]];portConstraint=eastwest;rotatable=0;whiteSpace=wrap;html=1;" vertex="1" parent="ZQSnCNjEJaoJJcT3hJNP-157">
          <mxGeometry y="60" width="140" height="30" as="geometry" />
        </mxCell>
        <mxCell id="ZQSnCNjEJaoJJcT3hJNP-160" value="created_at" style="text;strokeColor=none;fillColor=none;align=left;verticalAlign=middle;spacingLeft=4;spacingRight=4;overflow=hidden;points=[[0,0.5],[1,0.5]];portConstraint=eastwest;rotatable=0;whiteSpace=wrap;html=1;" vertex="1" parent="ZQSnCNjEJaoJJcT3hJNP-157">
          <mxGeometry y="90" width="140" height="30" as="geometry" />
        </mxCell>
        <mxCell id="ZQSnCNjEJaoJJcT3hJNP-165" value="User_Competence" style="swimlane;fontStyle=0;childLayout=stackLayout;horizontal=1;startSize=30;horizontalStack=0;resizeParent=1;resizeParentMax=0;resizeLast=0;collapsible=1;marginBottom=0;whiteSpace=wrap;html=1;" vertex="1" parent="1">
          <mxGeometry x="-1120" y="1250" width="140" height="90" as="geometry" />
        </mxCell>
        <mxCell id="ZQSnCNjEJaoJJcT3hJNP-167" value="user_id" style="text;strokeColor=none;fillColor=none;align=left;verticalAlign=middle;spacingLeft=4;spacingRight=4;overflow=hidden;points=[[0,0.5],[1,0.5]];portConstraint=eastwest;rotatable=0;whiteSpace=wrap;html=1;" vertex="1" parent="ZQSnCNjEJaoJJcT3hJNP-165">
          <mxGeometry y="30" width="140" height="30" as="geometry" />
        </mxCell>
        <mxCell id="ZQSnCNjEJaoJJcT3hJNP-168" value="competence_id" style="text;strokeColor=none;fillColor=none;align=left;verticalAlign=middle;spacingLeft=4;spacingRight=4;overflow=hidden;points=[[0,0.5],[1,0.5]];portConstraint=eastwest;rotatable=0;whiteSpace=wrap;html=1;" vertex="1" parent="ZQSnCNjEJaoJJcT3hJNP-165">
          <mxGeometry y="60" width="140" height="30" as="geometry" />
        </mxCell>
        <mxCell id="ZQSnCNjEJaoJJcT3hJNP-169" style="edgeStyle=none;curved=1;rounded=0;orthogonalLoop=1;jettySize=auto;html=1;entryX=1;entryY=0.5;entryDx=0;entryDy=0;fontSize=12;startSize=8;endSize=8;" edge="1" parent="1" source="ZQSnCNjEJaoJJcT3hJNP-86" target="ZQSnCNjEJaoJJcT3hJNP-167">
          <mxGeometry relative="1" as="geometry" />
        </mxCell>
        <mxCell id="ZQSnCNjEJaoJJcT3hJNP-170" style="edgeStyle=none;curved=1;rounded=0;orthogonalLoop=1;jettySize=auto;html=1;entryX=0;entryY=0.5;entryDx=0;entryDy=0;fontSize=12;startSize=8;endSize=8;exitX=1.012;exitY=-0.052;exitDx=0;exitDy=0;exitPerimeter=0;" edge="1" parent="1" source="ZQSnCNjEJaoJJcT3hJNP-164" target="ZQSnCNjEJaoJJcT3hJNP-168">
          <mxGeometry relative="1" as="geometry" />
        </mxCell>
        <mxCell id="ZQSnCNjEJaoJJcT3hJNP-171" value="type de post stocké en const" style="text;html=1;align=center;verticalAlign=middle;whiteSpace=wrap;rounded=0;fontSize=16;" vertex="1" parent="1">
          <mxGeometry x="-1170" y="1740" width="240" height="30" as="geometry" />
        </mxCell>
        <mxCell id="ZQSnCNjEJaoJJcT3hJNP-172" value="using vichuploader&lt;div&gt;modifier entité media&lt;/div&gt;&lt;div&gt;imagefile&lt;/div&gt;&lt;div&gt;configurer mapping vichuploader bundle&lt;/div&gt;&lt;div&gt;pas d emodif bdd car champ url présent&lt;/div&gt;&lt;div&gt;creer ou update formulaire&lt;/div&gt;" style="text;html=1;align=center;verticalAlign=middle;whiteSpace=wrap;rounded=0;fontSize=16;" vertex="1" parent="1">
          <mxGeometry x="-1600" y="1770" width="350" height="130" as="geometry" />
        </mxCell>
      </root>
    </mxGraphModel>
  </diagram>
</mxfile>
